<?xml version="1.0" encoding="utf-8"?>
<!-- Generator: Adobe Illustrator 19.0.0, SVG Export Plug-In . SVG Version: 6.00 Build 0)  -->
<svg version="1.1" id="Layer_1" xmlns="http://www.w3.org/2000/svg" xmlns:xlink="http://www.w3.org/1999/xlink" x="0px" y="0px"
	 viewBox="-504 308 271 185" style="enable-background:new -504 308 271 185;" xml:space="preserve">
<style type="text/css">
	.st0{fill:#36383A;}
</style>
<g>
	<path class="st0" d="M-319.8,313.2C-319.8,313.2-319.8,313.2-319.8,313.2C-319.8,313.2-319.8,313.2-319.8,313.2L-319.8,313.2z"/>
	<path class="st0" d="M-375.5,405.6C-375.6,405.6-375.6,405.6-375.5,405.6C-375.6,405.6-375.6,405.6-375.5,405.6L-375.5,405.6z"/>
	<path class="st0" d="M-233,346.7c-0.1-1.3-0.3-2.6-0.3-3.9c0-0.9,0-1.8-0.1-2.7c-0.2-1.4-0.1-2.7-0.2-4.1c-0.1-1.7-0.1-3.5-0.5-5.2
		c-0.2-0.7-0.1-1.5-0.5-2.1c-0.5-1-0.8-2-0.8-3c-0.1-1.6-0.1-3.1,0-4.7c0-1.2-0.2-2.5,0.2-3.7c0-0.1,0-0.2-0.1-0.2
		c-0.6,0.2-0.2-0.4-0.5-0.6l-0.3,0.1c-0.1,0.1-0.1,0.2-0.1,0.4c0,0.2-0.2,0.2-0.3,0.1c-0.1,0-0.1-0.2-0.1-0.2c0.2-0.6,0-1.3,0.2-2
		c0.1-0.3-0.1-0.8,0.1-1c0.2-0.2,0.7-0.1,1-0.1c0.2,0,0.4-0.1,0.5-0.3c-0.3-0.1,0.1-0.3-0.1-0.4c0.4-0.1,0.1-0.7,0.5-0.8
		c0.1,0,0-0.2,0-0.2c-0.6-0.2-1-0.7-1.7-0.7c-0.7,0.1-1.5,0-2.2-0.1c-1.6-0.3-3.1-0.5-4.7-0.6c-2-0.1-4,0-5.9-0.1
		c-2.5-0.1-5,0.1-7.5,0.2c-1.9,0.1-3.8,0.2-5.7,0.2c-1.7,0-3.4,0.2-5.1,0.2c-0.1,0-0.2,0-0.2,0c-2.3,0.2-4.6,0.2-6.9,0.2
		c-1.1,0-2.2-0.1-3.3-0.1c-2-0.1-3.9-0.2-5.9-0.4c-1.6-0.1-3.1-0.3-4.7-0.4c-2.6-0.1-5.3-0.4-7.9-0.3c-0.5,0-1.1,0-1.6,0
		c-2.1-0.2-4.2-0.1-6.3-0.1c-1.9,0-3.9,0.1-5.8,0.2c-1.7,0.1-3.5,0.2-5.2,0.2c-3.3,0-6.7,0.3-10,0.3c-3.1,0-6.2,0-9.3,0
		c-2.1,0-4.2,0.2-6.2,0.2c-2.6,0-5.2,0.1-7.8-0.1c-2.1-0.1-4.2,0-6.2,0c-0.3,0-0.7,0-1,0c-1.8,0.2-3.5,0.2-5.3,0
		c-2.1-0.1-4.1-0.1-6.2-0.2c-1.5,0-3.1-0.1-4.7,0c-1.3,0.1-2.7-0.1-4.1-0.1c-2.3,0-4.5-0.1-6.8-0.2c-2.7-0.1-5.4-0.5-8-0.4
		c-0.5,0-0.9,0-1.4,0c-1.7-0.2-3.4,0-5.1-0.2c-1.2-0.1-2.4-0.2-3.6-0.2c-2.4-0.1-4.8-0.3-7.2-0.4c-1.6,0-3.2-0.1-4.9-0.2
		c-1.9-0.2-3.9-0.4-5.8-0.5c-1.6-0.1-3.2-0.1-4.8-0.2c-1.9-0.1-3.8-0.3-5.7-0.3c-1.6,0-3.3-0.3-4.9-0.1c-1.8,0.2-3.5,0-5.3,0.1
		c-1.8,0.1-3.7,0.1-5.5,0.2c-1.9,0-3.7,0-5.6,0c-0.8,0-1.6,0-2.4,0c-2.3,0-4.6,0-6.9,0.1c-0.8,0-1.7,0.1-2.5,0.2
		c-1.7,0.1-3.5,0.4-5.2,0.6c-1.3,0.1-2.6,0.2-3.8,0.2c-2.2,0.1-4.5,0.3-6.7,0.3c-0.1,0-0.3,0-0.4,0c-2.2,0.3-4.5,0-6.7,0.2
		c-1.2,0.1-2.3-0.1-3.5-0.2c-0.9,0-1.9,0-2.8-0.1c-1-0.1-1.9,0-2.9-0.1c-2.1-0.2-4.2-0.3-6.3-0.5c-0.6,0-1.3,0-1.9-0.3
		c-0.4-0.2-0.7,0.1-1,0.3c-0.3,0.2-0.1,0.3,0,0.4c-0.2,0.2,0.2,0.5-0.1,0.6c0.3,0.2-0.3,0.4,0,0.6c0.5,0.4,0.3,1,0.3,1.4
		c0,1.2,0.1,2.3,0.1,3.5c0.1,2,0.4,4.1,0.7,6.1c0,1.9,0.4,3.7,0.7,5.5c0.2,1.2,0.3,2.4,0.5,3.6c0.1,1,0.3,1.9,0.4,2.9
		c0.3,2.3,0.4,4.6,0.3,6.8c0,0.5-0.1,0.9,0,1.4c0.1,0.6,0.1,1.2,0.1,1.7c-0.1,1-0.1,2.1-0.1,3.1c0,1.5,0,3,0.1,4.4
		c0.1,1.2,0.1,2.4,0.2,3.6c0.1,1.3,0.4,2.6,0.4,4c0.1,1.7,0.4,3.4,0.6,5.1c0.2,1.4,0.3,2.7,0.4,4.1c0.1,1.7,0,3.3-0.1,5
		c-0.1,1.1-0.1,2.2-0.1,3.4c0,1.5-0.1,2.9-0.2,4.4c-0.1,0.9-0.1,1.9-0.1,2.8c0,0.9,0.1,1.8,0,2.7c-0.1,1.2-0.1,2.4-0.3,3.6
		c-0.2,1.9-0.5,3.8-0.5,5.7c0,1.1-0.1,2.2-0.1,3.2c0,1.3,0,2.6,0,3.8c0.1,0.9,0.2,1.8,0.3,2.7c0.2,1.3,0.2,2.6,0.3,3.9
		c0.1,1.8,0.3,3.7,0.2,5.5c0,0.8-0.1,1.5,0,2.3c0.1,1.1,0,2.2,0,3.4c0,0.7-0.1,1.3-0.1,2c0.1,1.5,0,2.9,0,4.4c0,1.9-0.2,3.9-0.4,5.8
		c-0.1,1.2-0.2,2.5-0.3,3.7c-0.1,1.7-0.2,3.3-0.4,5c-0.2,1.8-0.3,3.6-0.6,5.4c-0.2,1.4-0.2,2.8-0.3,4.1c-0.1,0.6-0.1,1.1-0.2,1.7
		c-0.2,1.3-0.3,2.6-0.3,4c0,1.1,0,2.2-0.1,3.2c-0.1,2.3-0.1,4.5,0,6.8c0.1,2.1,0.1,4.2,0,6.2c-0.1,1.8-0.1,3.6-0.3,5.4
		c-0.1,0.8,0,1.7-0.1,2.5c-0.1,0.5-0.1,1.1-0.1,1.7c0,1-0.1,2-0.2,3c0,0.4,0,0.7,0,1.1c0,0.2,0,0.6,0,0.9c0,0.8,0,1.5,0.7,2
		c0.4,0.3,0.8,0.1,1.2,0.2c1,0.1,2,0.3,3,0.2c0.5,0,1-0.1,1.4,0c1.1,0.2,2.3,0.1,3.4,0.2c1.2,0.2,2.5,0,3.7-0.2
		c1.8-0.2,3.6-0.2,5.4-0.5c1.5-0.3,3.1-0.1,4.7-0.2c1.5-0.1,3-0.2,4.5-0.2c2.2-0.1,4.4-0.2,6.6-0.3c1.4,0,2.9,0,4.3,0
		c1.3,0,2.6-0.1,3.9,0.1c0.3,0,0.7,0.1,1,0c0.7-0.1,1.4,0,2.1,0c0.6,0,1.2,0,1.8,0c1-0.1,2-0.1,3-0.1c0.7,0,1.5,0,2.2,0
		c1.4,0,2.8-0.2,4.1-0.3c2.1-0.1,4.1-0.2,6.2-0.2c1,0,2,0,3,0c2.8-0.1,5.6,0.1,8.4-0.1c0.9-0.1,1.8,0.1,2.7,0
		c1.6-0.1,3.2-0.2,4.8-0.2c1.9,0,3.9,0,5.8,0c2,0,4,0,6,0.1c1.8,0.1,3.5,0.4,5.2,0.4c0.8,0,1.7,0,2.5,0.1c1.1,0.1,2.2,0.2,3.4,0.4
		c2.3,0.3,4.5,0.2,6.8,0.5c1.4,0.2,2.7,0.2,4.1,0.3c1.1,0.1,2.2,0.1,3.3,0.1l3.2,0.1c0.7,0,1.3-0.2,2,0c0.3,0,0.6-0.3,0.9-0.1
		c0.4,0.2,0.8,0.1,1.2,0.1c1,0.1,2-0.1,2.9-0.1c1.4-0.1,2.8,0.3,4.2,0.3c1.1,0,2.2-0.2,3.3,0c0.7,0.1,1.4-0.2,2,0
		c0.6,0.2,1.2,0.2,1.8,0.2c0.2,0,0.4-0.1,0.6-0.1c1,0.3,2.1-0.1,3.1,0.2c1,0.2,2-0.2,3.1-0.2c0.4,0,0.8,0.1,1.1,0c1-0.2,2,0.1,3-0.2
		c0.7-0.2,1.3,0,2,0.1c0.9,0.1,1.7-0.4,2.5-0.3c0.4,0,0.9,0.1,1.3,0.1c1.1,0,2.2-0.1,3.4-0.1c1.7,0,3.4-0.1,5-0.1
		c0.1,0,0.2,0,0.3-0.1c0.9-0.1,1.8-0.3,2.7-0.2c1,0,2,0,2.9,0c0.7,0,1.4-0.2,2.1-0.2c1.1-0.1,2.1,0.1,3.2-0.3c0.5-0.1,1,0.2,1.5,0.1
		c0.8-0.2,1.6-0.1,2.4-0.2c1.2-0.1,2.5-0.2,3.7-0.3c1.1-0.1,2.3,0,3.4-0.1c1.3-0.2,2.7,0.1,4,0.1c1.7,0,3.4,0.1,5,0.3
		c2.9,0.4,5.7,0.7,8.6,1.1c2,0.3,4.1,0.2,6.2,0.4c1.7,0.2,3.3,0.1,5,0.2c1.7,0.2,3.5,0.2,5.2,0.4c2,0.2,4,0.4,6.1,0.6
		c1.5,0.1,3.1,0.2,4.6,0.2c1,0.1,1.9,0.1,2.9,0.2c1.2,0.1,2.5,0.1,3.7,0.1c1,0,2.1,0.1,3.1,0.2c0.8,0.1,1.6,0.2,2.5,0.1
		c0.7,0,1.4,0,2.1,0c2,0.2,4,0.4,6,0.4c1.2,0,2.4-0.1,3.6,0.1c0.2,0,0.4,0.2,0.6,0.1c0.7-0.1,1.5-0.1,2.1,0.1c0.9,0.3,1.9,0,2.8,0.4
		c0.8,0.3,1.7,0.2,2.6,0.2c0.6,0,1.3,0.2,1.7-0.6c-0.1-0.1-0.3,0.1-0.4-0.1c0.8,0,1.1,0,1.4-0.2c-0.1-0.1-0.2-0.1-0.3-0.2
		c-0.6-0.6-1.1-1.4-2.1-1.4c-0.1,0-0.1-0.1,0-0.2c0,0,0-0.2,0.2,0c0.1,0.2,0.4,0,0.5,0.1c0.6,0,1.1-0.3,1.7-0.1
		c0.2,0.1,0.2-0.1,0.3-0.2c0.2-0.2,0.5-0.5,0.8-0.1c0-0.8-0.7-0.8-1.2-1c0.5-0.2,0.7-0.7,0.3-0.9c-0.3-0.2,0-0.3-0.1-0.4
		c0.2-0.2,0.1-0.4-0.1-0.6c0,0-0.2,0-0.1-0.2c0.2-0.2,0.1-0.5,0-0.8l0,0.5c-0.1-0.2-0.2-0.6-0.1-0.7c0.5-0.3,0.2-0.7,0.1-1
		c0-0.1-0.4-0.4,0.1-0.5c0,0,0-0.1,0-0.2c-0.2-0.5-0.1-1.1-0.1-1.7c0.1-0.5-0.3-0.9-0.1-1.4c0.1-0.3-0.2-0.7,0.1-1
		c0.1-0.1,0.1-0.2,0-0.3c-0.2-0.4,0-0.7,0-1c-0.1-0.4,0.2-0.7,0.4-1.1c0.2-0.5,0.1-1,0.2-1.5c0.2-0.7,0.1-1.5,0.3-2.2
		c0.2-0.8,0.3-1.8,0.3-2.6c0-0.7,0.2-1.4,0.2-2.1c0.2,0.6,0,1.2,0,1.9c0,0.6-0.2,1.2-0.1,1.8c0.7-5,0.7-10,0.6-15
		c0.8-1.1,0.4-2.1-0.1-3.2v3.4c0,0,0,0,0-0.1c0,0.1,0,0.2,0,0.4c0,3.3,0.1,6.6-0.2,9.9c0,0.1,0.1,0.3-0.2,0.3
		c0.2-0.8,0.1-1.5,0.2-2.3c0.2-1.5,0.1-3,0.1-4.6c0-1.1,0.1-2.2,0.1-3.3c0-0.4-0.2-0.7-0.1-1.1c0.1-0.4,0-0.7,0-1c0-1-0.2-2.1,0-3.1
		c0.1-0.4,0.1-0.9,0.2-1.3c-0.2,0.1,0,0.3-0.3,0.3c0.3-0.5,0-1.1,0-1.6c0-0.2,0.2-0.3,0.2-0.6c-0.1-0.8,0.1-1.6,0.1-2.4
		c0-0.6,0-1.2,0.1-1.9c0.1-0.4,0.4-1-0.2-1.5c0.3-0.7,0.1-1.3-0.1-1.9c0-0.2,0.2-0.5,0.1-0.7c-0.3-0.6-0.1-1.2-0.2-1.8
		c-0.1-0.5,0.1-0.9,0-1.4c-0.1-1,0-2-0.1-3c0-0.5,0-1-0.2-1.4c-0.1-0.3-0.4-0.5-0.5-0.7c-0.3-0.6-0.3-1.2-0.5-1.8
		c-0.2-0.7-0.1-1.5-0.2-2.2c-0.1-0.5-0.7-0.8-0.4-1.4c0.1-0.3-0.3-0.2-0.3-0.4c0-0.5-0.1-1.1-0.1-1.6c0-1.4-0.2-2.7-0.5-4.1
		c-0.1-0.4-0.6-0.7-0.1-1.2c-0.2-0.1-0.2-0.4-0.2-0.6c0.1-0.6,0.1-1.1,0.3-1.7c0-0.2,0.1-0.4,0.1-0.6c0-0.2,0.2-0.3,0.2-0.5
		c0.2-0.4-0.3,0.1-0.3-0.2c0,0,0-0.1,0-0.1c0.2-0.3,0-0.7,0.1-1.1c0.2,0.4,0.3,0.4,0.5,0c0.1-0.3,0.4-0.5,0.2-0.9
		c-0.1-0.2,0-0.4,0.2-0.4c0.1,0,0.2,0,0.2-0.1c0-0.7,0.2-1.3,0.2-2c0-0.5-0.1-1.1,0.2-1.8v3.4c0.1-0.1,0.1-0.2,0.1-0.2
		c0-1.6,0-3.3,0.1-4.9c0-0.3-0.3-0.8,0.3-1c0.1,0,0.1-0.4,0-0.4c-0.6-0.1-0.3-0.6-0.3-0.9c0-2-0.4-4-0.4-6c0-0.9-0.1-1.8-0.1-2.7
		c0-0.1,0.1-0.3-0.2-0.3l0.2,4.4l-0.2,0c-0.2-1.7-0.2-3.5-0.2-5.3c0.2,0.2,0,0.5,0.3,0.7c0.1-0.5-0.1-1.1,0.5-1.5
		c0.1,0-0.1,0.4,0.2,0.3c0.2-0.1,0.2-0.2,0.2-0.4v-0.3c0-1.2-0.1-2.4-0.1-3.5c0-0.2,0.1-0.5-0.3-0.4c-0.3,0.1-0.2,0.3-0.2,0.5
		c0,0.1,0.1,0.2,0,0.3c-0.1,0-0.2,0-0.3-0.1c-0.1-0.1,0.1-0.1,0.1-0.2c0-0.2,0.1-0.4,0.1-0.7c0-0.3-0.1-0.5,0.2-0.8
		c0,0.1,0,0.2,0,0.2c0,0.2,0,0.4,0.2,0.4c0.3,0,0.1-0.2,0.1-0.4c0.1-0.3,0-0.5,0.1-0.8c0.4-1.6,0.2-3.3,0.4-4.9c0.2-1.5,0-3,0.2-4.5
		c0.1-1,0.3-1.9,0-2.9c0.5-0.4,0.2-0.9,0.2-1.4c0-0.8,0-1.7,0-2.5c0-0.6,0.1-1.3,0.1-1.9c0-0.9,0.1-1.9,0.1-2.8
		c0-1.1,0.1-2.1,0.1-3.1c0.1-0.6,0.2-1.2-0.4-1.7c0.4,0.3,0.5,0.1,0.6-0.3c0.1-0.5-0.3-1.1,0.2-1.6c-0.1-1.3,0.2-2.6,0.4-3.8
		c0.2-1.5,0.1-3,0.3-4.4c0.1-0.9,0.2-1.8-0.2-2.6c-0.2-0.4,0.2-0.6,0.2-0.9C-232.7,349.5-232.8,348.1-233,346.7z M-260.9,312.8
		c-0.1,0-0.1,0.1-0.2,0.2c0,0-0.1-0.1-0.1-0.2C-261.1,312.7-261,312.7-260.9,312.8z M-378.5,486.9c-0.5-0.1-1,0-1.5,0
		c-0.8-0.1-1.7,0.1-2.5,0.1c-0.9,0-1.7-0.1-2.6-0.1c-1.8,0-3.5-0.1-5.3-0.3c-0.9-0.1-1.8,0-2.7-0.1c-1.9-0.2-3.9-0.3-5.8-0.5
		c-1.1-0.1-2.3-0.2-3.4-0.3c-2-0.1-3.9-0.3-5.9-0.4c-0.3,0-0.5,0-0.8,0c-1.7,0-3.5-0.1-5.2-0.1c-1,0-2,0.1-2.9,0.1
		c-0.8,0-1.7-0.1-2.5-0.1c-2.2,0.2-4.4,0-6.7,0.2c-0.8,0-1.5,0-2.3,0c-3.5,0.1-7,0.1-10.5,0.1c-2.1,0-4.1,0-6.2,0.1
		c-2.6,0.1-5.2,0.3-7.8,0.4c-0.8,0-1.6,0.1-2.5,0.1h-9.3c-2,0-4.1,0-6.2,0c-2.3,0.1-4.5,0.1-6.8,0.5c-0.4,0-0.8,0-1.2,0
		c-1.9-0.1-3.8,0.2-5.7,0.3c-1.1,0-2.1,0.3-3.2,0.3c-1.6,0-3.1,0.4-4.6,0.4c-1.1,0-2.2,0-3.3-0.3c-0.2-0.1-0.7-0.1-1,0.1
		c-0.2,0.1-0.4,0-0.7,0c0.4-0.2,0.2-0.5,0.2-0.8c0.3-1,0.2-2,0.4-3c0.1-0.8,0.1-1.6,0.3-2.4c0.1-0.2-0.1-0.5-0.1-0.6
		c-0.2-0.7,0.1-1.4,0-2.1c-0.1-0.7,0-1.4,0.1-2.1c0.1-0.6,0.1-1.2,0-1.8c-0.1-0.5,0.1-1,0.1-1.5c0-0.9,0.1-1.9,0.1-2.8
		c0-0.5,0-0.9-0.2-1.4c-0.1-0.1-0.1-0.3,0-0.4c0.7-1.3,0.1-2.6,0.2-3.9c0-0.3-0.3-0.5-0.3-0.9c0-0.4,0-0.7,0.2-1
		c0.1-0.3,0.1-0.6-0.1-1c-0.3-0.7-0.3-1.5,0-2.2c0.2-0.4,0.2-0.5,0-0.8c-0.1-0.1-0.1-0.2,0-0.3c0.6-0.5,0.2-1.2,0.3-1.7
		c0.1-0.8,0.2-1.5,0.2-2.3c-0.1-1,0.4-2,0.1-2.9c-0.2-0.8,0.2-1.4,0.3-2.1c0-0.4-0.3-0.4-0.3-0.7c0.2-1.4,0.2-2.8,0.5-4.1
		c0.5-1.8,0.5-3.7,0.7-5.6c0.2-2.1,0.4-4.3,0.5-6.4c0.1-1.5,0.3-3,0.3-4.5c0-0.9,0.1-1.8,0.1-2.6c0-2.5,0-5,0-7.5c0-0.4,0-0.8,0-1.2
		c0-0.3,0.2-0.4,0.4-0.3c0.9,0.3,1.9,0.1,2.8-0.1c1.1-0.1,2.1-0.1,3.2-0.2c0.8-0.1,1.6,0.1,2.4-0.1c0.9-0.2,1.7,0,2.5-0.1
		c0.9-0.2,1.8,0.1,2.7,0.2c0.8,0.1,1.6,0,2.5,0c-1.2-0.1-2.3-0.2-3.5-0.3c-1.3-0.1-2.6-0.1-3.9-0.2c-0.3,0-0.7-0.2-1,0.1
		c0,0-0.2,0.1-0.3-0.1c0-0.1,0-0.2,0-0.2c0.1-0.2,0.2,0,0.3,0c0.8-0.1,1.5,0,2.3,0c0.9,0.1,1.9,0.1,2.8,0.1c1.8,0,3.5,0.3,5.3,0.1
		c0.5,0,1.1,0,1.6,0.1c0.6,0.1,1.2,0.1,1.8,0l-1.2-0.2c1.1-0.1,2.2,0.1,3.2-0.2h-2.3c0.9,0,1.8-0.2,2.7-0.3
		c-0.7-0.1-1.4,0.1-2.1-0.1c0.7,0.1,1.2-0.4,1.7-0.6c0.6-0.3,1.2-0.5,1.7-0.8c-0.8-0.1-1.6,0-2.4,0.1c-1.5,0.1-3-0.1-4.5-0.2
		c-1.1-0.1-2.3,0-3.4,0c-2.7-0.1-5.4-0.5-8.1-0.3c-2.3,0.1-4.6,0.3-6.8,0.5c-0.3,0-0.5,0.2-0.5-0.4c0-1.5-0.1-2.9-0.3-4.4
		c-0.1-0.7-0.2-1.4-0.4-2.1c-0.4-1.2-0.6-2.4-0.6-3.7c0-0.3-0.1-0.7-0.1-1.1c0,0,0-0.1,0-0.1c-0.7-0.4-0.2-1.1-0.4-1.7
		c-0.2-0.8,0-1.7-0.1-2.5c-0.2,0,0,0.4-0.2,0.3c-0.2,0-0.1-0.2-0.2-0.3c-0.3-0.3,0.1-0.2,0.1-0.3c0.2-0.3,0-0.7,0.1-1
		c-0.3,0.2-0.1,0.5-0.2,0.8c-0.1-0.6,0-0.8,0.1-1.7c0-0.3-0.1-0.8-0.1-1.2c0.1-0.4,0.1-0.8,0-1.2c-0.1-0.5-0.1-1,0.2-1.3
		c0.2-0.2,0.1-0.5,0.1-0.7c0-0.8,0.4-1.5,0-2.3c-0.1-0.2-0.1-0.6,0.1-0.9c0.1-0.2,0.3-0.6-0.1-1c-0.2-0.1,0.1-0.5,0-0.8
		c-0.1-0.6-0.3-1.2-0.1-1.9c0-0.2,0-0.5-0.2-0.8c-0.3-0.4-0.2-1-0.1-1.5c0.1-1.8-0.2-3.5-0.4-5.3c-0.1-0.7-0.1-1.5-0.1-2.2
		c0-0.6,0-1.2-0.2-1.8c-0.1-0.2-0.3-0.6,0.1-0.9c-0.2-0.2-0.2-0.4-0.2-0.7c0.1-1.1,0.1-2.2-0.1-3.3c0-0.1-0.1-0.2-0.2-0.3
		c0.9,0.1,1.8,0.1,2.7,0.2c0.3,0,0.5,0,0.8-0.1c0,0,0-0.1,0.1-0.1c0.8,0.4,1.6,0,2.4,0.1c1.3,0.1,2.7,0.1,4,0c1.2-0.1,2.3,0,3.5,0
		c1.7,0,3.3-0.3,5-0.4c1.3,0,2.6-0.1,3.9-0.2c1.8-0.2,3.5-0.1,5.2,0c0.3,0,0.6,0,0.8-0.1c0.5-0.1,0.5,0.4,0.7,0.6
		c-0.4,0.4,0,0.8,0,1.2c0.2,1.2,0.1,2.5,0.1,3.7c0,1.1,0.1,2.2,0.1,3.3c0.1,1.7,0,3.3-0.1,5c0,1.2-0.1,2.4,0,3.6
		c0,0.9,0,1.8,0.1,2.7c0,0.8-0.1,1.6,0,2.3c0.2,1.9-0.1,3.8,0.1,5.6c0.1,1.4,0,2.8,0.1,4.3c0.1,1.6,0.2,3.2,0.3,4.8
		c0.1,1.1,0.1,2.1,0.1,3.2c0.1,1.6,0.3,3.2,0.4,4.8c0,0.8-0.1,1.7,0,2.6c0,0.2-0.1,0.4,0.1,0.5c0.1-0.4,0.6,0.1,0.7-0.4
		c0-0.1,0.1-0.1,0.1-0.2l0.1,0.4c0.2-0.4,0.2-0.8,0.2-1.2c0.3,0.3,0,0.7,0.1,1c0.2,0,0-0.3,0.1-0.3c0.1,0,0.3,0,0.2,0.2
		c0,0.2,0.2,0.2,0.3,0c0.1-0.3,0.3-0.3,0.4,0c0,0,0.1,0,0.1,0c0.3-0.1,0.3-0.1,0.4,0.2c0-0.6,0.7-0.3,0.7-0.8c0.1,0.1,0.2,0,0.2-0.1
		c-0.5-0.7,0-1.4,0.1-2.1c0.1-1,0.1-1.9-0.2-2.9c0-0.2-0.3-0.6,0-0.8c-0.3-0.5,0.2-0.9,0.1-1.3c-0.1-0.4,0-0.8-0.1-1.2
		c-0.1-0.7,0.1-1.4-0.1-2.1c-0.1-0.3-0.6-0.7,0.2-0.9c0,0,0-0.5-0.1-0.7c-0.1-0.3-0.2-0.7-0.2-1c0-0.4-0.4-0.7-0.5-1.1
		c-0.1-0.3,0-0.5,0.2-0.6c0.2-0.2,0.2-0.6,0-0.6c-0.3,0-0.2-0.2-0.2-0.3c-0.1-0.4,0.2-0.9-0.2-1.3c-0.1-0.1,0.2-0.1,0.2-0.3
		c-0.1-0.4,0.1-0.9-0.3-1.2c-0.4-0.3,0-0.6,0-0.9c0.1-0.6,0.3-1.2-0.2-1.7c-0.1-0.1-0.1-0.3,0-0.3c0.5-0.3,0.2-0.8,0.3-1.3
		c-0.2,0.1,0,0.4-0.3,0.4c0,0-0.1,0-0.1,0c0-0.3,0-0.6,0.1-0.9c0-0.1,0.2-0.2,0.2-0.3c0-0.3-0.1-0.6,0-0.8c0.1-0.3-0.1-0.6-0.2-0.8
		c-0.2-0.4-0.5-0.6,0-0.9c0,0,0,0,0,0c-0.4-0.1,0-0.5-0.2-0.7c-0.3-0.4,0.1-0.8,0.2-1.3c0,0,0.2-0.1,0.1-0.2
		c-0.4-0.4-0.2-0.9-0.2-1.4c0-0.2-0.1-0.4,0.1-0.6c0.1,0,0.1-0.2,0-0.3c-0.5-1.1-0.1-2.3-0.1-3.5c0-1,0.3-2-0.3-2.9
		c0-0.1-0.3-0.7,0.2-0.9c0.1-0.1,0.1-0.1,0.1-0.2c0-0.7,0-1.3-0.2-2c-0.2-0.5-0.3-1.1-0.1-1.7c0.2-0.7,0-1.4-0.1-2.1
		c0-0.3-0.1-0.6,0.1-0.8c0.2-0.2,0.1-0.5,0.1-0.8c0-0.5-0.1-1-0.1-1.6c0-0.4-0.5-0.5-0.7-0.8c-0.1-0.1-0.2-0.2-0.3-0.4
		c-0.1-0.3-0.1-0.4-0.5-0.2c-0.1,0-0.1,0-0.1,0c0.2-0.3-0.4-0.3-0.2-0.6c0.1-0.1-0.1-0.1-0.2-0.1c-1.1-0.1-2.1-0.4-3.2-0.2
		c-1.4,0.2-2.8,0-4.3,0.1c-2,0.1-4.1,0.2-6.1,0.4c-1.4,0.1-2.8,0.2-4.1,0.3c-1.8,0.1-3.5,0-5.3,0.1c-1.6,0.1-3.2,0.1-4.8,0.1
		c-1,0-2-0.3-2.9,0c-0.1,0-0.2,0-0.2-0.1c0-0.3-0.3-0.6,0-1c0.1-0.1,0.1-0.3,0-0.3c-0.3-0.6-0.3-1.3-0.4-1.9c0-0.2-0.3-0.5,0-0.8
		c0.2-0.1,0-0.4-0.1-0.5c-0.3-0.6-0.4-1.3-0.4-1.9c0-0.5-0.3-0.9-0.1-1.3c0.2-0.5,0.1-1,0-1.5c-0.2-0.7,0-1.4-0.1-2
		c-0.1-0.8-0.1-1.6-0.1-2.3c0-0.5,0.1-1,0.1-1.5c0-0.3,0.2-0.7-0.3-0.7c0,0,0-0.1,0-0.1c0.3-0.5,0.1-1.1,0-1.5
		c-0.1-0.5,0.3-0.9,0.1-1.3c-0.1-0.2,0.2-0.1,0.3-0.3c0.1-0.4,0-0.7,0-1c0.1-0.9,0.4-1.8,0.3-2.7c0-0.3,0-0.5-0.3-0.8
		c0.7-0.1,0.7-0.8,0.7-1.2c0.1-1.5,0.1-3,0.1-4.5c0-0.1,0.1-0.3,0-0.4c0-0.1,0.4-0.5-0.2-0.3c0-0.1-0.1-0.3-0.1-0.4
		c0.3-0.6,0.2-1.2,0.4-1.9c0.1-0.6,0.1-1.2-0.2-1.7c0.5-0.6-0.2-1.3,0-2c0.1-0.2,0-0.6-0.1-0.9c-0.1-0.2,0-0.4,0.1-0.5
		c0.2-0.1,0.2,0.1,0.2,0.2c0,0,0.1,0,0.2,0c0.1,0,0-0.1,0-0.1c0-0.6,0-1.2-0.1-1.8c-0.1-0.5-0.3-1,0.1-1.5c0.1-0.1,0-0.2-0.2-0.2
		c0,0-0.1,0-0.1-0.1c0-0.2-0.1-0.4,0-0.6c0.2-0.4,0.2-0.4,0-0.7c0,0-0.1,0,0-0.1c0.6-0.7,0.3-1.6,0.2-2.3c-0.1-1.1-0.2-2.3-0.2-3.4
		c0-0.4,0-0.9-0.2-1.4c0.9,0.1,1.8,0.1,2.8,0.2c1.5,0.2,2.9-0.1,4.4-0.1c2,0,4.1,0.4,6.1,0.2c3.2-0.3,6.4-0.3,9.6-0.4
		c1.8-0.1,3.6-0.2,5.3-0.3c2-0.1,4-0.3,6-0.6c0.1,0,0.5-0.2,0.2,0.2c0.2,0,0.4,0.1,0.5,0c0.5-0.5,1.2-0.2,1.8-0.5c0.1,0,0.2,0,0.2,0
		c0.9,0.5,1.8-0.1,2.6,0.1c-0.1-0.2-0.3-0.1-0.5-0.3c0.6,0.2,1.2-0.3,1.7,0.3c0.2,0.2,0.5,0.1,0.8,0c0.6-0.2,1.2-0.2,1.8-0.2
		c-0.2,0.2-0.5,0-0.8,0.2h2.2v-0.1h-1v-0.1h3.2v0.1h-1.5c1,0.1,2,0.3,2.9-0.1c0.6-0.2,1.2-0.2,1.7,0c0.3,0.1,0.6,0.1,0.9,0
		c0.9-0.2,1.8-0.5,2.7-0.3c0.9,0.2,1.7-0.2,2.5-0.3c0.5-0.1,1,0.2,1.6,0.1c0.4-0.1,0.8,0,1.1-0.2c0.2-0.1,0.5-0.2,0.7-0.2
		c1.6,0.1,3.1-0.4,4.6-0.3c0.9,0.1,1.9,0,2.8-0.1c0.8-0.1,1.5,0.2,2.3,0.1c-0.1-0.2-0.3,0-0.5-0.2c0,0,0,0,0-0.1
		c0.9-0.5,1.9,0,2.8-0.4c0.1,0,0.3,0,0.4,0c1.6,0.3,3.2,0.1,4.9,0.1c1,0,2-0.3,3-0.2c0.9,0.1,1.8,0,2.6,0.3c0-0.3-0.2-0.1-0.3-0.3
		c1.3,0.1,2.6,0.3,3.8-0.2c-0.1,0.2-0.2,0.1-0.3,0.3c2.9-0.3,5.7,0.2,8.5,0.1c-0.7-0.1-1.4-0.1-2-0.2c-1.5,0-3-0.2-4.5-0.2
		c-0.9,0-1.7-0.1-2.6-0.2c0.5-0.3,0.9,0.2,1.5-0.1l0.2-0.1c-0.5,0-0.8,0-1.3-0.2c0.8,0,1.5,0.2,2.3,0.1c0.3-0.1,0,0.3,0.2,0.3
		c0-0.3,0.2-0.3,0.5-0.3c1.5,0.1,3,0.2,4.5,0.3c1.8,0.1,3.5,0.2,5.2,0.3c0.5,0,0.9-0.2,1.4-0.1c-0.1,0.2-0.4,0-0.5,0.2
		c0.8-0.1,1.6,0.1,2.4-0.1c0.1,0,0.5,0.2,0.7,0.2c1.1,0,2.2,0.2,3.2-0.1c0.4-0.1,0.7,0.3,1,0.3c1.4,0,2.9,0.1,4.3,0.2
		c0.7,0.1,1.4-0.1,2.1,0.1c0.1,0,0.3-0.1,0.3-0.2c0-0.2-0.2-0.2-0.3-0.2c-0.9,0-1.8-0.2-2.7-0.2c0.4-0.3,0.9,0.1,1.2-0.1
		c-0.2-0.2-0.4,0.1-0.6-0.2c0.5,0.2,1.1-0.2,1.3,0.1c0.4,0.6,0.9,0.2,1.3,0.2l-0.4,0c0.7-0.1,1.4-0.1,2.1,0
		c-0.3,0.3-0.8-0.1-0.9,0.5c1.2,0,2.3,0.4,3.4,0.1c0,0.3-0.3,0.1-0.3,0.3c0.6,0,0.6,0.5,0.6,1c-0.1,0.8-0.3,1.6-0.3,2.4
		c-0.1,2.2-0.6,4.4-0.4,6.6c0.1,1.6,0.3,3.1,0.5,4.7c0.1,1,0,2,0.1,3c0.1,0.8,0.1,1.6,0.2,2.5c0.1,0.5,0,0.9,0,1.4
		c0,2.4,0,4.9,0.1,7.3c0.1,1.6,0,3.2,0.1,4.8c0.2,2.8,0.2,5.7,0.2,8.5c0,0.7,0,1.5-0.1,2.2c0,0.4,0.1,0.7,0.1,1.1
		c-0.1,1.6-0.1,3.3-0.2,4.9c0,0.6,0.1,1.2,0,1.9c0,0.3-0.1,0.4-0.3,0.4c-1,0.2-2,0.2-2.9,0.5c-0.5,0.1-0.8,0.4-1.3,0.4
		c-0.3,0-0.2,0.5-0.6,0.6c-0.4,0.1-0.7,0.3-1.1,0.4c-0.9,0.4-1.8,0.8-2.6,1.5c-0.1,0.1-0.2,0.2-0.2,0.2c-0.9-0.3-1.3,0.4-1.8,0.8
		c-0.7,0.6-1.4,1.4-2,2.1c-0.6,0.7-1.2,1.5-1.6,2.3c0,0.1-0.1,0.3-0.2,0.3c0.1,0.1-0.6,0-0.1,0.3c0.1,0.1-0.2,0.1-0.3,0.1
		c-0.4-0.1-0.4,0.4-0.6,0.6c0,0.1,0.3,0,0.3,0c0,0.4-0.7-0.2-0.3,0.5c-0.8,0.4-0.8,1.3-1.2,1.9c-0.6,0.8-0.9,1.9-1.4,2.8
		c-0.2,0.4-0.3,0.8-0.7,1.2c-0.3,0.3-0.6,1-0.3,1.5c0.1,0.2,0,0.4-0.1,0.5c-0.3,0.4-0.1,1-0.5,1.4c0.4,0.3,0.1,0.6,0,0.8
		c-0.6,1.1-0.4,2.4-0.5,3.5c-0.1,1.5-0.2,3.1,0.2,4.6c0.3,1,0.6,2,1.2,3c0.3,0.5,0.5,1,0.8,1.5c0.5,0.9,1.1,1.9,1.8,2.7
		c0.5,0.5,0.7,1.2,1.5,1.5c0.3,0.1,0.6,0.7,0.9,1.1c0.9,1.2,2.2,1.9,3.5,2.6c0.5,0.3,1,0.6,1.6,1c1.3,0.7,2.7,1.2,4.1,1.6
		c1,0.3,2,0.5,3.1,0.8c0.3,0.1,0.7,0,1,0.1c0.6,0.1,0.7,0.4,0.7,0.9c0,1.3,0,2.6,0,3.9c0.1,3,0.2,5.9,0.3,8.9
		c0.1,1.9,0.1,3.7,0.2,5.6c0.1,2.2,0.3,4.4,0.6,6.6c0.2,2.4,0.1,4.8,0,7.2c-0.1,2.1-0.2,4.1-0.3,6.2c-0.1,2-0.1,3.9-0.2,5.9
		c0,2.2,0.2,4.4,0.2,6.6c0,1,0,2,0.1,3.1c0.2,2,0.2,4,0.3,5.9c0.1,1.3,0,2.5,0.1,3.8c0,0.9-0.1,1.9,0.1,2.8c0.1,0.4,0,0.8,0,1.2
		c0,0.9,0.1,1.7,0.1,2.6c0,0.9,0,1.8,0.1,2.7c0.1,0.7,0.3,1.3,0.6,2C-377.3,487-377.9,487-378.5,486.9z M-379.9,388.4
		c0.1,2.2,0.1,4.5,0.1,6.8c0.1,1.9,0,3.7,0,5.6c0.1,2.1,0.1,4.2,0.3,6.3c0.1,0.9,0,1.8,0.2,2.6c-1.1,0.1-2.1-0.5-3-0.9
		c-1.3-0.5-2.4-1.4-3.6-2.1c-0.6-0.4-1-0.9-1.5-1.4c-0.2-0.2-0.5-0.3-0.7-0.5c-0.6-0.5-0.8-1.2-1.3-1.6c-0.2-0.2-0.4-0.4-0.7-0.5
		c-0.1,0-0.2-0.1-0.3-0.2c-0.2-1.2-1.2-1.9-1.6-3c0,0,0,0,0-0.1c-0.8-0.5-0.5-1.5-0.9-2.2c-0.5-0.9-0.3-2-0.8-2.9
		c-0.2,0.3,0.1,0.6,0.1,0.9c-0.4-0.5-0.4-1.6-0.1-2.1c0.1-0.2,0.1-0.4,0.1-0.7c0.1-1.5,0.5-3,0.8-4.4c0.3-1.2,0.8-2.4,0.8-3.7
		c0,0,0,0,0-0.1c0.6-1.1,0.5-2.5,1.6-3.4c0.1-0.1-0.1-0.2,0-0.3c0.1-0.1,0.2-0.2,0.3-0.3c-0.4,0-0.5-0.2-0.3-0.6
		c0.1-0.2,0.3-0.4,0.4-0.5c0.1-0.1,0.1-0.3,0.2,0c0,0.1,0.1,0.1,0.2,0c0.1-0.1,0.2-0.3,0.1-0.4c-0.1-0.2-0.1,0.1-0.2,0.1
		c-0.3,0-0.1-0.2,0-0.2c0.7-1,1.3-2,2.2-2.8c1.3-1.4,2.8-2.5,4.4-3.6c0.2-0.1,0.4-0.3,0-0.5l-0.1-0.1c1.1-0.4,2-1,3.1-1.4
		c-0.7,0.2-1.4,0.2-2-0.2c1.1,0,1.9-0.9,3-1c-0.1,1.8-0.2,3.6-0.3,5.3c-0.2,2.6-0.1,5.1-0.2,7.7C-379.8,384.1-380,386.3-379.9,388.4
		z M-375.8,405.9c0.1,0,0-0.2,0.1-0.3c0.1-0.2-0.2-0.4-0.1-0.4c0.3-0.1,0.1,0.2,0.2,0.4c0.1-0.2,0.2-0.4,0.2-0.7
		c0-0.1-0.1-0.3-0.1-0.3c-0.8-0.1-0.3-0.6-0.3-1c-0.2-1.2-0.2-2.5-0.2-3.7c0-0.8,0-1.7,0.1-2.5c0-0.2,0-0.3-0.1-0.5
		c-0.3-0.6-0.2-0.6-0.1-1c0.1-0.3,0.2-0.7,0.1-1c-0.1-0.3,0.2-0.7-0.3-1c-0.2-0.1-0.2-1.1,0-1.3c0.5-0.4,0.3-0.8,0.3-1.2
		c-0.1-0.7,0-1.4,0-2.1c0-0.4-0.3-0.7-0.3-1.2c0-0.6-0.1-1.2,0-1.8c0.1-0.6-0.1-1.2-0.1-1.8c0.1-1.2,0.2-2.5,0.3-3.8
		c0-0.7,0.2-1.4,0-2.1c-0.2-0.6,0.2-1.3,0.1-2c0-1,0.1-2,0.2-2.9c0-0.4,0.1-0.8,0.3-1.2c0.1-0.2,0-0.2-0.2-0.5c-0.1-0.1,0-0.3,0-0.5
		c0.3-0.5,0.3-1.2,0.4-1.7c0-0.8,0.1-1.5,0.2-2.3c0.2-0.3,1-0.7,0-1v0.1c0-0.2,0-0.4-0.1-0.5c0-0.2,0-0.5,0.1-0.7
		c0-0.1-0.2-0.5,0.3-0.3c0.2,0.1,0.1-0.2,0.1-0.4c0-0.2,0.1-0.4,0.4-0.3c1.8,0.9,3.5,2,5.1,3.2c1.6,1.3,2.9,2.8,4,4.4
		c1,1.5,1.8,3.2,2.3,4.9c0.5,1.5,0.9,2.9,1.2,4.4c0.3,1.1,0.5,2.2,0.6,3.3c0.4,2.2,0.5,4.5,0.4,6.8c-0.1,1.6-0.2,3.2-0.5,4.8
		c-0.4,1.8-0.9,3.4-1.7,5c-0.6,1.1-1.2,2.3-2.1,3.2c-0.9,0.9-2,1.7-3.1,2.4c-1.1,0.7-2.2,1.2-3.4,1.7c-1.1,0.5-2.3,0.8-3.5,1
		c-0.3,0.1-0.6-0.1-0.5-0.4c0.2-0.6,0-1.3,0.3-1.9c0.2-0.5-0.2-0.9-0.5-1.2C-375.9,406-376.1,406-375.8,405.9z M-239.2,440
		c-0.1,1.5-0.2,3.1-0.1,4.6c0,2.2,0,4.4-0.1,6.5c0,1.8-0.1,3.6-0.1,5.4c0,1.1,0,2.3,0,3.4c0,0.9,0,1.7,0,2.6c0.1,1.7,0,3.4-0.1,5.1
		c-0.2,2.2-0.2,4.4-0.5,6.6c-0.4,3-0.5,6.1-0.6,9.1c0,1.3,0.2,2.6,0.2,3.9c0,0.6,0,1.3-0.1,1.9c0,0.2,0.1,0.2,0.1,0.3
		c0.1,0.5-0.1,0.8-0.6,0.8c-1.7-0.1-3.5-0.3-5.2-0.5c-0.8-0.1-1.6,0.1-2.4-0.1c-1.3-0.2-2.6,0-3.9-0.2c-1.4-0.2-2.8-0.2-4.1-0.3
		c-1.6-0.1-3.3-0.1-4.9-0.2c-1.3-0.1-2.6,0-3.9-0.1c-2-0.1-4-0.2-6-0.4c-2.5-0.2-5-0.4-7.5-0.6c-1.8-0.2-3.6-0.4-5.5-0.5
		c-1.5-0.1-3-0.2-4.4-0.2c-1.8-0.1-3.6-0.2-5.4-0.3c-1.4-0.1-2.7-0.2-4-0.3c-1.8-0.2-3.6-0.4-5.4-0.7c-0.8-0.1-1.7-0.2-2.6-0.3
		c-2.6-0.3-5.2-0.4-7.9-0.4c-2.3,0.1-4.5,0.1-6.8,0.2c-1.9,0.1-3.9,0.3-5.8,0.5c-1.7,0.1-3.5,0.3-5.2,0.4c-2.3,0.1-4.5,0.2-6.8,0.4
		c-1.4,0.1-2.8,0.1-4.2,0.1c-2.2,0-4.4,0.2-6.7,0.2c-0.8,0-1.6,0-2.3,0.1c-4,0.3-8,0.4-12.1,0.2c-2.9-0.1-5.8-0.2-8.7-0.3
		c-0.6,0-1.3,0-2,0c-0.2,0-0.5-0.1-0.2-0.4c0.2-0.1,0.1-0.7,0.5-0.4c0.1-0.2,0-0.4,0-0.6c0-0.3,0.1-0.5,0.4-0.1l-0.5-1.3
		c0.4,0,0.2,0.6,0.7,0.4c-0.2-0.4-0.2-0.9-0.3-1.1c-0.3-0.7,0.3-1.2,0-1.8c-0.1-0.2-0.1-0.4,0.2-0.4c0,0,0.1-0.1,0.1-0.1
		c0.1-0.4-0.2-0.5-0.3-0.8c-0.1-0.1,0.6-0.4,0-0.6c0,0-0.1,0-0.1-0.1c0.1-0.6-0.4-1.3-0.1-1.9c0.3-0.7,0.2-1.5,0-2.1
		c-0.1-0.6-0.2-1.2-0.3-1.9c-0.1-0.8,0-1.6-0.1-2.4c0-0.2,0-0.4,0-0.5c0.2-0.5,0-0.9-0.2-1.3c-0.1-0.2-0.2-0.4,0-0.5l0.1,0.3
		c0-0.3,0.2-0.7,0-1c-0.1-0.1,0-0.1,0-0.2c0.3-0.2,0.2-0.4,0-0.6c-0.2-0.3-0.1-0.6-0.1-0.9c0-1-0.3-2-0.2-3c0-0.1,0-0.2-0.1-0.2
		c-0.5,0.1-0.1-0.2-0.1-0.3c0.5-0.5,0-0.4-0.2-0.4c0,0,0-0.1,0-0.1c0.8-0.5,0.8-0.5,0.3-1.4c-0.1-0.2,0-0.5-0.2-0.7c0,0,0-0.2,0-0.3
		c0.1-0.1,0.1,0,0.2,0.1c0.1,0.2,0.3,0,0.2-0.1c-0.3-0.5,0.3-1-0.1-1.5c0,0,0-0.3-0.1-0.3c-0.2,0,0,0.3-0.2,0.3
		c-0.2-0.5,0.3-0.7,0.2-1.2c0-0.1,0.1-0.1,0-0.2c-0.1,0-0.1,0-0.2,0.1c-0.1,0.2-0.2,0-0.2-0.1c-0.1-0.3,0.2-0.6,0.2-0.9
		c0.2,0,0,0.2,0.2,0.3c0-1.7,0-3.3,0.2-5c0.1-1,0-2.1,0.1-3.1c0-0.3,0-0.5-0.4-0.4c0.6-0.3,0.7-0.6,0.6-1.4c-0.1-1-0.1-2.1,0.2-3.1
		c0.1-0.5,0.2-1.1,0.1-1.6c-0.1-0.6,0-1.2,0.3-1.7c0.3-0.6,0.3-1.3,0-1.9c-0.2-0.3,0-0.8,0-1.1c0.1-0.5-0.1-0.9-0.1-1.3
		c0-0.4,0.1-0.7,0.1-1.1c0.1-0.7,0.1-1.4-0.2-2c-0.1-0.1-0.1-0.2-0.1-0.3c0.2-0.8,0-1.7,0-2.5c0.1-1.1-0.2-2.2-0.1-3.3
		c0-0.3-0.1-0.7,0.3-0.9c-0.1-0.2,0.3-0.6-0.2-0.6c-0.1,0-0.2,0-0.2-0.2c0.2-0.8-0.1-1.5-0.1-2.3c0-0.5-0.1-1,0-1.4
		c0.2-0.9-0.1-1.8,0-2.6c0-0.2,0-0.5-0.1-0.7c-0.1-0.2-0.2-0.4,0.2-0.5c0.2,0,0.1-0.1,0-0.1c-0.3-0.2,0.1-0.4,0-0.6
		c0.2-0.1,0.1,0.2,0.3,0.2c0-0.4,0.1-0.8-0.3-1c-0.1-0.1-0.2-0.4-0.1-0.5c0.1-0.1,0.3-0.1,0.2,0.2c0,0,0.1,0,0.1,0
		c0.1-0.1,0.1-0.2,0-0.3c-0.5-0.2-0.1-0.5-0.2-0.8c-0.2,0,0,0.2-0.2,0.3c-0.2-0.4,0-0.8,0-1.2c-0.1-0.7,0-1.4-0.1-2
		c-0.1-0.3,0.4-0.5,0-0.8c-0.1-0.1,0.1-0.1,0.3-0.2c0.5-0.1,1.1,0,1.6,0.1c1.3,0.1,2.5-0.3,3.7-0.5c0.6-0.1,1.2-0.2,1.7-0.4
		c0.5-0.2,0.9-0.4,1.3-0.7c0.3-0.2,0.5,0.1,0.8,0c0.5-0.2,0.8-0.7,1.3-1c0.5-0.3,0.9-0.7,1.4-0.9c0.4-0.1,0.6-0.5,0.9-0.7
		c0.6-0.5,1.4-0.9,1.8-1.5c0.4-0.7,1.1-1.3,1.4-2.1c0.1-0.4,0.1-0.8,0.1-1.2c-0.2,0.4-0.5,0.8-0.7,1.2c-0.1,0.1-0.2,0.2-0.3,0.1
		c-0.2-0.1,0-0.2,0-0.3c0.5-0.6,0.6-1.3,1.1-1.9c0.1-0.1-0.2-0.3,0.1-0.4c0,0,0.1,0,0.1,0c0.2,0.2,0,0.4-0.1,0.6
		c0,0.1-0.2,0.3,0,0.5c0.2-0.5,0.6-0.9,0.8-1.3c0.1-0.2,0.3-0.5,0.4-0.8c0-0.1,0.1-0.3-0.1-0.4c-0.1-0.1-0.2,0-0.3,0.1
		c0,0.1-0.2,0.1-0.3,0.1c-0.1,0-0.1-0.2-0.1-0.3c0.6-1,0.4-2.2,0.9-3.1c0.3-0.6-0.1-1.1,0.1-1.7c0.1-0.1,0-0.3,0.1-0.4
		c0.1,0,0.2,0.1,0.3,0.3c0.1-0.6-0.1-1.2,0.1-1.7c-0.6-0.1,0-0.7-0.3-0.9c0.5-0.2,0.1-0.7,0.4-0.9c0.2-0.2,0.1-0.4,0.2-0.7
		c0.1-1.7-0.2-3.4-0.4-5c-0.2-1.4-0.6-2.8-0.7-4.2c-0.1-0.7-0.1-1.3-0.2-2c-0.2-1.3-0.5-2.5-1-3.6c-0.3-0.7-0.3-1.5-0.9-2
		c0.2-0.5-0.3-0.7-0.5-0.9c-0.2-0.2,0.1-0.7-0.4-0.7c0-0.1,0.3,0,0.2-0.2c-0.1-0.1-0.2-0.1-0.3-0.1c0,0-0.1,0-0.1,0
		c0.4-0.3-0.1-0.3-0.1-0.4c0-0.4-0.3-0.2-0.5-0.3c-0.2-0.2,0.4-0.1,0.1-0.2c-0.3-0.2-0.5-0.6-0.8-0.8c-0.3-0.2-0.4-0.5-0.6-0.8
		c0-0.1,0.1-0.5-0.2-0.2c0,0-0.1,0.1-0.1-0.1c-0.2-0.6-0.4-0.8-0.9-1.1c-0.2-0.1-0.2-0.1-0.4-0.5l0,0c-0.4,0.2-0.5-0.2-0.6-0.4
		c-0.6-0.6-1.3-0.9-1.9-1.4c-0.6-0.5-1.3-0.8-2-1.1c-1.2-0.5-2.5-0.9-3.8-1.2c-0.5-0.1-1-0.2-1.5,0c-0.3,0.2-0.5-0.1-0.5-0.6
		c0.1,0,0.1,0,0.1,0.1c0,0.1,0,0.1,0,0.2c0.2-0.3,0.2-0.5,0-0.9c0-0.1-0.1-0.3,0.2-0.2c0,0,0.2,0,0.1-0.1c-0.5-0.4,0.2-0.9,0-1.3
		c0,0,0.1,0,0.1-0.1c-0.2-0.8,0.3-1.5,0.1-2.3c-0.1-0.4,0-1.1,0.1-1.6c0.1-0.6,0.2-1.3,0.1-1.9c0-0.6,0.2-1.1,0.1-1.7
		c-0.1-0.6,0-1.3-0.1-1.9c0-0.2-0.1-0.5,0.2-0.6c0,0,0.1-0.2,0-0.3c-0.5-0.8-0.2-1.6-0.3-2.4c-0.1-0.7,0-1.5,0-2.2
		c0-0.5,0.4-0.9,0.1-1.3c-0.3-0.5-0.2-0.9-0.2-1.4c0-0.3,0.1-0.6,0.2-0.9c0,0.4,0,0.8,0.1,1.2c0.1,1.2,0.1,2.4,0.2,3.6
		c0.1,1.7,0.2,3.3,0.2,5c0,0.4,0.1,0.4,0.4,0.3l0,0c0.1-0.2-0.2-0.2-0.2-0.2c0-0.8,0-1.6,0-2.4c0.1-0.5,0.3-1.1-0.4-1.6
		c0.6,0.1,0.6-0.1,0.4-0.5c-0.2-0.2-0.2-0.4-0.2-0.7c0.1-0.4,0-0.9,0-1.3c0-0.3-0.2-0.5,0-0.8c0.4-0.6,0.1-1.3,0.2-2.1
		c-0.3,0.3,0,0.6-0.4,0.9c0.3-0.9-0.2-1.8,0.3-2.6c0.2-0.2-0.5-0.4-0.2-0.7c0.3-0.3,0.1-0.5-0.1-0.7c-0.1-0.2-0.4-0.4,0.1-0.5
		c0.2,0,0.1-0.1,0.1-0.2c0-1,0.1-2-0.1-3.1v0.8c-0.2-0.2-0.1-0.4-0.2-0.6c-0.1-0.3,0.1-0.6,0.1-1c0-0.7-0.3-1.3-0.2-2
		c0-0.3,0-0.7-0.2-1c-0.1-0.1-0.1-0.2-0.2-0.1c0,0-0.1,0.1-0.1,0.1c0.2,0.7,0.1,1.5,0.2,2.2c0,1,0.1,2,0.1,3.1c0,0.1,0,0.2,0,0.3
		c0-0.1-0.1-0.2-0.1-0.2c-0.4-0.1,0-0.3-0.1-0.4c-0.1-0.9,0.2-1.7-0.2-2.6c-0.1-0.2,0.1-0.2,0.2-0.3c0.1-0.3,0.1-0.7-0.1-1
		c-0.4-0.7-0.1-1.4-0.3-2c-0.2-1.1-0.3-2.2-0.4-3.3c0-0.3,0-0.5,0-0.8c0-0.2,0-0.3,0-0.5c-0.3-0.7-0.6-1.3-0.6-2.1
		c0-0.8,0-1.6,0-2.3c0,0,0,0-0.1-0.1c-0.3,0.4,0,0.8-0.2,1.4c0-0.9-0.2-1.7,0-2.4c0.1-0.4-0.2-0.9,0.1-1.2c0.2-0.3,0.4-0.8,0.2-1
		c-0.4-0.5,0-0.9-0.1-1.3c-0.4-0.8,0.1-1.7-0.2-2.5c0-0.1,0-0.1,0-0.1c0.3-0.4,0.1-0.6-0.3-0.8h1.1c-0.3-0.2-0.5,0-0.9-0.3h1.6
		c-0.3-0.1-0.6,0-1-0.2c0.5-0.3,0.9-0.1,1.3-0.1c0,0,0,0.1,0.1,0.1c0.2,0.2-0.6,0.1-0.1,0.2c0.3,0,0.8,0.2,1.1-0.2
		c0.2-0.3,0.6-0.1,1,0c0.1,0,0.2,0.2,0.3,0.2c1.1,0,2.2,0,3.3,0c0.1-0.3-0.1-0.2-0.2-0.2c-0.1-0.1-0.1-0.2-0.1-0.3
		c0.2-0.1,0.1,0.1,0.2,0.2c0.4,0,0.7,0.1,1.1,0.1c0.3,0,0.5-0.1,0.8-0.1c1.1,0,2.3,0.1,3.4,0.1c0.5,0,1,0.1,1.6,0.1
		c-0.4,0.5-0.8,0.1-1.2,0.2c0.8,0.4,1.7,0.1,2.6,0.2c-0.2-0.2-0.5,0-0.7-0.2c0.4-0.1,0.6-0.3,1.1-0.1c0.2,0.1,0.5-0.1,0.8-0.1
		c0.7,0,1.4,0.2,2.1,0.1c1.1-0.1,2.2-0.1,3.3-0.1c0.5,0,1.1,0,1.6,0c0.3,0,0.3,0.4,0.6,0.2l0,0c0.8-0.3,1.7-0.2,2.6-0.2
		c0.7,0,1.4,0,2.1,0c0.6,0,1.2,0.2,1.7,0.1c0.6-0.1,1.2,0.2,1.7-0.1c0.1-0.1,0.2,0,0.3,0.1c0.9,0.2,1.8-0.1,2.7,0
		c0.6,0.1,1.4,0,2-0.1c1.2-0.1,2.3-0.1,3.5-0.1c1.8,0,3.6,0,5.4,0c1.8,0,3.5,0,5.3-0.1c0.8,0,1.7-0.1,2.6,0c0.9,0.1,1.8,0,2.8-0.1
		c0.6,0,1.2-0.1,1.8-0.1c0,0.4-0.2,0.5-0.5,0.5c-0.8-0.1-1.6-0.1-2.4-0.1c-0.2,0-0.2,0-0.2,0.2c1.2,0.2,2.5,0,3.7,0.2
		c0.2,0,0.5,0,0.7-0.1c0.7-0.3,1.3,0,1.9,0c0.4,0,0.8,0,1-0.4c0.1-0.2,0.3-0.3,0.5-0.3c1.2,0,2.5-0.1,3.7-0.1
		c-0.4,0.1-0.8,0.5-1.4,0.3c-0.4-0.2-0.9-0.1-1.4,0.3c1,0.1,1.9-0.1,2.8-0.1c1-0.1,2,0,3-0.1c0.8,0,1.5-0.1,2.3-0.1
		c0.3,0,0.4-0.3,0.7-0.2l0.3-0.1l0.1,0.1c0-0.1,0.1-0.1,0.2-0.1c1.4,0,2.9,0,4.3,0.1c0.4,0,0.8,0.1,1.3,0c2.2-0.1,4.4,0.1,6.5,0.2
		l0,0.3c1.5,0,3,0.2,4.5,0.2l-3.1-0.4c0.1,0,0.2,0,0.3,0c0.9,0,1.8,0,2.7,0.2c-0.1-0.2-0.5,0-0.5-0.2c1-0.2,2,0,3.2,0.2
		c-0.8,0.1-1.4,0.1-2,0c1.5,0.2,3.1,0.5,4.6,0c-0.2,0.1-0.3,0.3-0.6,0.4c0.9,0.1,1.9,0.4,2.8,0.1c0.3-0.1,0.4,0.2,0.6,0.2
		c1.3,0.2,2.6,0,4,0.1c0.6,0,1.2,0,1.8,0.1c0.3,0.1,0.6,0,0.9,0c-0.1,0.1,0,0.3-0.3,0.2c-0.3-0.1-0.5,0-0.9,0.2
		c1.2,0.1,2.3,0,3.4-0.2c-0.6,0-1.2-0.2-1.8,0c-0.3,0.1-0.3-0.1-0.3-0.3c0.1,0,0.2,0,0.2,0v0c1.5-0.1,3-0.1,4.5-0.2
		c0.9,0,1.7-0.1,2.6-0.3c0.4-0.1,0.9,0,1.4,0c-0.6-0.5-1.4-0.3-1.8,0c-0.5,0.3-0.3-0.3-0.4-0.2c0.4,0,0.9-0.1,1.4-0.1
		c0.4,0,0.8-0.2,1.1,0.3c0,0,0,0,0,0c0,0,0,0,0,0c0,0,0,0,0,0c0,0.2,0.2,0.2,0.3,0.1c0-0.1,0-0.1,0-0.1c0.6-0.1,1.1-0.3,1.6-0.4
		c0.4,0,0.8,0,1.2,0c-0.2,0.1-0.5,0-0.8,0.3c1,0.1,1.9,0.2,2.8,0.2c1.1,0,2.2,0,3.3-0.1c1.3-0.1,2.5-0.2,3.8-0.1
		c0.7,0.1,1.4-0.2,2.1-0.2c0.5,0.1,0.9,0.1,1.4,0.2c0.7,0.1,1.5,0.1,2.3,0c0.7-0.1,1.4,0.2,2.2,0.3c0.2,0,0.3,0.4,0.2,0.6
		c-0.3,0.5,0,1.2-0.5,1.6c0.4,0.1-0.2,0.5,0.2,0.7c0.1,0,0,0.1-0.1,0.1c-0.7,0.5-0.3,1.2-0.5,1.9c-0.1,0.3,0.3,0.6-0.1,0.8
		c0.1,0.1-0.2,0.3,0.1,0.5c0.1,0,0.1,0.2,0.1,0.3c-0.2,0.8,0,1.6,0,2.3c0,1.3,0.1,2.7,0.2,4c0.1,0.9,0.3,1.9,0.5,2.8
		c0.4,1.7,0.8,3.3,0.8,5c0,2.7,0.4,5.4,0.3,8.1c0,1.6,0.2,3.2,0.4,4.8c0.2,2,0.3,3.9,0.2,5.9c-0.1,2.4-0.2,4.7-0.5,7.1
		c-0.2,1.5-0.3,2.9-0.5,4.4c-0.2,1.2-0.3,2.4-0.3,3.6c0,1.3-0.2,2.5-0.2,3.8c0,1.3-0.1,2.7-0.2,4c-0.1,1.8-0.1,3.6-0.3,5.3
		c-0.1,1.1-0.1,2.2-0.1,3.4c0,1-0.1,2-0.1,3c-0.1,1-0.1,2.1-0.2,3.1c-0.1,0.7,0.2,1.3,0.1,2c-0.2,2.5,0.1,5,0.2,7.5
		c0,1.4,0.1,2.8,0.2,4.1c0.1,1.5,0.3,3,0.3,4.5c0,1-0.2,2.1-0.2,3.1c0,1.4,0,2.9,0,4.3c0,0,0,0-0.1,0c-0.2-0.1-0.5,0.2-0.7,0
		c-0.4-0.5-1-0.4-1.5-0.4c-2-0.1-4-0.2-6-0.3c-1.6-0.1-3.3,0-4.9-0.1c-2.1-0.1-4.2,0-6.3-0.3c-1.9-0.2-3.9-0.2-5.8-0.3
		c-0.9,0-1.8-0.1-2.7-0.4c-0.5-0.1-0.9-0.4-1.5-0.2c-0.2,0.1-0.5-0.1-0.5-0.5c0-1.1,0-2.2,0.1-3.2c0.1-1.3,0.2-2.7,0.3-4
		c0.1-1.1,0-2.1,0.2-3.2c0.1-1.4,0.1-2.8,0.2-4.2c0.1-1.2,0-2.4,0-3.7c0-2,0-4.1,0.1-6.2c0-0.5,0.2-1,0.1-1.5c-0.1-0.7-0.1-1.4,0-2
		c0.1-1.1-0.1-2.2-0.1-3.2c-0.1-1.1-0.2-2.2-0.2-3.4c0-1,0.1-2,0.1-3c0-1.3,0.2-2.6,0.3-3.9c0-0.1,0-0.2,0.1-0.1
		c0.7,0.1,1.5,0.1,2.2,0.2c1.2,0.1,2.4,0.3,3.5,0.3c1.2,0,2.4,0.1,3.5,0c0.7,0,1.5,0.1,2.2,0c0.7,0,1.5-0.1,2.2,0
		c1.8,0.2,3.6,0.1,5.5,0.1c0.5,0,1,0,1.5,0c0.9-0.1,1.8-0.3,2.7-0.3c0.2,0,0.4,0,0.4-0.2c0-0.1-0.1-0.3-0.3-0.3
		c-0.5-0.1-1-0.5-1.4-0.6c-0.9-0.2-1.7-0.8-2.6-0.7c-1.6,0.1-3.1,0-4.7,0c-0.6,0-1.2,0.2-1.9,0.1c-0.8-0.1-1.6-0.1-2.4-0.1
		c-0.1,0-0.3,0-0.2,0.1c0.3,0.4-0.1,0.2-0.2,0.2c-0.1,0-0.2-0.1-0.3-0.1c-1.3,0.3-2.7,0-4.2,0.1c0.4-0.2,0.7,0,0.9-0.3h-0.9
		c-0.2,0-0.3,0.2-0.4,0.2c-0.8,0.1-1.5,0.3-2.3,0.1c-0.6-0.2-1.3-0.1-1.9-0.2c-1-0.3-1.9-0.3-2.9-0.5c-0.6-0.1-1.1,0.2-1.7,0.1
		c-0.7-0.1-1.3-0.2-2,0c-0.3,0.1-0.4,0.2-0.5,0.4c-0.1,1-0.3,2.1-0.4,3.1c-0.1,1.4-0.2,2.8-0.2,4.1c0,0.7-0.2,1.5-0.1,2.2
		c0.1,1.1,0.1,2.3,0.2,3.4c0.2,3-0.2,6.1-0.2,9.1c0,2.8,0,5.5,0,8.3c0,0.4,0.1,0.8,0,1.1c-0.2,1.2,0,2.5,0,3.7c0,0.8,0.2,1.5,0,2.3
		c-0.1,0.4,0,0.9,0,1.4c0.3-0.2,0.2-0.5,0.4-0.7c0.2,0.5-0.1,1,0.1,1.5c0.1-0.2,0-0.4,0.2-0.5c0.1,0,0.2,0,0.3,0
		c0,0.3,0.2,0.5,0.3,0.8c0.1,0.2-0.3,0.2-0.3,0.4c0.5,0.2,0.4-0.2,0.5-0.5c0,0.2,0,0.5,0.1,0.5c0.4,0.3,0.4,0.3,0.3,0.8
		c0,0.2,0.2,0.5,0,0.4c-0.5-0.1-0.5,0.4-0.8,0.6c0.2,0,0.4-0.1,0.4-0.2c0-0.2,0.1-0.2,0.2-0.2c0.2,0,0.1,0.2,0.1,0.2
		c0,0.2,0.2,0.3,0.1,0.5c0,0-0.1,0.3,0.1,0.1c0.2-0.1,0.2,0,0.2,0.1c0,0.1,0.1,0.4-0.2,0.4c-0.2,0-0.3,0-0.1,0.1
		c0.2,0.1,0.1,0.4,0.3,0.5c0.1-0.1-0.2-0.4,0.1-0.5c0.2-0.1,0.3,0.1,0.4,0.2c0.1-0.2,0-0.4,0.3-0.4c0.3,0,0,0.3,0.1,0.3
		c0.3,0.1,0,0.2,0,0.3c-0.1,0.4,0.1,0.6,0.4,0.8c0.1,0,0,0.3,0.2,0.3c0.2-0.1,0-0.3,0.2-0.6l0.2,0.1c0.2,0.7,0.7,1.2,1,1.7
		c0.1,0.1,0.3,0.2,0.3,0.1c0-0.4,0.2-0.1,0.4-0.2c0.5-0.1,0.8,0.2,1.3,0.2c0.8-0.1,1.6,0.2,2.5,0.2c1-0.1,2.1,0.2,3.1,0.2
		c0.9,0,1.7,0,2.6,0.1c1.8,0.1,3.7,0.3,5.5,0.3c2.5-0.1,5,0,7.5,0.1c2,0.1,3.9,0.2,5.9,0.2c0.5,0,0.9-0.1,1.3-0.3
		c0.1,0,0.1-0.1,0.1-0.1c0.1,1.1,0.1,2.1,0.2,3.2c0.1,0.9,0.2,1.9,0.4,2.8c0.2,1.2,0.3,2.5,0.4,3.7c0.1,0.9,0.3,1.9,0.3,2.8
		c0,0.8,0.1,1.7,0.2,2.5c0.2,1.1,0.1,2.1,0.2,3.1C-239.1,436.9-239.1,438.4-239.2,440z M-374,338.6c-0.1-0.2,0.3-0.6-0.2-0.8
		c-0.1,0-0.1-0.1,0-0.1c0.2,0,0.2-0.2,0.2-0.3c0,0.9,0,1.8,0,2.8c0-0.2,0-0.4-0.1-0.6C-374.1,339.2-373.9,338.9-374,338.6z
		 M-241,417c0-0.1-0.1-0.2,0-0.3C-241,416.7-241,416.9-241,417z"/>
	<path class="st0" d="M-301.5,313.1c1.4,0,2.7,0,4.1,0c-0.7-0.3-1.4-0.2-2.1-0.3c-0.7-0.1-1.5,0.3-2.2-0.3l-0.3,0.3
		C-301.8,313.2-301.6,313.1-301.5,313.1z"/>
	<polygon class="st0" points="-301.6,312.5 -301.6,312.5 -301.6,312.5 	"/>
	<path class="st0" d="M-312.5,355.7c0-0.2-0.1-0.3-0.3-0.2c-0.2,0.1-0.2,0.2-0.1,0.5c0.1,0.3,0.1,0.6,0.1,0.9l-0.2,0
		c-0.1-0.8-0.3-1.6-0.7-2.5c0,0.4,0,0.5-0.2,0.7c-0.4-0.4-0.3-1.1-1-1.4c-0.6-0.3-0.9-1.1-1.4-1.6c-0.7-0.8-1.5-1.2-2.3-1.6
		c-0.6-0.3-1.4,0-2-0.5c-0.2-0.1-0.3-0.1-0.5,0.1c0,0-0.1,0.1-0.1,0.1c-0.5-0.1-0.7,0.4-1.1,0.4c-0.1,0-0.2,0.1-0.2,0.2
		c0,0.4,0,0.4-0.2,0.4c-0.3,0-0.5,0.1-0.6,0.3c-1,1.4-1.8,2.9-2.1,4.6c-0.2,1.5-0.3,2.9,0,4.4c0.4,1.8,1.6,3.1,3.2,3.7
		c1.4,0.5,2.7,0.4,4.1,0.2c0.4-0.1,0.8-0.1,1-0.3c0.4-0.3,0.8-0.3,1.2-0.4c1.4-0.4,2.6-0.9,3.2-2.4
		C-311.6,359.3-311.9,357.5-312.5,355.7z M-317.7,362.1c-0.5,0.1-0.9,0.4-1.4,0.5c-0.6,0.1-1.5-0.3-1.7-1c-0.2-0.8-0.7-1.5-0.9-2.3
		c-0.2-0.7-0.2-1.4,0-2.1c0.1-0.2,0.1-0.2,0.3-0.3c0.1,0,0.1-0.2,0.1-0.2c-0.4-0.5,0-0.8,0.2-1.1c0.1-0.2,0.1-0.5,0.2-0.7
		c0.1-0.3,0.2-0.6,0.5-0.8c0.2-0.1,0.3-0.5,0.2-0.8c-0.1-0.2-0.6-0.4,0-0.6c-0.2-0.1-0.1-0.4-0.3-0.5c-0.1-0.1-0.2-0.1-0.5-0.2
		c0.6-0.2,1.1-0.1,1.5-0.4c0,0,0.2,0.1,0.2,0.1c1,0.9,1.8,2,2.4,3.3c0.6,1.3,1.1,2.7,1,4.2C-315.6,360.5-316.5,361.7-317.7,362.1z"
		/>
	<path class="st0" d="M-320.2,420.8L-320.2,420.8C-320.2,420.8-320.2,420.8-320.2,420.8L-320.2,420.8z"/>
	<path class="st0" d="M-315.7,422.2c-0.1-0.3-0.2-0.6-0.2-0.8c0.1-0.5-0.2-1.2-0.6-1.2c-0.6,0.1-1.2-0.2-1.8-0.1
		c-1,0.1-1,0.1-0.8,1.2c0,0.1,0.1,0.2,0,0.4c0,0.2,0.1,0.5-0.2,0.6c-0.2,0-0.2-0.2-0.2-0.4c0,0,0-0.1-0.1-0.1
		c-0.6,0-0.5-0.8-0.9-0.9c-0.1,0-0.1-0.1,0-0.2l0.2,0.1c-0.2-0.3-0.5-0.6-0.5-1c0-0.2-0.1-0.4-0.2-0.5c-0.5-0.2-0.5-0.9-1-1
		c0-0.8-0.7-1.1-1.1-1.6c-0.3-0.4-0.4-0.9-0.7-1.2c-0.6-0.7-1.1-1.5-1.9-2c-0.1-0.1-0.3-0.2-0.3-0.4c0-0.3-0.2-0.4-0.4-0.6
		c-0.4-0.4-0.8-0.7-1-1.3c-0.1-0.2-0.2-0.6-0.4-0.7c-0.5-0.3-0.8-0.9-1.1-1.4c-0.7-1.1-1.6-1.9-2.2-3c-0.5-0.9-1.2-1.7-1.8-2.5
		c-1.1-1.4-2-2.9-3.1-4.3c-0.3-0.4-0.4-1.2-1.3-1c-1.2,0.2-2.4,0.6-3.5,1c-0.7,0.3-0.7,0.6-0.2,1.2c0.5,0.6,1,1.2,1.4,1.8
		c0.9,1.2,1.8,2.5,2.7,3.7c1.2,1.6,2.4,3.2,3.7,4.7c0.9,1.2,1.8,2.4,2.7,3.5c0.9,1.1,1.9,2.2,2.8,3.4c1.3,1.6,2.6,3.2,3.8,4.8
		c0.7,0.9,1.4,1.7,2.1,2.5c0.5,0.6,1,1.1,1.6,1.7c-0.7,0-1.3,0.2-1.9,0.4c-0.8,0.2-1.7,0.2-2.5,0.6c-0.4,0.2-0.4,0.5-0.4,0.8
		c0,0.5,0.4,0.3,0.7,0.3c0.8-0.1,1.5-0.1,2.2-0.3c1-0.2,2-0.2,3-0.7c0.1-0.1,0.3-0.3,0.5,0c0.2,0.3,0.5,0.1,0.7,0
		c0.7-0.4,1.4-0.6,2.2-0.8c0.2-0.1,0.2-0.1,0.3-0.3c0-0.4-0.2-0.8-0.2-1.2C-315.5,424.3-315.5,423.2-315.7,422.2z"/>
	<path class="st0" d="M-256,390.8c0-0.1,0-0.3,0-0.2c0.2,0.3,0.2,0,0.2-0.1c-0.2-0.8-0.4-1.6-0.6-2.4c-0.7,0.6,0.2,1.4-0.3,2
		c0.1-0.7-0.3-1.4-0.2-2.1c0-0.3-0.2,0-0.2-0.1c-0.2-0.1-0.1,0.1-0.1,0.1c0,0.1,0.2,0.2,0,0.3c-0.2,0.1-0.2-0.1-0.2-0.3
		c0-0.2-0.1-0.4-0.2-0.6c-0.1,0.2-0.1,0.4-0.3,0.4c-0.1-0.2-0.1-0.4-0.1-0.7c0-0.3-0.2-0.5-0.5-0.4c-0.3,0.1-0.5-0.2-0.7-0.4
		c-0.2-0.3-0.4-0.2-0.4,0c-0.1,0.2-0.1,0.3-0.1,0.5c0.1,0.9,0.2,1.7,0.2,2.6c0.1,1.2,0.1,2.5-0.2,3.7c-0.3,1.1-0.8,2.1-2,2.5
		c-0.9,0.3-1.6,0-1.9-0.8c-0.2-0.6-0.1-1.2-0.2-1.8c0-0.1,0.2-0.3,0.4-0.2c-0.3,0.4-0.3,1.1,0,1.5c-0.1-0.2-0.2-0.4-0.1-0.6
		c0.3-0.9,0.3-1,0.1-1.7c0-0.1,0.1-0.2,0.1-0.3c0.3,0.5,0.1-0.2,0.2-0.1c0.2-0.6,0.3-1.2,0.9-1.6c0.1-0.1,0.1-0.2,0-0.3
		c0,0.1-0.1,0.1-0.1,0.1c0,0-0.1,0.2-0.2,0.1c0.3-1.4,1.9-2,2.5-3.3c-0.2,0.1-0.4,0.2-0.5,0.3c-0.2,0.1-0.3-0.2-0.3-0.2
		c0.1-0.2,0.1-0.4-0.2-0.4c-0.1,0-0.2-0.1-0.2-0.2c0-0.1,0.1-0.1,0.2-0.1c0.3,0,0.5-0.2,0.9,0l-0.1-0.1c-0.2-0.4-0.5-0.3-0.6-0.5
		c-0.5-0.7-1.4-0.5-2-0.9c-0.2-0.1-0.4,0.1-0.7,0c-0.6-0.3-1.1-0.2-1.5,0.2c-0.2,0.2-0.2,0.5-0.3,0.6c-0.5,0.5-1.1,1-1.5,1.6
		c-1,1.4-1.5,2.9-1.6,4.5c-0.1,2.9,1.7,4.9,4.5,5.7c0.9,0.2,1.9,0.3,2.8,0.5c0.8,0.2,1.6,0.4,2.3-0.2c0.5-0.3,0.9-0.7,1.2-1.2
		c0.5-0.7,0.8-1.5,1.1-2.2c0.1-0.3,0-0.7,0.2-1.1c0.2-0.2-0.4-0.7,0.2-0.8c0,0,0-0.1,0-0.1C-256.1,392-255.6,391.3-256,390.8z"/>
	<polygon class="st0" points="-374.2,313.6 -374.2,314.2 -369.7,314.2 -369.7,313.6 -374.2,313.6 	"/>
	<polygon class="st0" points="-373,351.9 -373.1,351.9 -373.1,351.9 	"/>
	<path class="st0" d="M-340.1,392.4c0.1,0,0.1,0,0.2,0c1.4-0.1,2.8,0,4.2-0.4c-0.6-0.6-1.1-1.3-1.8-1.9c-0.4-0.4-1.1-0.8-0.3-1.5
		c0,0,0.1-0.1,0.1-0.2c0.5-1.1,1.6-1.8,1.7-3.4l-1.7,1.9c0.4-1,1.4-1.5,1.4-2.6l-1,0.7c0.2-0.5,0.7-0.7,0.5-1
		c-0.2-0.3-0.4,0.2-0.7,0.2c0.1-0.3,0.1-0.2-0.1-0.3c-0.3-0.3-0.7-0.1-1-0.3c-0.7-0.3-1.2-0.3-1.7,0.3c-0.4,0.5-0.9,1-1.3,1.4
		c-0.2,0.3-0.4,0.2-0.5-0.1c-0.1-0.3-0.4-0.7-0.7-0.6c-1.2,0.2-2.3-0.3-3.4-0.1c-0.4,0.1-0.8,0-1.2,0c-0.3,0-0.5,0.2-0.7,0.4
		c-0.1,0.2,0.1,0.4,0.2,0.5c0.9,1.2,1.9,2.3,3,3.2c0.5,0.5,0.5,0.4,0.1,1c-0.4,0.5-0.9,1-1.2,1.7c-0.3,0.6-0.5,1.1-1.2,1.3
		c-0.3,0.1-0.4,0.4,0,0.7c0.4,0.3,0.9,0.3,1.4,0.2c1.2-0.1,2.4-0.2,3.6-0.2c0.4,0,0.8,0,1.1-0.5C-341.1,392.4-340.7,392-340.1,392.4
		z"/>
	<polygon class="st0" points="-338.1,314.2 -338.1,313.6 -344.9,313.6 -344.9,313.6 -344.8,314.2 	"/>
	<path class="st0" d="M-348.3,313.8c-0.3-0.1-0.5-0.1-0.8-0.1c-0.6,0-1.1,0-1.7,0h0l0,0c-0.4,0.4-0.8,0.1-1.1,0
		c-0.3-0.1-0.6,0.2-0.9,0c-0.2-0.1-0.2,0-0.4,0.3c0,0-0.2,0-0.2,0c-0.4-0.7-1-0.2-1.6-0.3c0.4,0.2,0.7,0,1.1,0.3c-0.3,0-0.5,0-0.7,0
		c0.8,0.1,1.5,0.2,2.2,0.1c0.5-0.1,0.9,0.2,1.3,0c0.5-0.3,1-0.2,1.5-0.1c0.4,0.1,0.7,0.3,1.1,0.2c0.1,0,0.2-0.1,0.2-0.2
		C-348.2,313.9-348.3,313.8-348.3,313.8z"/>
	<path class="st0" d="M-336,385C-336,385-336,385-336,385L-336,385L-336,385z"/>
	<path class="st0" d="M-295.5,364.3c-0.6-0.5-1.2-1-1.8-1.5c-0.3-0.3-0.8-0.6-0.9-0.9c-0.1-0.2,0.5-0.3,0.8-0.6
		c0.1-0.1,0.2-0.2,0.3-0.4c0.4-0.5,0.8-1,1.1-1.5c0.1-0.2,0.5-0.3,0.4-0.4c-0.2-0.3,0-0.5,0.1-0.6c0.3-0.4,0-0.4-0.2-0.4
		c0.1-0.2,0.3-0.2,0.3-0.4c-0.2,0-0.3,0.3-0.5,0.1c-0.2-0.1,0-0.3,0.1-0.4c0.1-0.1-0.1-0.1-0.1-0.2c0-0.3-0.5-0.3-0.5-0.4
		c-0.1-0.4-0.3-0.2-0.4-0.1c-0.5,0.3-1,0.7-1.5,1.1c-0.7,0.5-1.4,1.1-2.1,1.7c-0.2,0.2-0.5,0.3-0.7-0.1c-0.1-0.3-0.5-0.5-0.7-0.6
		c-0.8-0.5-1.7-0.8-2.4-1.5c-0.1-0.1-0.2-0.2-0.3-0.2c-0.6,0-1.2,0-1.8,0c-0.4,0.1-0.9,0.1-1.1,0.7c-0.1,0.5,0.3,0.7,0.5,1
		c1.1,1,2.1,1.9,3.2,2.8c0.2,0.2,0.3,0.4,0,0.6c-0.4,0.2-0.7,0.5-0.9,0.9c-0.6,0.7-1.4,1.1-1.8,1.9c-0.2,0.4,0.1,1.2,0.5,1.2
		c0.4,0,0.8,0.2,1.3,0.2c0.6,0,1.1-0.1,1.7-0.3c0.9-0.2,1.4-0.8,1.8-1.5c0.2-0.4,0.4-0.4,0.8-0.1c0.7,0.7,1.5,1.2,2.2,1.9
		c0.5,0.5,1.2,0.3,1.8,0.3c0.4,0,0.5-0.2,0.6-0.4c0-0.1-0.1-0.1,0-0.2c0.5-0.3,0.5-0.4,0-0.7c0,0,0-0.1,0-0.1
		c0.2-0.2,0.5,0.1,0.6-0.2C-295,364.7-295.3,364.5-295.5,364.3z"/>
	<path class="st0" d="M-299.7,426.2c-0.5-0.1-1-0.3-1.5-0.5c-0.5-0.2-0.7-0.1-1,0.2c-1.4,1.2-2.8,2.4-4.1,3.5
		c-0.4,0.4-0.4,0.3-0.8-0.1c-0.7-0.7-0.9-1.6-1.5-2.4c-0.4-0.4-0.5-1.2-1.1-1.3c-0.3-0.1-0.7-0.2-1-0.3c-0.3-0.1-0.7-0.1-1-0.1
		c-0.3,0-0.5,0.3-0.6,0.6c0,0.1-0.2,0.2,0,0.3c0.4,0.2,0.6,0.7,0.8,1c0.7,1.2,1.5,2.4,2.3,3.6c0.5,0.8,0.6,0.9-0.1,1.5
		c-1.3,1.2-2.5,2.4-3.7,3.7c-0.3,0.4-0.3,0.8,0,1.1c0.4,0.3,0.7,0.3,1.2,0.2c0.4-0.1,0.9-0.3,1.3-0.4c0.6-0.1,1.3-0.2,1.8-0.7
		c0.4-0.5,0.8-0.9,1.2-1.4c0.2-0.3,0.4-0.3,0.5,0c0.4,0.6,0.8,1.3,1.2,1.9c0.7,1,0.9,1.1,1.9,0.8c0.3-0.1,0.5-0.2,0.8-0.2
		c0.3,0,0.2-0.3,0.1-0.4c-0.6-0.5-0.9-1.2-1.2-2c-0.3-0.7-0.8-1.3-1.2-1.9c-0.1-0.1-0.4-0.5-0.1-0.7c0.4-0.3,0.6-0.8,1-1.2
		c0.3-0.2,0.2-0.2,0.2-0.6c0-0.1,0.1-0.1,0.1-0.2c0.7-0.3,1.1-1,1.7-1.4c1.1-0.8,2.1-2,3.6-2.4h-0.1
		C-299,426.5-299.4,426.3-299.7,426.2z"/>
	<path class="st0" d="M-368.2,314c-0.1,0-0.2,0-0.3,0.2h3.4c-0.1,0-0.1,0-0.2-0.1c0.5,0.1,0.8-0.4,1.1-0.5h-4.4
		C-368.4,313.8-368.3,313.9-368.2,314z M-367,313.9c0.3-0.2,0.6-0.2,0.8,0c0.1,0,0.1,0.1,0.2,0.1c-0.2,0-0.3,0-0.5-0.1
		c-0.2-0.1-0.4,0-0.6,0.1C-367.1,314-367.1,314-367,313.9z"/>
	<path class="st0" d="M-295.5,357.5C-295.5,357.6-295.5,357.6-295.5,357.5C-295.5,357.6-295.5,357.6-295.5,357.5L-295.5,357.5z"/>
	<path class="st0" d="M-364,313.6L-364,313.6L-364,313.6C-364.1,313.6-364,313.6-364,313.6z"/>
	<path class="st0" d="M-330.1,314.2c0.4-0.1,0.7,0,1.1,0c1.3,0,2.6,0,3.9,0c0.7,0,1.5-0.1,2.2-0.1c0.9,0,1.8,0,2.7,0
		c0.2,0,0.2-0.1,0.1-0.2l0,0l0,0c-0.1,0-0.2-0.1-0.2-0.1c-0.6,0.4-1.2,0.2-1.8,0.1c-0.5,0-1-0.2-1.4-0.1c-0.8,0.4-1.4-0.1-2.2,0.1
		c-0.3,0.1-0.6,0.1-0.9,0.2c-0.1,0-0.2,0.1-0.4,0.1c0,0,0,0-0.1,0c0.1-0.1,0.3,0,0.3-0.4c-0.5,0.4-0.9,0.1-1.4,0.2
		c-0.2,0-0.5-0.2-0.7-0.1c-0.4,0.4-1,0.1-1.4,0.1c-0.4,0-0.8-0.1-1.1,0C-330.8,313.8-330.5,314.3-330.1,314.2z"/>
	<path class="st0" d="M-418.2,333.1c0.2,0.2-0.2,0.4,0.1,0.6c0.2,0.2,0.2,0.7,0.6,0.8c-0.2,0.6,0.7,0.8,0.4,1.4c0,0.1,0,0.1,0.1,0.2
		c0.6,0.3,0.8,0.8,1,1.3c0.1,0.2,0.2,0.3,0.4,0.4c1,0.2,2.1,0.3,3.1,0.4c0.9,0.1,1.8-0.1,2.6-0.1c1.6,0,3.3,0,4.9-0.2
		c0.7-0.1,1.5,0,2.1-0.3c0.3-0.1,0.6-0.2,0.9-0.2c0.7,0.1,1.3-0.5,2.1-0.4c0.2,0,0.4,0,0.6-0.1c1.1-0.4,2.3-0.6,3.5-0.5
		c0.9,0,1.7,0,2.6,0c-0.9,0.9-1.8,1.6-2.7,2.3c-0.4,0.4-0.4,0.7,0.2,0.9c0.2,0.1,0.5,0.1,0.6,0.5c0,0.3,0.5,0.3,0.7,0.6
		c0.1,0.1,0.3-0.2,0.5-0.3c0.1-0.1,0.2-0.1,0.3-0.2c0.1-0.1,0.3-0.1,0.1-0.2c-0.3-0.3,0.1-0.3,0.2-0.5c0.5,0.2,0.7-0.2,1-0.4
		c0.7-0.5,1.4-1.1,2-1.6c0.4-0.3,0.7-0.8,1.3-1c0,0.3-0.3,0.3-0.4,0.6c0.5-0.1,1.2-0.9,1.2-1.3c0-0.3,0.2-0.7,0.3-0.9
		c0.2-0.3,0.4-1.1,0.2-1.5c-0.2-0.3-0.5-0.6-0.7-0.8c-0.8-0.7-1-1.6-1.4-2.5c-0.2-0.4-0.2-1.1-0.6-1.4c-0.5-0.5-1.1-0.8-1.8-0.9
		c-0.5-0.1-0.9-0.4-1.4-0.4c-0.2,0-0.4-0.3-0.6-0.1c-0.2,0.2,0.1,0.4,0,0.6l-0.1,0.1c-0.2,0-0.3-0.3-0.4-0.2
		c-0.1,0.1-0.4,0.4-0.2,0.5c0.3,0.2,0,0.4,0.1,0.5c-0.3,0.2,0.1,0.5-0.1,0.7c-0.2,0.1-0.2,0.1-0.2,0.3c0.1,0.3,0.1,0.7,0.3,1
		c0.1,0.3-0.1,0.3-0.2,0.3c-0.1,0-0.2-0.1-0.3-0.1c-1.6,0.2-3.1,0-4.7,0.2c-0.8,0.1-1.6,0-2.3,0.1c-0.7,0.1-1.5,0.2-2.1,0.2
		c-1.5,0-3,0.3-4.6,0.2c-0.6,0-1.2,0-1.8,0c-0.6,0-1.1,0.2-1.7,0.1c-0.9,0-1.8,0-2.7,0c-0.5,0-1.1,0.2-1.7-0.2
		c-0.2-0.1-0.6-0.2-0.8,0.1c-0.1,0.2-0.3,0.4-0.2,0.7C-418.1,332.7-417.8,333-418.2,333.1z"/>
	<path class="st0" d="M-472.3,392.3c-0.4,0-0.2-0.6-0.5-0.6c-0.2,0-0.2-0.2-0.2-0.3c-0.7-0.5-0.8-1.5-1.4-2
		c-0.2-0.2-0.5-0.4-0.6-0.7c-0.2-0.3-0.3-0.6,0-0.9c1.1-1.1,2-2.3,2.6-3.7c0.1-0.2,0.1-0.6-0.2-0.6c-0.5,0-1.1,0.1-1.4,0.6
		c-0.6,0.9-1.6,1.5-2.3,2.4c-0.1,0.2-0.3,0.2-0.4,0c-0.3-0.3-0.8-0.5-0.9-1.1c-0.1-0.3-0.4-0.7-0.6-0.8c-0.9-0.2-1.8-0.3-2.6-0.1
		c-0.4,0.1-0.5,0.6-0.2,1c1,0.9,1.8,1.9,2.6,2.9c0.2,0.2,0.2,0.5,0,0.6c-0.9,0.9-1.6,2.1-2.6,3c-0.4,0.4-0.3,0.8-0.2,1
		c0.1,0.3,0.4,0.6,0.9,0.5c0.5-0.1,0.8-0.5,1.2-0.6c0.5-0.1,0.9-0.5,1-0.8c0.3-0.6,0.7-1.2,1-1.7l0.1-0.1c1,1,1.7,2.1,2.7,3
		c0.6,0.5,1.4,0.3,1.9-0.2C-472.2,392.9-472.4,392.6-472.3,392.3z"/>
	<path class="st0" d="M-335.8,314.2c0,0,0.1-0.2,0-0.3c0-0.2-0.1-0.2-0.2-0.2c-0.3-0.1-0.6,0.2-0.9,0.2l0,0l0.9,0.1
		C-336,314.3-335.9,314.3-335.8,314.2z"/>
	<path class="st0" d="M-373,354.3c0.7-0.4,0.2-0.8,0.5-1.1C-373.4,353.4-372.8,353.8-373,354.3z"/>
	<path class="st0" d="M-291.7,312.7c-0.4-0.2-0.7-0.4-1.1,0.4h2.2l0-0.2C-291,312.8-291.4,312.9-291.7,312.7z"/>
	<path class="st0" d="M-433.7,338.1c0.3,0.2,0.7,0.3,1,0.5c0.3,0.2,0.6,0.5,0.9,0.6c0.4,0.2,0.5-0.5,1-0.7c0.1,0,0.1-0.2,0.2-0.2
		c0.3-0.2,0.5-0.7,0.7-0.9c0.7-0.4,1.2-0.8,1.7-1.4c0.5-0.5,0.8-0.2,1,0.1c0.2,0.2,0.5,0.4,0.7,0.7c1.1,1.3,2.6,2,4.1,2.6
		c0.2,0.1,0.4,0.1,0.6-0.1c0.1,0,0.3,0,0.1-0.2c-0.3-0.2-0.1-0.5-0.1-0.7c0-0.3-0.1-0.5-0.4-0.6c-1.5-0.6-2.6-1.7-3.8-2.7
		c-0.6-0.5-0.5-0.5,0.1-1c0.1-0.1,0.1-0.2,0.2-0.2c0.8-0.5,1.5-1.2,2.3-1.6c0.3-0.1,0.2-0.1,0.1-0.4c-0.2-0.4-0.4-0.8-0.6-1.2l0,0
		c0.2-0.7-0.2-0.8-0.6-0.9c-0.4-0.2-1-0.1-1.1,0.3c-0.1,0.2-0.2,0.3-0.3,0.3c-0.8,0.7-1.6,1.3-2.4,1.9c-0.1,0.1-0.2,0.1-0.4,0
		c-0.4-0.3-0.7-0.7-1-1c-0.7-0.8-1.5-1.4-1.9-2.4c-0.2-0.4-0.7-0.6-1.1-0.7c-0.5-0.1-0.5,0.4-0.8,0.5c-0.1,0-0.1,0.4,0,0.6
		c1,1.4,2.1,2.6,3.2,3.8c0.4,0.4,0.3,0.6-0.1,0.9c-1.3,1-2.5,2.1-3.7,3.3C-434.1,337.7-434.1,337.9-433.7,338.1z"/>
	<path class="st0" d="M-443.7,444.4l3.1-2.5c-0.7-0.1-1.1,0.3-1.7,0.4l1.5-1.2c-0.6-0.4-1.2,0.3-1.8,0.1c0.4-0.3,0.8-0.4,1.1-0.8
		c-0.4-0.1-0.6,0.5-1,0.3c0.3-0.1,0.4-0.5,0.7-0.5c0.1,0,0.3-0.1,0.2-0.3c-0.2,0.1-0.2-0.4-0.4-0.2c-0.4,0.4-1,0.1-1.3,0.5
		c0-0.3,0.4-0.2,0.5-0.5c-0.1-0.2-0.2,0.1-0.4,0c0.4-0.1,0.1-0.4,0.2-0.5c0.4-0.4-0.1-0.3-0.2-0.3c-0.1,0-0.3,0.1-0.4,0.2
		c-2.1,1.3-4.1,2.8-6.2,4.2c-0.2,0.1-0.4,0.5-0.7,0.2c-0.2-0.2-0.7-0.2-0.7-0.5c-0.2-0.6-0.6-0.8-1.1-1c-0.1-0.1-0.3-0.1-0.4-0.3
		c-0.4-0.6-1.1-0.8-1.7-1.2c-0.3-0.2-0.9,0.2-0.8,0.4c0.4,0.4,0.3,1,0.5,1.5c0.6,0.9,1.3,1.8,2,2.6c0.3,0.3,0.4,0.4,0,0.7
		c-0.8,0.6-1.6,1.4-2.3,2.2c-0.2,0.3-0.1,0.5,0.1,0.6c0.5,0.2,1.1,0.4,1.6,0.7c0.6,0.3,1.2,0.7,1.8,1c0.2,0.1,0.4,0.2,0.5,0
		c0.5-0.6,1.5-0.3,1.8-1.2c0-0.1,0.2-0.1,0.3,0c0.1,0.1,0.3,0.2,0.4,0.3c0.5,0.5,1.1,0.9,1.9,1c0.4,0.1,0.9,0.1,1.2,0.5
		c0.3,0.3,0.8,0.4,1.2,0.5c0.1,0,0.3,0.1,0.4-0.1c0-0.1,0-0.2-0.1-0.3c-0.2-0.3-0.6-0.5-0.8-0.8c-0.6-0.8-1.2-1.5-2.1-2.1
		c-0.6-0.4-0.5-0.4-0.1-1c0.3-0.4,0.8-0.3,1.1-0.5c0.6-0.5,1.3-1.1,2-1.5C-443.3,444.7-443.5,444.5-443.7,444.4z"/>
	<path class="st0" d="M-389.7,451.6c-0.2,0-0.5-0.2-0.7-0.1c-0.5,0.1-0.5,0.2-0.3,0.6c-0.3-0.1-0.4-0.3-0.4-0.5c0-0.2,0-0.2-0.1-0.2
		c-0.1,0-0.2,0-0.3,0.1c-0.2,0.2,0.1,0.1,0.1,0.2c0,0.1,0.2,0.1,0.1,0.3c-0.5-0.3-1-0.4-1.6-0.5c-0.9-0.2-1.8-0.5-2.7-0.2
		c-1.6,0.5-3.1,1.2-3.8,2.9c-0.4,0.9-1,1.8-1.3,2.8c-0.4,1-0.4,2.2-0.4,3.3c0,0.1,0,0.1,0,0.2c0.4-0.1,0.3,0.1,0.1,0.2
		c-0.3,0.2-0.1,0.3,0,0.5c0.3,0.9,0.8,1.6,1.7,1.9c-0.1,0.2-0.2,0.1-0.3,0.2c1.1,0.9,2.3,1.4,3.8,1.4c1.1,0,2.2,0,3.2,0
		c0.5,0,1,0.1,1.6-0.1c1.1-0.3,2.1-0.8,3.2-1.2c0.4-0.2,0.9-0.4,1-1c-0.4,0.2-0.6,0.7-1.2,0.6c1.5-1,2.2-2.4,3-3.9l0,0
		c-0.1,0.2-0.1,0.4-0.2,0.6c-0.1,0.2,0,0.1,0.1,0.2c0.2,0.2,0.1,0,0.2-0.1c0.4-0.7,0.6-1.5,0.7-2.2c0.3-1.3-0.4-2.5-1.2-3.5
		C-386.5,452.7-388,452-389.7,451.6z M-388.3,459.1c-0.9,2.4-3,3.4-5.3,4c-0.6,0.1-1.1,0.1-1.7,0.1c-0.7,0-1.1-0.4-1.4-1
		c-0.4-0.9-0.8-1.7-0.7-2.5l0,0c0-0.4-0.1-0.8,0-1c0.3-0.5,0-1,0.2-1.4c0.1-0.4,0.6-0.4,0.6-0.8c0-0.1,0.4-0.4-0.1-0.3
		c-0.1,0,0-0.1,0-0.2c0.4-0.7,0.7-1.5,1.2-2.2c0.1-0.2,0.2-0.3,0.2-0.6c0-0.3,0.6-0.8,1-0.7c0.6,0.1,1.2,0.2,1.8,0
		c0.4-0.1,0.7,0.1,1,0.2c1.8,1,3.1,2.3,3.4,4.3C-387.9,457.8-388.1,458.4-388.3,459.1z"/>
	<path class="st0" d="M-400.8,367.9c0.7-0.2,0.8-0.9,1.1-1.5c0.1-0.2,0.3-0.4,0-0.7c-0.1-0.1,0.1-0.7,0.2-1c0,0,0,0,0.1,0
		c0.4-0.1,0.6-0.4,0.6-0.8c-0.3-2-1.1-3.6-3-4.5c-0.7-0.4-1.5-0.8-2.3-0.7c-0.6,0.1-1.3,0.1-1.7,0.8c0,0.1-0.3-0.1-0.2,0.1
		c0,0.1,0.1,0.2,0.4,0.2c0.7-0.1,1.3,0,1.8,0.5c1.3,1,2,2.3,2.1,4l0,0c0.1,0.3-0.1,0.7-0.2,1.1c-0.1,0.7-0.4,1.5-0.9,2
		c-1.1,1.1-2.3,1.9-3.9,2.2c-0.5,0.1-1.1,0.3-1.6,0.1c-1-0.2-1.3-1.1-1.5-1.8c-0.2-1-0.6-2.2,0.1-3.2c0.1-0.1,0.1-0.4,0.1-0.6
		c-0.1-0.2,0-0.5,0.2-0.6c0.4-0.4,0.7-0.8,1-1.2c0.3-0.3,0.8-0.8,1.1-0.7c0.4,0.2,0.8,0,1.1,0c0.5,0,1-0.6,0.8-1
		c-0.1-0.2-0.3-0.1-0.4-0.2c-0.7-0.4-1.9-0.4-2.5,0c-1.3,0.9-2.4,1.9-3.2,3.2c-0.5,0.7-0.7,1.5-0.8,2.2c0,0.8,0.1,1.7,0.4,2.5
		c0.4,1,0.9,1.8,1.9,2.3c1,0.5,1.9,0.7,3,0.4c1-0.2,2.1-0.2,3.1-0.7c0.5-0.2,1-0.5,1.4-0.7c0.5-0.3,1-0.7,1.5-1.1
		C-400.9,368.4-401,368-400.8,367.9z"/>
	<path class="st0" d="M-407.5,442.4c0.5-0.3-0.2-0.3-0.1-0.5l0.4-0.2c-0.2,0.1-0.5,0-0.5-0.2c0-0.2,0.2-0.2,0.4-0.2
		c0.1,0-0.1-0.3,0.2-0.3c0-0.1-0.1-0.1-0.2-0.1c-0.2,0-0.4,0.1-0.5-0.1c0.2-0.2,0.5,0,0.8-0.2c-0.6,0-1.2,0-1.8,0
		c-0.2,0-0.5,0-0.6-0.3c-0.2-0.3-0.5-0.6-0.8-0.8c-0.6-0.6-1.2-1.3-2-1.7c-0.5-0.2-0.5-0.2-0.5,0.3c0,0,0,0.1,0,0.1
		c-0.8,0.1,0.1,0.4,0,0.5c0.7,0.6,1.2,1.4,1.9,2c-0.3,0.2-0.6,0.2-0.9,0.2c-0.6,0-1.3,0-1.9,0.1c-0.7,0-1.4,0.2-2.2,0.2
		c-1.2,0-2.4-0.1-3.6,0c-1.7,0.2-3.4,0-5.2,0.3c-1.1,0.2-2.4,0-3.5,0c-1.7,0-3.3,0.2-5,0.4c-1,0.1-2,0.3-3.1,0.4
		c-0.8,0-1.6,0.2-2.5-0.1c-0.6-0.2-1.2-0.3-1.7,0.3c-0.1,0.1-0.3,0.2-0.3,0.4c0.1,0.7,0,1.4,0.9,1.6c0,0,0.1,0,0.1,0
		c0.2,0.3,0.5,0.8,0.6,0.8c0.7,0.4,1.3,0.9,1.9,1.4c1.1,0.9,2.2,1,3.5,0.9c0.5-0.1,1.1-0.2,1.6-0.2c1.3,0.1,2.6-0.3,4-0.3
		c1.6,0,3.2-0.2,4.8-0.2c1.2,0,2.4,0.1,3.6-0.2c0.4-0.1,0.9-0.2,1.4-0.3c-0.1,0.1-0.2,0.1-0.2,0.2c0,0-0.1,0.1,0,0.2
		c0.7-0.9,1.8-0.3,2.7-0.8c0,0.3-0.2,0.1-0.3,0.3c0.7,0.1,1.3-0.2,1.9-0.1l0.1-0.1c-0.5-0.3-1-0.2-1.6-0.3c1.2,0.1,2.3-0.2,3.6-0.1
		c-0.3,0.4-0.5,0.8-0.9,1.1c-0.2,0.2-0.5,0.6-0.3,0.9c0.2,0.4,0.7,0.5,1.1,0.6c0.1,0,0.3-0.3,0.3-0.2c0,0.6,0.3,0.1,0.5,0.2
		c0.2,0.1,0.5,0,0.5,0.4c0,0.1,0.2,0.4,0.3,0.2c0.3-0.3,0.6-0.7,0.8-1c0.3-0.6,0.9-1,1.2-1.6c0-0.1,0.1-0.2,0.2-0.1
		c0.4,0.5,0.4,0,0.5-0.2c0.1-0.2,0.2-0.4,0.3-0.6c0.4-0.7,0.8-1.3,0.6-2.2c0-0.2,0-0.4,0.3-0.5c-0.2,0-0.4-0.1-0.5-0.1
		C-407.4,442.5-407.6,442.5-407.5,442.4z"/>
	<path class="st0" d="M-405.3,418.5c-0.3-0.6-0.8-1.1-1.1-1.7c0.5,0.1,0.5,0.9,1.2,0.9c-0.3-0.4-0.7-0.7-0.8-1.1
		c-0.2-0.5-0.5-0.9-0.8-1.3c-0.3-0.5-0.2-0.8,0.2-1c0.5-0.3,0.8-0.7,1.2-1.1c0.2-0.2,0.3-0.7,0.1-0.8c-0.3-0.2-0.6-0.8-1.2-0.4
		c-0.5,0.3-1,0.5-1.5,0.8c-0.1,0.1-0.3,0.2-0.4,0c-0.4-0.5-0.9-0.9-1.2-1.5c-0.4-0.7-0.7-1.5-1.8-1.1c-0.1,0-0.1-0.1-0.2-0.1
		c-0.7-0.1-1.3-0.4-2.1-0.4c-0.5,0-1,0-1.4-0.1c-0.5-0.1-1,0-1.5,0.1c-0.3,0.1-0.5,0.3-0.2,0.7c0.3,0.4,0.6,0.7,1,1
		c1.3,1.4,2.4,2.9,3.6,4.3l0,0c-1.2,0.8-2.3,1.6-3.4,2.5c-0.6,0.5-0.5,1.1,0.2,1.4c0.7,0.3,1.4,0.1,2-0.2c0.9-0.4,1.6-0.9,2.3-1.6
		c0.2-0.2,0.4-0.1,0.5,0.1c0.5,0.7,1,1.5,1.6,2.1c0.3,0.4,0.7,0.6,1.2,0.7c0.9,0.2,1.8,0,2.7,0c0.4,0,0.8-0.3,0.6-0.6
		C-404.8,419.5-405,419-405.3,418.5z"/>
</g>
</svg>
