<svg width="218" height="218" viewBox="0 0 218 218" xmlns="http://www.w3.org/2000/svg"><g fill="none" fill-rule="evenodd"><path d="M109.102.102C49.127.102.307 48.922.307 108.898c0 59.975 48.82 108.795 108.795 108.795 59.976 0 108.796-48.82 108.796-108.795 0-59.976-48.82-108.796-108.796-108.796" fill="#002A5A"/><path d="M206.537 108.898c0-53.835-43.65-97.486-97.486-97.486-53.83 0-97.48 43.65-97.48 97.486 0 53.834 43.65 97.486 97.49 97.486 53.89 0 97.49-43.652 97.49-97.486" fill="#FFF"/><path d="M171.125 108.898c0-34.287-27.787-62.023-62.074-62.023-34.28 0-62.02 27.787-62.02 62.023 0 34.286 27.79 62.073 62.02 62.073 34.29 0 62.08-27.78 62.08-62.07" fill="#7AB2E1"/><path d="M109.102 45.698c-34.85 0-63.2 28.35-63.2 63.2s28.35 63.25 63.2 63.25 63.25-28.35 63.25-63.25c-.05-34.85-28.4-63.2-63.25-63.2m0 130.186c-36.896 0-66.986-30.04-66.986-66.986 0-36.948 30.04-66.987 66.986-66.987 36.948 0 66.987 30.04 66.987 66.99-.06 36.95-30.09 66.99-66.99 66.99" fill="#002A5A"/><path fill="#7AB2E1" d="M22.005 106.544l-1.79.41-.462-1.792 2.917-.87h1.535v10.184h-2.2m10.08-7.216c0-.665-.51-1.228-1.432-1.228-.92 0-1.433.563-1.433 1.177v.05c0 .71.563 1.22 1.433 1.22.87 0 1.433-.51 1.433-1.23m.307 4.24c0-.82-.716-1.28-1.74-1.28-1.023 0-1.74.46-1.74 1.23 0 .71.665 1.28 1.74 1.28 1.075.05 1.74-.51 1.74-1.23m-5.63.2c0-1.28.564-2 1.638-2.46-.76-.46-1.27-1.13-1.27-2.2V107c0-1.535 1.44-2.763 3.53-2.763 2.15 0 3.53 1.23 3.53 2.763v.05c0 1.076-.51 1.74-1.28 2.202 1.03.512 1.64 1.177 1.64 2.405v.053c0 1.894-1.63 2.968-3.89 2.968-2.25-.05-3.89-1.226-3.89-2.966m160.43-4.042c0-.92-.66-1.59-1.79-1.59-1.07 0-1.74.61-1.74 1.532v.05c0 .922.67 1.536 1.74 1.536 1.13-.05 1.79-.666 1.79-1.536m-.05 2.66c-.51.41-1.17.716-2.04.716-2.2 0-3.63-1.226-3.63-3.273v-.05c0-2.047 1.59-3.53 3.84-3.53 1.39 0 2.15.306 2.92 1.073.72.717 1.18 1.843 1.18 3.787v.053c0 3.277-1.53 5.53-4.4 5.53-1.48 0-2.46-.515-3.33-1.18l1.18-1.69c.72.615 1.38.87 2.2.87 1.59 0 2-1.43 2.1-2.3m9.42.153v-3.12l-2.66 3.13h2.66zm0 1.79h-4.97l-.35-1.58 5.53-6.45h1.89v6.19h1.39v1.79h-1.38v2.2h-2.1v-2.15z"/><path d="M109.102 48c-33.57 0-60.896 27.33-60.896 60.9s27.326 60.896 60.896 60.896S170 142.468 170 108.898 142.67 48 109.1 48m0 124.148c-34.85 0-63.25-28.35-63.25-63.25 0-34.85 28.35-63.25 63.25-63.25 34.85 0 63.25 28.35 63.25 63.25-.05 34.9-28.4 63.25-63.25 63.25" fill="#FFF"/><path d="M107.925 54.5c-31.216 0-49.23 4.094-49.23 4.094s-7.214 27.327-3.12 62.38c1.74 14.688 13.663 46.364 53.323 57.162 39.608-10.798 51.583-42.474 53.27-57.16 4.095-35.055-3.12-62.382-3.12-62.382s-18.013-4.094-49.23-4.094h-1.893z" fill="#002A5A"/><path d="M156.745 112.787c-.358 10.644-1.996 42.423-47.847 59.873-45.494-16.99-47.9-49.843-47.9-59.873h95.747z" fill="#A8C9EB"/><path d="M155.415 111.047c1.228-26.303-3.224-47.694-3.224-47.694S135.1 60.078 109 60.078c-26.15 0-43.498 3.633-43.498 3.633s-4.76 21.45-3.48 47.34h93.393z" fill="#FFF"/><path d="M110.33 171.74l-48.41-58.493c-1.74 12.026 8.034 47.592 48.41 58.492m-33.98-58.91l44.778 54.04c4.555-2.15 7.83-4.3 11.054-6.86l-39.097-47.18H76.35zm31.115.05l33.058 39.91c3.224-3.69 5.987-7.01 7.932-10.54l-24.308-29.38h-16.682zm48.512 0l-16.53-.06 13.87 16.73c2.353-5.17 2.66-13.82 2.66-16.69" fill="#7AB2E1"/><path d="M128.446 134.792c-.154-.41-.41-.666-.82-.82l-2.762-.972c-.256-.102-.512-.05-.717 0-.204-.972-.767-1.842-1.586-2.405-.1-.05-.2-.153-.3-.204-.2-.15-.36-.25-.61-.3-.35-.15-.71-.25-1.07-.36-.82-.25-1.58-.51-2.61-1.22-.92-.66-1.38-1.33-1.79-1.89-.1-.15-.2-.3-.31-.41-.25-.41-.61-.76-1.02-1.07-.72-.51-1.53-.76-2.4-.76-.2 0-.36.05-.56.05v-.05c.05-.36-.05-.71-.26-.97l-1.69-2.3c-.25-.3-.61-.51-1.02-.51-.41 0-.82.21-1.02.51l-1.79 2.31c-.2.31-.31.67-.25 1.03-.15 0-.31-.05-.41-.05-.87 0-1.69.26-2.4.77-.1.05-.2.16-.25.26-.21.15-.36.31-.51.46-.25.31-.46.61-.66.87-.51.72-.97 1.33-1.99 2.1-.92.67-1.69.92-2.35 1.13-.15.05-.35.11-.51.16-.51.11-.97.31-1.38.62-.82.56-1.38 1.48-1.59 2.46-.3-.1-.56-.15-.87-.05l-2.71.92c-.41.1-.66.41-.82.82-.1.41-.05.82.16 1.13l1.64 2.4c.21.26.46.46.77.51-.46.93-.51 2-.2 2.97.05.1.1.21.1.36.05.21.15.41.31.62l.62.92c.51.72.97 1.33 1.38 2.56.36 1.13.36 1.84.31 2.56v.51c-.05.51.06 1.03.21 1.49.31.97.97 1.74 1.84 2.25-.1.2-.2.41-.15.61v2.87c0 .41.21.77.51 1.03.31.25.77.31 1.13.2l2.82-.82c.26-.05.47-.25.62-.41.82.77 2 1.18 3.12 1.08.21 0 .46-.05.67-.1.41-.1.72-.2 1.08-.3.81-.26 1.58-.51 2.86-.51 1.178 0 1.89.25 2.56.51l.46.15c.46.203.97.305 1.48.305 1.02 0 2.047-.41 2.76-1.124.15.205.358.36.56.41l2.76.87c.41.1.82.05 1.13-.154.36-.25.51-.61.56-1.02l.05-2.87c0-.202-.05-.46-.153-.61.87-.46 1.535-1.28 1.84-2.258.05-.1.05-.25.1-.36.05-.2.104-.41.104-.66.05-.41.05-.77.05-1.13 0-.87 0-1.69.41-2.87.356-1.122.817-1.685 1.28-2.3.1-.153.2-.255.305-.41.31-.41.56-.82.72-1.33.36-1.023.26-2.1-.252-3.07.25-.102.46-.204.61-.46l1.69-2.354c.355-.41.46-.82.304-1.23" fill="#002A5A"/><path d="M107.414 140.984c0-.87.716-1.587 1.637-1.587.93 0 1.64.717 1.64 1.587s-.71 1.637-1.64 1.637c-.92 0-1.63-.71-1.63-1.63" fill="#FDCA50"/><path d="M99.942 139.04c-.972.306-1.484 1.33-1.177 2.302 0 .102.05.204.154.307.05.05.05.1.1.1 0 0 0 .05.05.05.36.51.87 1.02 1.17 2.04.36 1.07.2 1.69.25 2.3 0 .2 0 .41.1.61.3.97 1.33 1.48 2.3 1.17.25-.1.46-.21.66-.36.1-.05.15-.15.2-.21 0 0 3.07-4.2 3.17-4.35.15-.2 0-.36-.1-.51-.11-.1-.31-.46-.36-.67-.1-.26-.1-.56-.1-.77 0-.21 0-.36-.21-.46-.21-.05-3.74-1.23-4.92-1.59-.46-.1-.92-.16-1.33 0m-2.4 2.3c-.36-1.13.25-2.36 1.38-2.77.15-.05.15-.21.05-.26-1.18-.46-2.15-.77-3.18-.46-1.49.46-2.25 1.99-1.79 3.42.05.1.05.15.1.26.05.1.1.25.2.41.56.97 1.38 1.64 1.94 3.38.46 1.43.31 2.35.36 3.17-.05.36 0 .72.1 1.07.46 1.43 2.05 2.25 3.48 1.74.97-.36 1.59-1.18 2.3-2.2.05-.11-.05-.21-.16-.16-1.13.36-2.41-.26-2.77-1.38-.31-.87.1-2.2-.25-3.28-.36-1.03-1.54-2.15-1.79-2.97m10.59-9.52c-.62-.82-1.74-.97-2.56-.41-.1.05-.21.1-.26.26-.05.05-.05.1-.1.1l-.05.05c-.41.51-.72 1.13-1.59 1.74-.92.67-1.54.72-2.1.97-.2.05-.41.15-.56.25-.82.61-1.03 1.74-.41 2.56.15.2.36.36.56.51.1.05.16.1.26.1l5.12 1.64c.25.05.36-.1.46-.2.1-.1.36-.41.56-.56.21-.16.51-.31.72-.31.21-.05.36-.1.36-.36V133c-.05-.41-.15-.87-.41-1.23m-2.97-1.583c.97-.72 2.35-.513 3.07.46.1.15.26.1.26-.05.05-1.23.05-2.253-.51-3.123-.87-1.225-2.61-1.48-3.84-.61-.11.05-.16.1-.21.202-.1.1-.21.15-.36.31-.72.813-1.13 1.79-2.66 2.86-1.23.87-2.15 1.024-2.92 1.28-.36.102-.67.255-.98.46-1.23.87-1.54 2.61-.62 3.84.62.82 1.64 1.124 2.82 1.482.103.05.154-.105.103-.207-.715-.97-.51-2.35.46-3.02.72-.51 2.15-.56 3.07-1.28.92-.61 1.59-2.04 2.305-2.61m12.39 7.12c.61-.82.41-1.94-.41-2.51-.05-.05-.15-.15-.31-.2-.05 0-.104-.05-.155-.05h-.05c-.61-.21-1.28-.31-2.15-.97-.92-.66-1.18-1.23-1.59-1.69-.1-.15-.26-.36-.46-.46-.82-.61-1.94-.41-2.56.41-.15.21-.25.46-.31.67 0 .1-.05.21-.05.31v5.32c0 .26.21.31.36.36.15.05.51.21.72.36.2.16.41.36.51.56.1.16.2.31.46.21.2-.1 3.78-1.18 4.91-1.58.41-.15.82-.36 1.073-.72m.61-3.27c.974.72 1.18 2.05.514 3.02-.104.15 0 .25.15.2 1.178-.3 2.2-.61 2.816-1.48.92-1.18.617-2.92-.61-3.84-.1-.05-.154-.1-.26-.16-.1-.1-.252-.15-.41-.2-1.02-.41-2.1-.51-3.58-1.58-1.23-.87-1.64-1.69-2.15-2.35-.15-.31-.41-.57-.72-.77-1.23-.87-2.97-.616-3.84.61-.61.87-.61 1.89-.51 3.12 0 .1.15.15.21.05.716-.97 2.1-1.175 3.07-.46.77.51 1.23 1.84 2.15 2.51.82.61 2.404.82 3.17 1.33m-3.02 13.92c.975.305 2-.21 2.306-1.18.05-.1.05-.204.1-.36v-.204c0-.66-.1-1.33.26-2.35.36-1.07.82-1.48 1.176-1.992.16-.15.26-.36.31-.56.31-.97-.2-1.99-1.17-2.3-.26-.05-.51-.1-.77-.05-.1 0-.2 0-.308.05l-5.12 1.69c-.26.1-.208.31-.208.46 0 .157-.05.51-.1.77-.106.26-.21.51-.36.67-.156.16-.26.31-.1.46.15.158 2.3 3.17 3.02 4.15.2.31.56.615.97.77m3.32-.46c-.36 1.124-1.59 1.74-2.77 1.38-.153-.05-.255.05-.204.204.67 1.02 1.28 1.89 2.307 2.2 1.43.51 3.02-.31 3.48-1.74.05-.1.05-.21.05-.26.05-.1.05-.26.1-.46.103-1.13-.15-2.15.41-3.89.46-1.437 1.125-2.1 1.59-2.767.2-.26.41-.564.51-.92.46-1.435-.31-3.02-1.79-3.43-1.028-.31-2 .05-3.177.46-.106.05-.106.15.05.2 1.174.36 1.79 1.59 1.43 2.77-.307.87-1.38 1.74-1.74 2.816-.256.97.05 2.56-.256 3.43m-14.22 1.38c0 1.02.82 1.84 1.84 1.84.1 0 .2 0 .352-.05.06 0 .11-.05.16-.05h.05c.62-.208 1.23-.51 2.31-.51 1.122 0 1.69.302 2.25.46.202.05.41.1.663.1 1.025 0 1.84-.82 1.84-1.848 0-.25-.05-.51-.15-.71-.05-.1-.1-.2-.15-.253 0 0-3.07-4.194-3.176-4.3-.15-.2-.36-.1-.46-.05-.15.05-.51.156-.77.156s-.57-.05-.77-.16c-.21-.1-.36-.15-.51.05-.11.157-2.36 3.176-3.02 4.148-.26.31-.46.716-.46 1.176m1.48 3.02c-1.23 0-2.2-.974-2.2-2.15 0-.154-.16-.256-.26-.103-.77.98-1.382 1.79-1.433 2.87-.05 1.49 1.23 2.71 2.76 2.71h.31c.15 0 .302 0 .46-.05 1.07-.25 1.99-.76 3.84-.76 1.53 0 2.35.41 3.17.67.31.156.662.207 1.02.207 1.533 0 2.76-1.23 2.76-2.71 0-1.02-.67-1.89-1.437-2.87-.1-.1-.2 0-.2.1 0 1.18-.98 2.15-2.2 2.15-.93 0-2.1-.77-3.23-.77-1.076-.1-2.46.72-3.38.72m16.17-15.146c1.03-.05 1.95.2 2.717.82l1.59-2.2-2.61-.923c-.203.92-.82 1.74-1.69 2.302m-4.91 15.05c.36.97.41 1.89.05 2.81l2.61.82.05-2.71c-.92.05-1.89-.26-2.71-.92m-15.963 0c-.82.61-1.74.97-2.66.92v2.71l2.66-.77c-.36-.87-.36-1.89 0-2.87m-5.02-15.04c-.87-.56-1.433-1.33-1.74-2.25l-2.56.87 1.536 2.25c.72-.615 1.69-.92 2.77-.87m13.02-9.52c-.26-.97-.87-1.84-1.69-2.3l1.69-2.15 1.64 2.15c-.82.563-1.386 1.33-1.64 2.303" fill="#E42313"/><path d="M124.3 84.795l11.208-3.838s-.972 4.657-.665 8.29c.358 4.657 3.02 8.24 3.02 8.24l-13.818 4.758.256-17.45z" fill="#FDCA50"/><path d="M137.862 97.486s-2.456-3.53-2.866-7.625c-.307-3.07 0-5.73.512-8.9-.512 2.15-2.303 8.14-7.318 13.72-2.047 2.26-2.917 4.2-3.326 5.58l-.256-26.4s-2.66.92-2.917 1.03c-.3.1-.46.31-.46.41 0 .16-.15.26-.3.31-.2.05-1.74.61-2.81.97-.2.05-.1.26 0 .26 1.28-.05 3.07-.2 3.28-.2.26-.05.36-.15.41-.36v-.05c.05-.2.21-.36.41-.36.15 0 1.13-.1 1.74-.2l-.25 28.4h1.28V102l12.9-4.506z" fill="#DAA500"/><path d="M88.172 102.962s-2.098-1.536-2.66-4.453c-.564-2.97.92-4.71.92-4.71l13.56-4.66s-.817 2.71-.05 5.78c1.024 3.89 3.07 6.5 3.07 6.5s-4.963-.92-9.825-.31c-4.554.56-5.015 1.84-5.015 1.84m-15.66-3.38s1.69-4.61 6.654-9.67c3.735-3.79 6.243-4.97 6.243-4.97s-2.21 3.12-3.13 8.29c-.57 3.17.05 7.21.05 7.21s-2.56-.51-5.48-.82c-2.41-.31-4.35-.05-4.35-.05" fill="#FDCA50"/><path d="M85.41 84.948s-2.15 3.122-3.072 8.29c-.562 3.173.052 7.216.052 7.216s-.666-.154-2.098-.46c-6.09-1.382 5.117-15.046 5.117-15.046m7.98 3.736l-.1-12.23h-.06c-.31.102-2.66.92-2.92.972-.31.102-.46.307-.46.41 0 .153-.11.255-.31.306-.21.05-1.74.614-2.82.973-.21.05-.11.255 0 .255 1.22-.05 3.07-.204 3.27-.204.25-.05.36-.154.41-.358v-.052c.05-.204.2-.358.41-.358.15 0 1.07-.102 1.69-.205l-.11 10.44h.97v.05zM109.2 77.63h.92V65.86s-2.66.922-2.916 1.024c-.31.102-.463.307-.463.41 0 .153-.15.255-.3.306-.2.052-1.74.615-2.81.973-.2.05-.1.256 0 .256 1.23-.06 3.07-.21 3.28-.21.26-.05.36-.16.41-.36.05-.21.21-.36.41-.36.15 0 1.02-.11 1.64-.21l-.15 9.93z" fill="#DAA500"/><path d="M106.8 68.624h.05c.257-.05.36-.154.41-.358.05-.154.102-.256.256-.307l-.358-1.03c-.307.1-.41.3-.41.41 0 .15-.102.2-.256.3l.308.97zM89.912 79.166h.05c.257-.05.36-.154.41-.358.052-.154.103-.256.257-.308l-.36-1.023c-.31.102-.41.307-.41.41 0 .153-.1.204-.26.255l.3 1.024zm31.37-2.61h.05c.257-.05.36-.154.41-.358.05-.154.154-.256.256-.307l-.358-1.02c-.307.1-.41.31-.46.41 0 .16-.103.21-.257.31l.36.97z" fill="#FDCA50"/><path d="M103.013 101.426s-2.2-3.172-3.02-6.55c-.716-2.917 0-5.68 0-5.68s-1.432 4.964-4.912 7.676c-2.4 1.893-8.29 3.633-6.9 6.09.21-.36.82-.973 3.23-1.536.31-.05.62-.102.87-.153v4.042h1.28v-4.196c4.45-.52 9.47.3 9.47.3" fill="#DAA500"/><path d="M86.74 92.983s-1.587-.973-1.433-4.043c.204-3.173 1.79-4.555 1.842-4.657l10.54-3.633s-.77 1.586-.26 3.99c.66 2.918 2.5 4.505 2.5 4.505s-5.32.05-10.08 1.74c-2.31.818-3.13 2.098-3.13 2.098" fill="#FDCA50"/><path d="M93.034 86.33c3.07-2.507 4.708-5.68 4.708-5.68s-.41 2.047-.103 3.838c.56 3.07 2.35 4.708 2.35 4.708s-4.3.05-8.96 1.38c-3.07.87-4.05 2.1-4.3 2.51-.97-2.406 3.17-4.197 6.29-6.756" fill="#DAA500"/><path d="M105.11 103.78s-2.916-2.2-3.633-6.243c-.562-3.224 1.587-5.578 1.587-5.578l16.53-5.68s-.922 3.68-.052 7.16c.92 3.94 4.554 8.85 4.554 8.85s-6.857-2-12.793-1.23c-5.68.66-6.192 2.71-6.192 2.71m-3.42-26.2c-.1-2.51 1.64-4.51 1.74-4.61l11.87-4.15s-.76 1.84-.56 3.47c.36 3.02 2.1 4.65 2.1 4.65s-4.65-.26-10.13 1.64c-3.02 1.07-3.32 2.5-3.32 2.5s-1.53-.46-1.69-3.53" fill="#FDCA50"/><path d="M111.098 74.355c2.098-1.842 4.196-5.526 4.196-5.526s-.767 1.84-.563 3.47c.36 3.02 2.1 4.65 2.1 4.65s-5.01-.05-9.87 1.64c-2.1.71-3.37 1.89-3.58 2.5-.76-2.36 4.76-4.15 7.73-6.76" fill="#DAA500"/><path d="M103.422 91.243s-1.74-1.996-2.047-5.015c-.358-3.173 1.535-4.452 1.69-4.555l13.713-4.76s-.358.973-.05 3.788c.306 2.31 2.558 5.48 2.558 5.48s-7.318.21-11.872 1.95c-2.764 1.13-3.992 3.13-3.992 3.13" fill="#FDCA50"/><path d="M112.48 83.31c2.968-2.558 4.298-6.396 4.298-6.396s-.358 2.15 0 3.838c.717 2.968 2.815 5.476 2.815 5.476s-6.346.102-11.002 1.637c-3.02 1.024-4.91 2.815-5.16 3.327-.61-2.508 6.09-5.323 9.06-7.88m11.87 19.188s-3.73-4.81-4.81-9.108c-.71-2.815-.2-6.038.05-7.113-.41 1.48-1.94 6.34-5.57 9.72-3.48 3.22-10.39 4.81-8.9 7.83.26-.51 1.08-1.64 3.84-2.36l-.05 3.89h1.33v-4.15c6.14-.98 14.13 1.28 14.13 1.28" fill="#DAA500"/><path d="M130.75 111.56c.87-.155 1.74-.36 3.018-.667-.102-.05-.153-.102-.205-.153-1.38-1.535-1.125-3.173-.307-3.992 3.07-2.917 3.02-5.015 3.02-5.015s-7.523 1.536-17.4 2.047c-.614.05-2.916 1.024-3.582 1.075-1.33.05-2.763.102-4.196.102-18.627.154-23.847-1.126-29.988-2.303-6.192-1.177-8.904-2.405-8.904-2.405l-.256.66s4.862 1.89 8.393 3.63c.716.36 3.633 4.71 4.605 6.19H62.79c-1.228-25.39 3.685-46.16 3.685-46.16s16.938-3.64 42.423-3.64v-2.71c-27.07 0-45.084 3.84-45.084 3.84s-7.88 27.73-3.685 60.74c1.74 13.76 13.15 39.5 48.66 51.48l1.53-2.2-1.54-2.15c-33.47-11.26-43.24-33.88-44.93-46.83-.36-2.87-.67-5.73-.87-8.5h45.95v-3.89H85.46c.512-1.69 2.2-2.1 4.248-1.64 2.15.51 4.247 1.02 6.243.92 5.07-.26 4.3-1.64 4.76-1.59 5.17.31 7.17 1.58 11.67 1.48 4.15-.05 5.58-1.13 5.94-1.18 5.07-.05 6.96 2.25 12.03 2.71.16.1.26.1.41.1" fill="#FDCA50"/><path d="M153.88 62.125s-17.963-3.838-45.034-3.838V61c25.485 0 42.372 3.632 42.372 3.632s4.913 20.777 3.685 46.16h-22.21c-1.79-1.69-.767-3.94-.153-4.453 2.61-2.36 2.61-3.94 2.61-3.94s-5.988 1.48-15.864 1.94c-.614 0-3.43 1.28-4.094 1.28-1.382.05-3.275.1-4.708.1-12.845 0-19.19-.26-30.346-2.61.205.25.307.36.512.66.05.1 4.912 1.33 4.964 1.43.716.97 1.688 1.69 2.865 2.3 1.79.97 4.45 1.79 6.65 1.89 5.01.3 4.09-1.59 4.55-1.59 5.17-.1 8.49 1.79 13 1.69 4.14-.05 4.24-1.33 4.65-1.39 4.09-.26 8.24 1.53 11.77 2.71h-20.31v3.89h45.8c-.21 2.81-.51 5.63-.87 8.49-1.69 12.95-11.52 35.62-44.93 46.82v4.35c35.51-11.93 46.92-37.67 48.66-51.48 4.3-33.06-3.59-60.8-3.59-60.8" fill="#DAA500"/><path fill="#002A5A" d="M25.894 74.048l1.893-3.53 8.342-.615-4.25-7.215 1.89-3.582 14.94 7.88-1.74 3.276-9.73-5.118 4.14 7.523-.06.102-8.5.81 9.67 5.11-1.69 3.22m12.03-30.44l-5.53-2.1 2.45 5.37 3.07-3.28zm-9.88-3.94l2.35-2.51 17.34 6.4L60 54.23l-3.787-1.49-4.91 5.17L53 61.645l-2.61 2.764-7.42-16.89zm13.36-12.28l2.96-1.79 12.13 4.81-5.37-8.91 3.12-1.9 8.75 14.43-2.71 1.64-12.54-4.97 5.57 9.21-3.17 1.89M79 32.32c-1.33-4.656 1.027-9.415 6.04-10.9 3.07-.87 5.17-.41 7.11.666l-1.53 3.275c-1.59-.77-3.076-1.08-4.66-.62-2.71.77-4.045 3.64-3.226 6.4v.05c.82 2.77 3.37 4.56 6.19 3.74 1.84-.51 2.76-1.58 3.73-3.12l2.92 1.64c-1.125 2.25-2.66 3.89-5.833 4.81-4.81 1.38-9.41-1.28-10.75-5.94m20.22-13.56l3.74-.1.16 6.7 6.86-.2-.15-6.65 3.68-.1.46 16.89-3.73.05-.15-6.75-6.85.16.16 6.81-3.68.11m35.67 1.95l3.12-1.49c.87 1.79 1.95 3.17 3.74 3.99 1.38.61 2.46.46 2.87-.41v-.05c.41-.87.05-1.54-2.2-3.38-2.71-2.2-4.3-3.99-2.92-7.01v-.05c1.28-2.77 4.35-3.58 7.52-2.15 2.25 1.02 3.79 2.61 4.81 4.55l-2.92 1.74c-.92-1.58-1.99-2.76-3.27-3.37-1.28-.61-2.25-.3-2.61.41v.05c-.46 1.03.05 1.64 2.36 3.53 2.71 2.26 3.99 4.2 2.71 6.86v.05c-1.38 3.02-4.5 3.69-7.83 2.15-2.3-1.07-4.3-2.97-5.37-5.42m24.62.97l-4.05-3.12 2.04-2.76 11.1 8.487-2.042 2.71-4.09-3.07-8.14 10.698-2.97-2.25m30.857 23.59c.82 1.64 2.15 2.1 3.43 1.486h.05c1.43-.71 1.64-2.044.82-3.68l-1.64-3.274-4.35 2.2 1.69 3.27zm3.99-10.34l3.48 6.91c.974 1.94 1.18 3.68.667 5.17-.41 1.28-1.39 2.31-2.82 3.02h-.05c-2.45 1.23-4.6.67-6.29-.87l-3.53 6.4-1.95-3.89 3.23-5.68-1.33-2.61-4.81 2.407-1.69-3.326 15.1-7.53zM124.1 30.07l6.245 1.33 1.683-2.97-7.218-1.59.717-3.372 8.85 1.94.664-3.23-12.43-2.71-3.58 16.48 12.59 2.762.67-3.224-8.9-1.944m50.82 12.64l-12.95 10.87 8.24 9.82 2.56-2.093-5.88-7.01 2.71-2.31 4.15 4.96 3.33-1.18-4.97-5.89 2.66-2.2 5.78 6.91 2.56-2.1M80.44 190.06c0-4.914 3.687-8.956 8.957-8.956 3.22 0 5.17 1.074 6.75 2.66l-2.41 2.764c-1.33-1.177-2.66-1.944-4.4-1.944-2.92 0-4.97 2.405-4.97 5.373v.05c0 2.918 2.048 5.374 4.965 5.374 1.94 0 3.17-.76 4.5-1.99l2.405 2.46c-1.79 1.9-3.737 3.07-7.063 3.07-4.963 0-8.75-3.89-8.75-8.85m19.55-8.59h3.787v17.2h-3.78zm12.537 3.48h-5.22v-3.48h14.23v3.48h-5.22v13.67h-3.79m17.25-6.75l-6.6-10.38h4.4l4.15 6.86 4.15-6.86h4.3l-6.6 10.34v6.81h-3.78"/><path d="M109.102 6.857c-56.29 0-102.04 45.8-102.04 102.092 0 56.29 45.8 102.09 102.04 102.09 56.29 0 102.092-45.8 102.092-102.09-.05-56.35-45.852-102.1-102.092-102.1m0 206.38C51.582 213.24 4.76 166.41 4.76 108.9 4.76 51.378 51.582 4.554 109.1 4.554c57.52 0 104.344 46.824 104.344 104.344 0 57.52-46.824 104.343-104.344 104.343" fill="#7AB2E1"/></g></svg>