<svg xmlns="http://www.w3.org/2000/svg" width="96" height="48" viewBox="0 0 96 48"><defs><linearGradient id="a" x1="49.965%" x2="49.965%" y1=".054%" y2="100.004%"><stop stop-color="#00B8F1" offset="0%"/><stop stop-color="#06A5E5" offset="21.986%"/><stop stop-color="#06A5E5" offset="21.986%"/><stop stop-color="#1870C5" offset="79.431%"/><stop stop-color="#1D61BC" offset="100%"/></linearGradient></defs><g fill="none" fill-rule="evenodd"><path fill="url(#a)" d="M0 0v46.636h47.65L94.29.006H0" transform="translate(.93 .456)"/><path fill="#1870C5" d="M61.285 42.325v3.478h.526v-1.51h.59l.96 1.51h.59l-1.01-1.51c.51-.062.92-.358.92-.984 0-.69-.42-.99-1.25-.99h-1.32zm.526.46h.73c.36 0 .76.057.76.49 0 .544-.4.592-.85.592h-.622v-1.083zm.66-1.74c-1.66 0-3.08 1.283-3.08 3.02 0 1.747 1.42 3.05 3.09 3.05 1.647 0 3.02-1.303 3.02-3.05 0-1.737-1.373-3.02-3.02-3.02zm0 .492c1.36 0 2.43 1.098 2.43 2.527 0 1.453-1.07 2.526-2.43 2.526-1.38 0-2.49-1.073-2.49-2.526 0-1.43 1.11-2.527 2.5-2.527z"/><path fill="#FFF" d="M57.43 22.77h-2.045V15.3h2.044c2.72 0 4.9.9 4.9 3.688 0 2.882-2.18 3.785-4.9 3.785m-22 5.34c-1.09 0-2.1-.196-2.98-.526l2.94-9.282h.06l2.88 9.307c-.87.312-1.86.503-2.918.503M56.88 9.227H47.6V31.29L39.49 9.227h-8.03l-6.927 18.446c-.732-4.65-5.55-6.26-9.337-7.46-2.496-.802-5.153-1.983-5.13-3.29.022-1.07 1.428-2.06 4.202-1.912 1.87.1 3.518.25 6.792 1.83l3.224-5.61C21.3 9.7 17.16 8.74 13.774 8.74h-.02c-3.95 0-7.242 1.282-9.284 3.39-1.42 1.474-2.186 3.34-2.22 5.415-.053 2.843.994 4.86 3.185 6.475 1.855 1.36 4.22 2.232 6.31 2.89 2.58.792 4.684 1.486 4.66 2.966-.02.54-.22 1.044-.61 1.443-.643.66-1.63.91-2.993.94-2.63.05-4.58-.36-7.687-2.2l-2.865 5.7c3.096 1.76 6.763 2.79 10.505 2.79h.484c3.25-.063 5.88-.99 7.98-2.68l.34-.297-.93 2.493h8.43l1.41-4.305c1.48.5 3.17.783 4.95.783 1.74 0 3.383-.263 4.84-.742l1.36 4.265h13.76v-8.91h3c7.245 0 11.54-3.69 11.54-9.877 0-6.89-4.17-10.05-13.04-10.05"/></g></svg>