<svg width="196" height="49" viewBox="0 0 196 49" xmlns="http://www.w3.org/2000/svg" xmlns:xlink="http://www.w3.org/1999/xlink"><title>play logo</title><defs><path id="a" d="M0 47.568h195.56V0H0z"/></defs><g transform="translate(0 .97)" fill="none" fill-rule="evenodd"><path d="M62.65 47.568h-9.83c-1.306 0-2.362-1.052-2.362-2.35V0H62.65v47.568z" fill="#FFF"/><mask id="b" fill="#fff"><use xlink:href="#a"/></mask><path fill="#73BA70" mask="url(#b)" d="M62.65 47.568h22.917v-11.77H62.65"/><path d="M21.078 0h-8.823v11.1h8.15c5.146 0 7.044 3.415 7.044 7.195 0 4.208-1.9 7.38-7.05 7.38h-8.15v11.1h8.82c12.68 0 18.75-8.478 18.75-18.54C39.82 8.66 33.76 0 21.07 0" fill="#EC6153" mask="url(#b)"/><path d="M12.254 0H2.336C1.046 0 0 1.04 0 2.326v45.242h12.254V0zm170.688 0c-1.143 0-2.204.592-2.802 1.564l-9.64 15.694-.005-.01-6.975 11.436c.596 1.048.916 2.232.916 3.44v15.444h12.193v-15.44c0-1.308.36-2.59 1.06-3.7L195.56 0h-12.618z" fill="#FFF" mask="url(#b)"/><path d="M163.52 28.684l6.975-11.434.006.01-9.58-15.69c-.59-.975-1.65-1.57-2.8-1.57h-12.55l17.81 28.43.15.254z" fill="#FFDC18" mask="url(#b)"/><path d="M62.65 47.568h-9.83c-1.306 0-2.362-1.052-2.362-2.35V0H62.65v47.568z" fill="#36383A" mask="url(#b)"/><path fill="#44F282" mask="url(#b)" d="M62.65 47.568h22.917v-11.77H62.65"/><path d="M21.078 0h-8.823v11.1h8.15c5.146 0 7.044 3.415 7.044 7.195 0 4.208-1.9 7.38-7.05 7.38h-8.15v11.1h8.82c12.68 0 18.75-8.478 18.75-18.54C39.82 8.66 33.76 0 21.07 0" fill="#F96050" mask="url(#b)"/><path d="M12.254 0H2.336C1.046 0 0 1.04 0 2.326v45.242h12.254V0zm114.672 0l-5.932 15.652 5.194 13.926h-10.452l-4.605 12.197c.4-.707 1.15-1.16 1.98-1.16h15.68c.94 0 1.79.58 2.12 1.458l2.08 5.495h13.36L126.93 0z" fill="#36383A" mask="url(#b)"/><path d="M125.432 0h-10.52l-19.36 47.568h13.378l1.008-2.72 1.052-2.775 4.726-12.495h.02l2.523-6.724 8.22-21.75-10.75 28.474 5.253-13.926 5.493-14.548.44-1.104h-1.495" fill="#00ACEF" mask="url(#b)"/><path d="M181.1 0l-10.6 17.258-.004-.01-6.976 11.436c.597 1.048.915 2.232.915 3.44v15.444h12.193V31.19c0-.694.197-1.376.568-1.967L195.562 0h-14.46z" fill="#36383A" mask="url(#b)"/><path d="M163.52 28.684l6.975-11.434.006.01L159.97 0h-14.4l17.81 28.43c.052.084.1.17.147.254z" fill="#FFDE1A" mask="url(#b)"/></g></svg>