<svg xmlns="http://www.w3.org/2000/svg" width="128" height="56" viewBox="0 0 128 56"><path fill="#0095DF" fill-rule="evenodd" d="M88.826 43.854c-8.71-.038-13.306-5.913-13.306-14.64V.382h8.942v8.806h5.375v7.862h-5.375v12.233c0 4.84 2.238 6.654 6.705 6.387 2.375 4.742 5.73 7.265 5.73 7.265-4.08 1.14-8.07.92-8.07.92zm-32.23.65c-4.053 0-7.498-1.344-10.134-4.023v14.98h-8.985V26.41c0-9.92 7.365-18.027 17.904-18.027 10.48 0 17.84 8.108 17.84 18.027 0 9.986-7.43 18.096-16.62 18.096zm71.285-.737h-8.44v-3.62c-2.634 2.88-6.42 4.356-10.605 4.356-9.185 0-16.69-8.043-16.69-17.96 0-9.987 7.368-18.164 17.905-18.164 10.472 0 17.837 8.17 17.837 18.16v17.22zM35.5 26.51c0 10.43-8.003 18.218-17.785 18.218C7.935 44.728 0 36.94 0 26.508 0 16.08 7.934 8.153 17.715 8.153c9.782 0 17.784 7.926 17.784 18.357zm-9.098.066c0-6.028-3.9-10.228-8.687-10.228-4.788 0-8.686 4.2-8.686 10.228 0 5.893 3.89 9.957 8.68 9.957s8.69-4.063 8.69-9.957zm83.64-9.888c-4.93 0-8.917 4.222-8.917 9.92 0 5.496 3.987 9.72 8.918 9.72 4.933 0 8.92-4.358 8.92-9.72 0-5.498-3.987-9.92-8.92-9.92zm-54.66 0c-4.932 0-8.92 4.356-8.92 9.72 0 5.494 3.988 9.92 8.92 9.92s8.918-4.29 8.918-9.92c0-5.563-3.986-9.72-8.92-9.72z"/></svg>