<svg width="128" height="128" viewBox="0 0 128 128" xmlns="http://www.w3.org/2000/svg" xmlns:xlink="http://www.w3.org/1999/xlink"><defs><path id="a" d="M0 127.922h108.627V0H0z"/></defs><g transform="translate(9)" fill="none" fill-rule="evenodd"><path d="M43.58 41.148c.01-.446-.213-.738.093-1.157.06-.14.463-.19.698.02.19.27.45.52.58.74.33.07.62-.26.91-.32.33-.32.97-.35 1.39-.25 1.1.26 2.1.8 2.78 1.59-.96-.33-1.39-.37-2.33-.43l-.74-.04-3.38-.03c-.2.02-1.26.07-1.26.07-1.78-.12-3.97.14-5.33-1.12l-.22.2c.04.73.75 1.21 1.36 1.53.14.26.65.26.88.51 1.43.42 3.09.49 4.44.46 0 0 .66.07.91.12.5.23 1.41.07 1.96.2 1.14 0 2.11.31 3.21.44l.07.03c-.58.17-1.45.04-2 .14-1.17.25-2.33-.2-3.23-.74 0 0-.57-.14-.78-.01-.02.13-.14.28-.12.4.1.48.35.76.65 1.05 0 .39.58.45.74.67.46.16.78.61 1.36.51.52.39 1.13.2 1.71.29.55.26 1.33.29 2.01.33.13.09.62.09.84.16v.06c.32.13.91-.09 1.01.36.32.54-.26 1.08-.55 1.47-.97.35-1.93 0-2.75.61-.67.29-1.19.76-1.77 1.22-.65.63.46.54.62.93-.65.27-1.42.54-2.07.98-.68.74-1.55 1.28-1.65 2.39.07.14.34.27.47.35l20.76.01c-.03-.11-.06-.22-.09-.32.39.07.65.19 1.03.19.04-.19.35-.31.23-.54l.07-1.49.06-.07c-.06-.63-.16-1.36-.35-2-.1-.67-.39-1.08-.49-1.72.4.29.94.1 1.27.32.42-.18.19-.7.35-1.1 0-.1-.18-.1-.06-.23-.03-1.24-.42-2.48-.84-3.6-.17-.37-.58-.6-.61-.98l.68-.16c.02-.18-.13-.38 0-.54-.17-.32-.24-.77-.36-1.05-.06-.6-.42-1.05-.51-1.62-.49-.41-.68-1.28-1.36-1.53l.16-.13c.78-.22 1.1-.79 1.58-1.3.49-.77 1.07-1.85.55-2.68-.13.16-.52.26-.52.26-1.26.51-3.2.54-4.45-.03-4.11-1.13-8.31-3.38-12.9-2.74-1.74.44-3.43.92-4.62 2.24-.32.57-1.16.63-1.61.95-.46.36-.91.86-1.23 1.46-.65 1.63.06 3.45 1.23 4.6.05.12.27.13.33.23 0 0 1.22.25 1.27-.01-.01.04-.01.07-.01.1l.01-.1zm33.59 34.215c.246.464.48.937.782 1.344.235.32.553.352.782.76.156 0 .615.2.58-.153.643-.413.643-1.12 1.068-1.753.094-.5.384-.95.453-1.49.033.26.257.48.19.67.067 1.63.458 2.77.587 4.41.223 1.66.575 2.78.905 4.34.384 1.53 1 2.71 1.682 3.98.54.96 1.25 1.76 1.8 2.72.22.07.42.55.71.32-.17-2.61.29-4.69.35-7.34.19.74.45 1.57.61 2.34.13.35-.1.9.2 1.18.19 1.31.58 2.55.77 3.8.46 2.23 1.52 4.05 2.65 5.9.3.2.49.54.75.8.09.54.68.67.87 1.18 1.36 1.15 2.78 2.49 4.23 3.41.55.16.84.64 1.36.74-.2-.35-.04-.73-.43-.92-.06-.61-.77-.92-.77-1.62-.26 0-.14-.35-.26-.45-.07-.25-.39-.29-.29-.61-.3-.63-.72-1.18-.68-1.92-.2-.28-.45-.66-.39-.98l-.16-.19c-.37-1.27-.59-2.77-.72-4.01h-.07c-.04-1.63-.23-3.25-.43-4.76.03-.03.03 0 .07.04 1.19 2.07 2.04 4.46 4.23 5.77.26.16.46.35.65.51.1.16.39.1.36.35h.19c1.94 1.25 4.4 1.47 6.21 2.97.26 0 .22.31.51.19-.78-2.61-2.94-4.31-4.43-6.34-.19-.48-.52-.9-.78-1.34-.52-.96-.71-1.98-1.16-2.99-.19-.2.23-.62-.19-.62-.07-.41-.17-.95-.39-1.37-.1-.82-.43-1.88-.48-2.67h.05c-.02-.89-.26-1.43-.31-2.35.22-.13-.17-.32.05-.38.72.86 1.24 1.95 2.27 2.42 1.3 1.21 3.07 1.69 4.72 2.26 1-.16 1.8.48 2.71.2-.13-.28-.45-.54-.81-.64-.42-.67-1.32-.86-1.65-1.62-1.14-1.28-1.72-2.97-2.1-4.66-.27-.52-.23-1.22-.52-1.7-.1-.6-.26-1.21-.39-1.91-.13 0-.1-.16-.1-.26-.26-1.44-.62-2.74-.75-4.24l-.12-.1c0-1.27-.3-2.64-.36-3.92l.1-.1c1.03.05 2.29.13 3.29-.35.43-.2.97-.52.97-1.03-.52-.06-1.26-.09-1.58-.51-.65-.42-1.23-1.14-1.52-1.85-.29-1.75-1.14-3.22-1.36-4.91-.19-.05.03-.38-.23-.41-.33-1.72-1.04-3.63-1.13-5.45-.07-.35-.14-.96-.17-1.4.71-.23 1.55-.28 2.1-.8.1-.15 0-.34-.09-.47-.59-.09-1.01-.44-1.43-.83-.42-.51-.87-1.37-1-1.98-.72-.79-.94-1.94-1.27-2.96-.2-.54-.36-1.05-.61-1.56-.1-.86-.72-1.43-.81-2.29-.1-.22-.42-.32-.35-.64-.95-2.32-2.3-4.43-4.28-5.93-.51-.76-1.67-1.09-2.32-1.72-.62-.41-1.42-.51-2.16-.67-1.19-.13-2.36.2-3.37.7-.39.04-.65.32-.98.48 0 .22-.22.2-.35.26-1.42 1.46-2.39 3.57-3.33 5.45l-.67 2.23c-.22.19-.03.54-.29.73-.48 1.75-1 3.32-1.75 5.04-.32.39-.38.8-.55 1.21-.22.26-.35.61-.51.9-.07.52-.29.87-.58 1.21-.42.99-1.01 1.88-1.56 2.78-.29.19-.29.83-.68 1.02-.16.07-.02.42-.29.38-.74 1.41-1.82 2.61-3 3.73l7.11-.03-.04 20.57m-47.71 2.4c-.23.02-.37.05-.4.08-.52.25-.26-.41-.65-.44-.52-1.18-1.33-2.27-1.71-3.54-.33 2.97-.04 5.87-.39 8.8-.26.26-.04.58-.19.8l-.04.35c-.16.8-.52 1.67-.87 2.4-.07.29-.36.58-.36.96-.43.89-.88 1.53-1.23 2.49h-.1l-1.13 1.59c.1.22-.19.19-.26.35-.42.87-.84 1.53-1.49 2.2-.07-.8 0-1.82-.1-2.62.1-1.27 0-2.9-.23-4.3-.33 2.01-1.07 3.86-1.49 5.86-.22.55-.55 1.09-.62 1.73-.42.73-.61 1.49-1.16 2.13v.23c-.36.16-.42.73-.71.95-.36-.03-.07.51-.46.51-.93 1.66-2.94 2.61-4.55 3.61-.85.73-1.85 1.34-2.33 2.42-.29.04-.16-.35-.29-.5.09-.96.16-2.1.84-2.81.93-1.46 1.93-3.25 2.51-4.97-.12-.28.23-.38.23-.7.35-.6.32-1.43.49-2.17.35-.86.22-1.91.54-2.87.19-1.49.45-2.87.67-4.46h-.16c-.48 1.31-1.29 2.84-1.97 4.05-.97.83-1.91 2.11-3.14 2.49-1.1.61-2.29.8-3.07 1.82-.52.25-.68.73-1.06 1.08v.13c-.26.13-.39.54-.72.57-.16-1.37.38-2.48.74-3.6.2-.19.27-.51.39-.77.23-.38.64-.63.81-1.08.32.03.15-.32.44-.35.9-1.56 1.62-3.41 2.1-5.2.49-1.15.65-2.74.9-4.01.23-.47.17-.96.42-1.49.1-.61.29-1.09.22-1.73-.19.1-.07.29-.1.45-.45.19-.32.67-.67.96-.1.47-.42.73-.62 1.15-.55.89-1.52 1.37-2.46 1.91-1 .16-1.81.6-2.91.64V83c-.81-.06-1.52.45-2.14.83H.8c.293-1.31 1.1-2.39 2.07-3.32.74-.83 1.26-1.91 1.64-2.99.29-1.09.81-2.17.88-3.23.29-.924.444-2.065.87-2.96.283-.76.36-1.76.673-2.52-.1-.58.42-.99.35-1.59.29-.67.36-1.5.56-2.23-.65.25-1.17.73-1.95.9-.75-.06-1.75.13-2.33-.31-.14-1.09 1.32-1.48 1.55-2.3.77-1.53 1.61-3.02 1.96-4.75.71-1.75.9-3.75 1.52-5.64l-.03-.2c.22-.12-.13-.31.16-.5.09-.635.32-1.56.58-2.326-.33-.1-.56.22-.84.25-.65 0-1.27.51-1.95.17-.29-.2-.22-.52-.07-.77.26-.04-.07-.45.32-.41.84-1.63 1.68-3.23 2.04-5.11 1.06-3.25 1.48-6.7 3.68-9.5 0-.39.45-.51.52-.89 1.09-1.62 2.45-2.93 4.1-3.96 1.38-1.08 3.75-.98 5.39-.22.23.19.65.125.78.47.35.17.67.39 1.03.61.35.64 1.16 1.15 1.45 1.916.38.19.19.503.45.76 1.56 2.83 2.24 5.9 3.76 8.76.67 1.06.84 2.33 1.68 3.32.1.35.32.73.52.99.16.13.06.48.38.48.062.41.46.83.582 1.24.254.29.282.64.61.8 0 .443.42.54.55.923.71.888 1.65 2.068 2.39 2.9.55.73 1.033 1.18 1.68 1.724.17.2.37.374.58.54l-9.69.06.08 22.97" fill="#000"/><path d="M77.204 57.126c.145-.25.27-.502.363-.76.554-.866.16-1.627-.095-2.49.034-.06.067-.134.128-.095.257.38.743.61.777 1.12.162-.23.647-.38.714-.73.04-.16.26-.42.13-.54.14-.42.36-.8.29-1.34.04-.5-.48-1.02-.19-1.46.55.35.55 1.18.74 1.75.88-.63 1.23-1.68 1.62-2.64.26-.94-.22-1.55-.32-2.42.61.06.74.92.87 1.48.68-.92 1.07-2.14.94-3.32.03-.51-.35-.92-.26-1.33.59.09.59.77.72 1.27h.13c.1-.06.13-.22.17-.38.48-.92.8-2.07.61-3.25.07-.51-.94-.83-.32-1.18l.1.16c.39.07.32.42.56.61.06.26.13.67.39.67.65-1.05 1.16-2.51.71-3.76-.03-.31-.51-.63-.29-.98.39.07.65.51.74.93.13.19.03.57.23.63.8-1.15.55-2.87.39-4.27-.23-.29-.68-.54-.59-1.02.2-.29.36-.67.85-.51.52.19 1.2.45 1.52.96.16-.04.19.13.23.22 1.43 1.59 1.52 3.86 2.49 5.61l.13-1.37c.23-.38.13-1.05.51-1.34l.07.04c-.19 1.14-.26 2.74.33 3.79.26.41.29 1.02.74 1.27.19.45.52.93 1 1.15.04-.7-.22-1.49.1-2.09.1-.04.2 0 .26.09-.26.45.1.86.1 1.35.29.73.43 1.62 1.04 2.14.23.66.84.93 1.2 1.49.32 0 .29.45.62.38.39.39.87.58 1.32.8.94.38 1.88.48 2.85.09-.22-.22-.68-.15-.87-.5-.81-.15-1.14-1.04-1.56-1.62-.45-1.05-.94-2.17-1.35-3.19 0-.47-.42-.66-.39-1.14-.23-.41-.43-1.02-.58-1.56-.26-.36-.16-.96-.53-1.28.1-.51-.48-.67-.38-1.18-.27-.06-.2-.48-.36-.6-.48-1.09-1.12-1.95-1.74-2.91-.28.04-.22-.32-.35-.48-.49-.31-.61-.85-1.16-1.14-1.69-1.37-3.33-2.8-5.79-2.65-.71.25-1.42.45-2.04.77-.87.57-1.78 1.37-2.22 2.26-.23.32-.29.76-.55 1.05.06.52-.55.64-.48 1.18-.33.42-.46.9-.58 1.44-.94 1.97-1.4 4.33-2.33 6.28l-.1.03c-.06.57-.32.86-.58 1.33-.39 1.03-.71 2.11-1.26 3.01-.36.41-.55 1.08-.87 1.53-.49.8-.94 1.72-1.46 2.52-.94 1.31-1.96 2.6-3 3.9l6.01-.01v2.33m-39.18-2.38c-1.13-1.03-2.1-2.15-3.13-3.32l-.03-.19c-1.49-1.84-2.88-3.92-3.91-6.18-.33-.76-.9-1.27-1.01-2.16-.74-1.09-.87-2.39-1.71-3.44 0-.64-.38-1.15-.58-1.66-.05-.26-.15-.54-.25-.7-1.45-3.31-3.26-7.64-7.65-7.72-.71.04-1.39.35-2.01.52-.74.42-1.35.76-1.96 1.25-.03.25-.32.29-.35.44-.81.61-1.26 1.44-1.84 2.21-.2.16-.32.54-.48.71-.71 1.37-1.36 2.87-1.85 4.33-.16.23-.28.61-.39.93-.71 1.78-.87 3.89-1.74 5.64-.25 1.3-.93 2.51-1.61 3.57-.23.02-.13.21-.17.37.62.1 1.33-.12 1.88-.38 1.52-.9 2.95-2.59 3.95-4.05.29-1.18.97-2.14.77-3.6 0-.12-.03-.38.2-.35.29.39.17.99.33 1.44.1-.16.32-.26.36-.48.78-.77 1.13-1.98.97-3.22.03-.26-.49-.57 0-.7.38.6.45 1.36.48 2.17.17-.13.45-.04.62-.23.2-.02 0-.29.2-.22-.03-.36.3-.45.3-.76 0-1.92.28-3.7 1.16-5.27.26-.22.42-.47.68-.76.39-.54.91-.1 1.36.03.19.26-.03.55.19.77-.32.61-.84.96-1.19 1.51-.09 1.05-.03 2.23.62 2.9.29-.13.29-.48.39-.77.26-.16.36-.54.71-.41v.16c-.45.35-.45 1.06-.65 1.53.26.09-.19.19.08.32 0 .57.26 1.15.39 1.72.26.45.57.9.83 1.34.27-.35.27-.73.75-.89l.13.25c-.42.07.04.45-.29.51-.38 1.03-.13 2.11.39 2.93.3.32.52.86.97.86.13-.47.17-1.21.75-1.3.06.25-.13.73-.23 1.08.06.93.26 1.85.78 2.52.07.51.55.8.97 1.02.04-.35.35-.64.35-.99.17-.04.27-.32.42-.06-.09.35-.29.66-.26 1.08.04 0 .07 0 .1.06l-.1.09c0 .77.55 1.47.97 2.05.16.7.98 1.08 1.46 1.53l.32-.77.19.07c-.09.92-.06 1.78.42 2.49.07.03.16-.04.19.03-.04.09-.04.16-.02.19h7.87m16-22.14c.23.41.87.06 1.13.45 1.23.29 2.3.92 3.53 1.21.42.38.94.29 1.49.51 1.56.38 3.59 1.31 5.24.33-.06 1.05-.88 2.13-1.87 2.54-1.4.35-2.88 0-4.27-.39l-.55-.03c.64.42 1.54.58 2.42.83 1.03.23 2.16.45 2.94 1.15.55.99 1.03 2.11 1.16 3.22-.58.1-1.19-.07-1.65.16-.02.22.338.16.36.35.55.51 1.17 1.21 1.46 1.95.36.99.71 1.97.59 3.15.16.1-.03.23 0 .32-.78 0-1.33-.38-1.88-.73-.94.09-.71-.89-1.23-1.35-.52-.86-1.13-1.62-1.91-2.19.07.73.97 1.21 1.2 1.94.228.48.848.86.78 1.53-.65 0-1-.47-1.542-.57-.39-.22-.81-.57-1.24-.38.52.8 1.58.96 2 1.92.13.25.36.42.39.77.39.54.33 1.34.52 2.01L63 52.51c-.39-.037-.55-.29-.91-.42-.35-.28-.58-.35-.87-.66l-.27-.07c-.61-.7-1.45-1.18-2.06-1.94-.45-.26-.59-.74-1.03-.93-.1.28.33.38.26.7.13.32.55.64.52 1.06.26.3.29.72.26 1.14.16.92 0 2.14-.78 2.68-.16.35-.45.57-.8.85l-1.11-.04-.03-.63h.04c.06-1.25-.65-2.17-.71-3.47-.16-.26-.35 0-.48.06-.39.88-1.1 1.75-1.84 2.29-.42.1-.74.48-1.13.44-.87.55-1.78.49-2.88.64-.13-.346.2-.69.32-1.02.3-.85.84-1.56 1.56-2.164v-.1c-.59-.09-1.17.16-1.82-.03-.51-.06-1.06-.15-1.42-.51.16-.03.13-.19.19-.32.91-.38 1.65-.86 2.76-.83.61-.22 1.36-.41 1.68-1.08.066-.35.19-.79-.03-1.15.22.03.354.35.644.35.19.54.58 1.08.58 1.62.38-.32.23-1.09.16-1.53-.05-.064-.09-.13-.15-.13v-.07c.65.23 1.13.996 1.39 1.73.29-.55-.166-1.15-.45-1.63.45-.154.77.385 1.195.57.19.1.22.61.42.486.1-.265-.12-.61-.26-.83-.38-.48-.99-.83-1.64-.96-1.01-.29-2.2-.73-3.5-.83-1.77-.255-3.62-.22-5.17-.77-.55-.31-.78-.76-1.13-1.14 2.82 1.65 6.01.13 8.98.6.75-.09 1.56.51 2.27.51 0 .19.22.07.35.1v.12c.56.13 1.37.42 1.78.99.16.07.16-.09.19-.18v-.17c-1.26-.92-2.03-1.53-3.39-2.14-.09-.28-.51-.19-.7-.41-.78-.48-1.91-.98-2.63-1.66-.48-.25-1.03-.64-1.51-1.02-.78-.57-1.88-1.15-2.98-1.18-.48-.02-.78.16-1.16.36-.65.02-.72-1.02-1.49-.77l-.03-.01c-.39.16-.88.07-1.08.58-.13.06-.13.19-.13.19-.13.28-.13.73 0 1.02-.38-.06-.42-.54-.77-.7-.26-.64-.78-1.18-.59-2.04-.16-.32.1-.733 0-1.02.16-.31.25-.73.55-1.08.01-.04.16-.16.16-.16.77-.54 1.91-.73 2.32-1.76.13-.18.29-.3.42-.38.32-.31.84-.46 1.23-.7 1.59-.64 3.49-.86 5.27-.7.84.03 1.71.417 2.65.45" fill="#FFCE65"/><path d="M46.662 33.533c-.063.408-.514.253-.704.54-.392.32-.783.7-.844 1.152.384.507 1.156.854 1.837 1.053 1.2-.22 2.46-.77 3.66-1.147.26.06.65-.13.87-.19.62-.12 1.3-.18 1.98-.06V35c-1.29-.067-2.23.67-3.39.984 1.62.16 2.98.8 4.01 1.946-.03.1-.13.034-.2.066-.41-.507-1.12-.76-1.71-1.023.16.517-.03 1.09-.48 1.443l-.65.22c2.36 1.432 3.46 4.275 6.37 5.167.77.287 1.65.287 2.42.155.17-.155-.1-.254-.13-.413-.35-.034-.23-.413-.58-.447-.38-.452-.9-.573-1.32-.958-.12-.134-.45-.134-.48-.386.23 0 .56.197.87.197.42.13.78.54 1.17.54.42.32 1.13.48 1.58.61.58.2 1.1.07 1.62-.18-.22-.26-.22-.57-.49-.77-.52-.79-1.32-1.33-2.13-1.78-.29-.22-.71-.35-1.16-.35-.06-.06-.03-.15-.03-.25.94.26 2.08.39 2.98.39.35-.25-.1-.41-.13-.7-.33 0-.33-.48-.64-.42-.45-.6-1.48-.85-2.2-1.21v-.13c1.14-.03 1.65.58 2.56 1.09.72.41.94 1.51 1.95 1.72.41.35.8.48 1.06.99l-1.23-.79c-.29-.13-.62-.44-.97-.19-.26.04-.52.23-.84.1l-.06.1c.42.38.91.79 1.36 1.37.06.48.58.83.39 1.37-.29.13-.58.06-.87.13.88.66 2.1 1.37 2.62 2.39.1.1.13.32.23.48-1.29-1.4-2.88-2.56-4.79-3.03-.1.38.55.64.33 1.05-1.68.48-3.36-.38-4.79-1.14 0-.16-.19-.23-.29-.26-2.39-1.24-3.07-4.68-6.4-4.37-.19-.06-.32-.25-.55-.2-.55-.3-.84-.85-1.15-1.36.06-.03.06-.13 0-.16-.26 0-.62-.09-.88-.22-.32.06.06.38-.03.61.13.31-.07.67.16.85 1.2 0 2.13.7 2.94 1.34-.26-.06-.67-.35-1.04-.51-.31.06-.41-.31-.77-.22-.36-.19-.84-.28-1.16-.16-.23-.12-.75.29-.72-.2.13-.54.1-1.04-.09-1.58-.29-.57-1-1.18-1.71-1.15l-.52.29c-.14-.03-.07-.16-.07-.26.32-.6 1.36-.06 1.26-.92.36-.35.68-.63 1.08-.92.06 0 .18.04.22-.06.23-.06.49-.19.75-.28" fill="#000"/><path d="M19.797 33.82c-.865.826-1.218 2.324-.865 3.537.256.706.485 1.31 1.16 1.692-.027.64-.06 1.01-.093 1.69h-.07c-.04.57-.06 1.11-.26 1.68-.1 1.08-.55 2.2-.91 3.28-.27.92-.43 1.63-.78 2.55-.43 1.21-.71 2.32-1.04 3.54-.17-.04-.2.16-.13.25l.06.1c.16-.17.29-.39.29-.64h.07c.22-.74.48-1.41.71-2.24.23-.09.03-.41.19-.54.15-.6.42-.96.54-1.56-.29-.19.15-.19.1-.38.25-.93.74-1.94.94-3.03.15-.35.12-.67.35-.96.06-.48.16-1.06.23-1.57.22.5.64 1.02 1.03 1.53.09.57-.26 1.08-.29 1.66H21c-.35.8-.39 1.91-.907 2.61-.16 1.34-.74 2.68-1 3.99-.267.25-.267.83-.356 1.18-.22.38-.19 1.11-.458 1.4-.16.5-.29 1.2-.67 1.62-.1.22-.14.64-.39.76-.33.5-.65.86-.94 1.34-.04.06-.16 0-.23.06-.13.61-.77.8-1 1.28-.68-1.82-.55-4.08-.75-5.97.23-.8.49-1.69.78-2.43.25-.79.45-1.63.7-2.49.26-.64.55-1.33.64-1.97.59-1.63 1-3.42 1.59-5.04.26-.52 0-1.06.29-1.63-.32-1.28.13-2.58.16-3.92.19-.35.3-.93.68-1.05-.09-.35.23-.35.42-.55.16-.08.16.08.19.15m69.15 2.46c.48 1.36.77 2.74 1.71 3.95.19.41.52.92.62 1.43.12.48.15.83.38 1.31.03.38.29.73.26 1.18.19.63.55 1.18.52 1.94.35.79.38 1.72.74 2.51.1.19.25.51.13.73.03.07.29.23.1.32.19.22.22.54.26.96.48.51.31 1.25.58 1.92.25.98.45 1.97.77 2.86-.12-1.85-.74-3.89-1.13-5.64-.29-.54-.1-1.25-.52-1.82.03-.8-.39-1.6-.65-2.36-.07-.16.19-.26-.07-.32-.32-.87-.46-1.79-.65-2.63-.26-.28-.19-.79-.36-1.08h.1c.09.86.81 1.53 1.16 2.2.59.7 1.48.96 1.48 1.98.17.7.46 1.53.52 2.23.23.03 0 .29.19.38.68 2.17.87 4.79 1.65 6.8.09.22-.2.22 0 .35.12 1.47 0 2.71-.4 4.05l-.26.35c-.91-.93-1.87-1.92-2.52-3.1-.65-1.18-.78-2.77-1.16-4.17-.36-1.88-.91-3.8-1.3-5.72-.36-.44-.39-1.18-.58-1.62.13-.7-.52-1.09-.46-1.82-.51-1.73-1.13-3.48-1.71-5.2-.29-.19-.26-.54-.42-.83-.03-.96-.22-1.67-.29-2.65-.12-.26-.29-.48-.44-.74.16-.07.33.1.52.15.65.52.87 1.41 1.2 2.05m-39.41.67c0 .09-.04.22-.14.22l-.34-.02c.04-.04 0-.07-.03-.07-.16-.1-.13.12-.19.18 0 .32.35.38.51.57.42.12.65-.23.97-.32l.1-.8c.42.07.97-.03 1.13.38-.09.35-.07.82-.51.96-.72.35-1.79.31-2.46-.14-.36-.32-.78-.5-.75-1.04.45-.23 1.29-.48 1.72.06" fill="#FFCE65"/><path d="M44.725 37.095c.095.233-.163.34-.13.573-.457.204-1.416-.34-1.74.445-.04-.07-.07-.036-.102-.036.033-.44.324-.574.486-.913.22-.176.38-.41.7-.474.32.03.61.065.77.405" fill="#000"/><path d="M88.464 40.773c.123.287.29.86.39 1.306.19.83.77 1.37.705 2.29.32.54.16.86.45 1.4.35 1.21.71 2.32.9 3.57.23.54.33 1.21.52 1.78.39 2.01.77 3.57 1.16 5.54-.03.7-.29 1.25-.26 2.01-.23.22-.14.32-.23.6-.32.35-.13.99-.61 1.15-1.3-1.57-2.53-3.03-2.72-5.23-.14-.29-.27-.8-.2-1.06-.32-.38-.16-.86-.38-1.31-.04-.99-.55-1.76-.72-2.71-.2-.29-.04-.97-.29-1.16-.29-2.1-1.1-3.88-1.56-5.99.32-.64.81-1.25.84-2.01.19.03.25.38.29.64.16.83.58 1.43.64 2.33.29.86.55 1.78.72 2.64.32.67.22 1.34.58 2.04.09.7.23 1.46.45 2.16.29 1.02.52 2.14.84 3.06.26.32 0 1.05.35 1.15-.16-2.07-1-4.4-1.22-6.18-.24-.57-.4-1.08-.53-1.82-.26-.57-.29-1.18-.55-1.75.07-.52-.19-.89-.26-1.41 0-.69-.58-1.11-.43-1.94-.16-.26-.19-.54-.29-.86.06-.39-.46-.71-.03-.96.03-.25.42-.32.32-.67.29-.07.13-.38.35-.54.26.6.64 1.17.71 1.88M15.3 47.3c.13.16-.227.288-.16.508-.17.52-.26 1.156-.486 1.662-.385 1.08-.64 2.39-1.066 3.5-.07.894-.62 1.59-.69 2.486-.388.257-.227.864-.58 1.183-.62 2.26-1.94 4.46-3.4 6.28-.1.15-.417.28-.456.5-.867.74-2.297 2.2-3.816 1.4l-.025-.03c.13-.32.64-.17.68-.61.33-.09.33-.45.52-.63.55-.36.59-1.15.97-1.57C8.22 58.14 8.9 54.37 10 50.42c.35-.45.156-1.286.68-1.466.84-.834 1.643-1.31 2.19-2.338.55-.86 1.006-1.85 1.36-2.797-.52 2.1-1.16 4.14-1.84 6.24-.77 2.58-1.45 4.91-2.55 7.33-.26.77-.35 1.54-.715 2.23.775-1.06 1.193-2.63 1.714-3.96.45-1.6 1.13-3.15 1.52-4.75.35-.39.22-1.03.58-1.44.19-.96.54-1.66.74-2.62.45-1.15.78-2.42 1.03-3.6.49-.61 1.43-.87 1.45-1.83-.02-.76 1-.41 1.36-.9-.68 2.2-1.62 4.5-2.23 6.73m24.34-5.64c.51 0 1.22.09 1.77.09 3.01-.22 5.56.07 8.54.52.52.22 1.06.06 1.51.61.36.25.71.63 1.19.73-1.13-.06-2-.6-3.26-.58-.87-.38-2.1-.19-3.07-.44-1.23-.16-3.07.03-4.34-.26-.39.06-1.01.09-1.35-.05-1.07 0-2.11-.4-2.95-1.1.67.26 1.22.28 1.94.47m46.97 7.52c-.07.45.32.89.2 1.31.29.19.19.67.22.95h.07c.28.64.26 1.15.48 1.75-.09.26.09.23.09.39.03.67.49 1.11.35 1.88l.16.22c.03 1.08.7 2.33.19 3.34.09 1.01-.29 2.04-.55 2.97-.16.09-.06.6-.45.35-.1-.22-.36-.29-.42-.57-1.2-.93-1.73-2.56-2.34-3.89-.06-.36-.04-.74-.19-1.09-.42-1.79-.59-3.64-1.07-5.43.03-.73-.49-1.4-.29-2.11.55-.69.52-1.69.81-2.45.22.35.32 1.22.55 1.69.15.63.54 1.31.45 2.14.25.38.29.89.42 1.33.1.74.45 1.44.51 2.14.2.25.04.7.26.93 0 .61.26.74.32 1.31.13.79.16 1.11.42 1.85l.07-.07c-.26-1.31-.39-2.53-.61-3.83-.46-1.27-.65-2.61-1.04-3.95 0-.89-.49-1.79-.49-2.62-.35-.38-.06-1.05-.39-1.47.36-.8.62-1.62.85-2.35.39 1.78.87 3.63 1.39 5.25m-64.3-3.61c.1 1.37-.23 2.17-.45 3.41-.23.77-.43 1.46-.56 2.3l-.1.09c.22.1-.16.13.03.29-.29.06.09.35-.2.48-.2 1.05-.59 2.29-.88 3.34.32-.04.2-.51.45-.67.52-1.56.72-3.28 1.39-4.78.17-.71.43-1.5.55-2.21.19-.47.23-1.08.32-1.56.13.03.3.32.49.35.15.1.41.1.48.26 0 .1.07.52-.07.71.1.28-.16.5-.06.92h-.06c-.14.61-.29 1.34-.49 1.92.19.63-.4 1.08-.23 1.65-.17.18-.1.35-.17.54-.06.85-.51 1.27-.51 2.23-.09.12-.26.44-.29.63-.09.67-.26 1.27-.65 1.88-.25.7-.64 1.43-1 2.1-.56.45-.61 1.15-1.2 1.37-.45-.32-.09-1.03-.45-1.35-.16-1.66-.45-3.9.1-5.39-.03-.1-.03-.19.1-.26.03-1.02.32-1.79.64-2.78-.1-.35.29-.48.16-.8.26-.51.36-1.18.59-1.75.65-1.51.74-3.13 1.38-4.6.17.64.42 1.06.65 1.62m74.15 1.89c.39.35 1.21.58 1.1 1.14.22.41.19.89.48 1.27-.09.32.17.52.23.92.33 1.28.51 2.71 1 3.89.23 1.67.78 2.71 1.07 4.34l.25.26c-.1-.86-.32-1.85-.52-2.68-.23-.77-.42-1.31-.48-2.17-.62-1.63-.65-3.25-1.07-4.72-.1-.45-.23-.83-.39-1.31.26.03.72.07 1.03.17.17.82.39 1.58.53 2.35-.04.41.1.69.19 1.08.26 1.34.64 2.35.83 3.67.14.13.17.32.14.51.36 1.37.84 2.67 1.26 3.98.32.22.12.77.45 1.02.16.19.13.69.49.82-.03.22.32.36.32.54.42.412.84.76 1.46.892-.42.38-.94.5-1.52.48-.49.09-1.07-.07-1.33-.38-.48.12-.41-.42-.77-.49-.32-.344-.9-.76-1.07-1.36-.26-.13-.29-.39-.52-.57.06-.45-.48-.54-.39-1.02-.23-.39-.49-.61-.52-1.05-.26-.13-.1-.49-.26-.67-.39-1.6-.93-3.07-1.33-4.59.07-.38-.09-.71-.19-1-.19-.31-.25-.66-.39-1.05-.12-.54-.16-1.08-.38-1.6.13-.25-.16-.47-.07-.79-.42-1.18-.57-2.04-.93-3.28.38.44.94.82 1.29 1.37" fill="#FFCE65"/><path d="M61.827 50.5c-.938-.733-1.39-1.914-2.363-2.553-.06-.132-.29-.32-.122-.446 1.06.77 1.932 1.78 2.485 3" fill="#000"/><path d="M64.38 48.9c.424.8.647 1.69.904 2.55-.094.067-.033.287.034.353.066.667-.128 1.213-.067 1.886-.06.12-.29.05-.19.25-.58-.13-1.17-.61-1.62-.93.62-1.63.04-3.57-.87-4.95.68.13 1.65 0 1.81.83m-38.88.96c0 .92-.46 2.04-.39 3.09-.22.41-.22.79-.32 1.24l-.13.09.13.06c-.42 1.2-.38 2.45-.81 3.76.1.28-.35.73-.09.96.23-.8.52-1.54.68-2.33-.06-.58.43-.84.29-1.45.39-1.12.52-2.04.78-3.25.35-.54.17-1.5.49-2.08 0 .89.58 1.27.65 2.07-.39 1.18-.27 2.36-.81 3.41-.15.45.07.74-.15 1.18-.1.95-.23 1.82-.61 2.58.16.81-.61 1.35-.78 2.04-.25.45-.55.83-.94 1.16-.35-.55-.68-1.28-.77-2.05-.13-.16-.1-.55-.29-.71 0-.67-.03-1.21-.13-1.78.2-1.82.85-3.96 1.1-5.74.19-1.28.69-2.53.91-3.71.39.52.81 1.03 1.23 1.41" fill="#FFCE65"/><path d="M57.444 49.765c.287 1.018.9 2.357.13 3.283.3-1.245-.823-2.203-1.048-3.442l.222-.193.696.352" fill="#000"/><path d="M82.514 50.05c.42 2.678 1.135 4.943 1.453 7.588.352.8.258 1.658.52 2.358.124.865.124 1.79-.168 2.55 0 .773-.38 1.533-.75 2.14-.22-.06-.22-.354-.46-.48-.61-.986-1.32-2.012-1.64-3.158-.49-2.677-1.01-4.56-1.49-7.173.41-.352.81-.7 1.06-1.08.29.02.22.44.29.6.32 1.91.86 3.543 1.29 5.328.03 1.08.61 1.913.54 3.064.03 0 .06.028.1.028.06-1.592-.43-2.804-.65-4.27-.1-.385-.1-.77-.13-1.18-.43-.924-.35-2.104-.74-2.93-.04-.324-.04-.672-.14-.992-.48-.352.36-.606.23-1.057.29-.408.25-1.053.64-1.335M64 54.8c-.307-.815-.85-1.498-1.564-1.818-.06-.093-.257.034-.224-.165-.446-.054-.68-.44-1.032-.6.162.19.095.544.39.6.197.67.55 1.217.806 1.83-.034.252-.007.197-.007.197l-.33-.05c-.39-1.018-.86-1.59-1.38-2.61-.52-.447-.65-1.34-1.39-1.626.29 1.345.22 2.875-.71 3.796-.14.22-.16.315-.32.44l-.04.073-2.56-.072c.29-1.306-.36-1.846-.56-3.024-.16 1.12-.67 2.05-.96 3.06-.36-.06.03-.21-.14-.34.29-.74.51-1.62.68-2.49-.49.42-.78 1.09-1.46 1.31-.61.48-1.32.61-2.07.99-1.08-.02-.88.41-1.43.51-.33.03 0 0 0 0h-.62s-.04.06 0 0l.37-.25h-.33c-.22-.13-.75.16-.71-.26.13-.6.49-1.39.74-1.94-.26.13-.55.17-.62.42-.07 0-.1 0-.13-.03-.56.29-1.33.42-1.91.64.97-.6 2.26-1.05 3.1-1.88l-1.07-.03-.1.07c-.2-.26-.49.04-.69-.06-.39.29-.84.19-1.23.54-1.07.26-1.75 1.28-2.33 2.14.52.35 1.13.74 1.74.57.4.04.93-.26 1.15.06l16.9.01m-36.43-2.04c.32.32 1.04.7.84 1.15 0 1.21-.16 2.84-.33 3.92-.35.12.03.38-.06.54-.13 1.14-.42 2.04-.52 3.19l.06-.04c.07-.86.49-1.65.55-2.45l.16-.1c-.22-1.15.56-1.69.43-2.81.16-.68.32-1.51.32-2.2l.36 1.15.61.8c.03.88-.19 1.74-.33 2.61-.07 0-.07.06-.1.06.17.44-.22.9-.16 1.28h.03c-.39.18.29.45-.17.6l.1.19c-.13.5-.07 1.08-.36 1.49-.06.28-.03.86-.19 1.15-.26.25-.22.76-.68.89-.09.32-.36.61-.58.96-.13-.03-.26.29-.39.06-.22-.19-.29-.7-.61-.9-.45-.47-.3-1.21-.65-1.72-.62-2.42.35-5.07.77-7.4h.03c.12-.86.26-1.94.55-2.77.13.06.41.06.28.32M79.87 56c-.1.385.358.51.066.865.29 1.057.548 2.523.71 3.636.033.26.194.64.227.93.158.86.158 2.04.158 2.97-.25.61-.38 1.37-.77 1.97-.96-.69-1.74-1.65-2.29-2.67-.15-.9-.22-1.85-.58-2.68.07-.73-.48-1.24-.44-2.04.45-.5.9-.95 1.07-1.65.29.29.26.9.36 1.27.29 1.45.49 2.91.91 4.38h.07c.09-.86-.32-1.6-.19-2.46-.2-1.34-.56-2.81-.58-4.05.2-.32.61-.61.74-.92.07-.06.23-.16.13-.28.08-.03.14-.16.24-.03-.03.28.19.54.23.79m-65.94-.21c.22 1.21.13 2.49.55 3.73-.29.45-.22 1.09-.52 1.53-.13 1.05-.26 2.33-.68 3.25l-.07.52c-.02-.03-.06.03-.09.07-.26 1.49-.71 2.97-1.07 4.43-.15.41-.13.9-.41 1.25-.2 1.02-.46 2.01-.82 2.96-.02.74-.35 1.38-.65 1.99-.09.32-.22.64-.39.89.07.19-.12.57-.25.77-.78 1.76-1.9 3.83-4.01 4.37-1.03.67-2.39.44-3.45.93.71-1.24 2.04-2.2 2.62-3.5.03-.29.32-.38.26-.7.26-.13.06-.51.28-.7.43-1.5 1.04-2.87 1.3-4.4.06-.22.18-.54.18-.86h.07c.16-.54.13-1.02.49-1.47-.13-.34.16-.76.19-1.18.29-.86.52-1.69.68-2.64.29-.93.55-1.85.78-2.78.32-.76.9-1.4 1.39-2.1.97-1.59 1.94-3.19 2.58-4.94-.12.9-.54 1.98-.7 2.93l-.17.1c.19.39-.26.99-.22 1.53l-.07.07c.19.22-.19.44-.13.8-.32.83-.42 1.75-.8 2.58-.32 1.53-.81 3.09-1.13 4.6-.39.26-.06 1.05-.42 1.28.1.41-.22.76-.16 1.21-.29.29-.25.76-.45 1.15-.04.1.03.29-.13.29-.23.74-.42 1.5-.52 2.29.2-.08.22-.5.45-.66.26-.89.49-1.79.71-2.65.45-.83.55-1.72.94-2.48-.06-.38.1-.99.2-1.38.55-1.21.55-2.1 1-3.34-.03-.64.42-1.48.38-2.11.29-.22.26-.85.39-1.24.33-.5.2-1.24.55-1.66.26-1.18.49-2.26.81-3.28.3-.13.1-.51.33-.7-.15-.19.14-.51.2-.67" fill="#FFCE65"/><path d="M16.96 59.456c-.196.58-.068 1.433-.453 1.946-.04.127.094.32-.096.353.06.44-.1 1.08-.16 1.492-.06.192 0 .48-.19.64 0 .38 0 .865-.16 1.212.29.16-.19.32-.03.51-.16 1.56-.58 3.18-.9 4.43.22.6-.2 1.24-.39 1.85.1.13.1.28.1.44-.25.26-.13.54-.29.87.1.92-.42 1.58-.45 2.48-.45.22.11.7-.32.98-.06.5-.1 1.04-.39 1.4.23.41-.29.8-.19 1.34-.13.96-.48 1.69-.61 2.71-.13.12-.03.32-.07.47.16.1.16-.19.26-.22.1-.8.39-1.31.55-2.17.24-.83.39-1.49.65-2.29-.12-.42.24-.8.2-1.34.26-.74.3-1.7.59-2.3-.32-.19.32-.29 0-.48.16-.38.19-.7.32-1.09-.2-.57.33-1.02.33-1.62.06-.1.06-.2 0-.29.19-.38.04-1.09.42-1.44-.03-.48.17-1.02.17-1.5.36-.87.19-1.82.62-2.59-.23-.13.06-.26.04-.45-.07-.58.23-.96.23-1.57.16-1.09.38-2.1.68-3.15.09-.61.35-1.6.41-2.15.23.67 0 1.63.46 2.24-.03.54.38.89.38 1.4-.12.64-.19 1.5-.38 2.08-.19 1.52-.71 2.8-.81 4.23-.26 1.05-.48 2.42-.7 3.47-.16.35.09.8-.26 1.02-.1 2.39-.81 4.47-1.19 6.92-.36 1.89-1.14 4.02-1.72 5.64-.33.61-.55 1.32-.98 1.85 0 .39-.28.64-.36.96-.31.42-.7 1-.99 1.4-.39.67-1.04 1.34-1.71 1.82-.68.74-1.87 1.02-2.75 1.44-.26.19-.52.28-.77.51-.51.16-.84.54-1.23.89 0-1.21 1.23-2.2 1.87-3.32.3-.31.46-.67.74-1.09.24-.28.39-.56.5-.92.35-.66.55-1.47.9-2.2-.06-.45.26-.93.29-1.4h.07c.12-.62.23-1.18.52-1.73.1-1.21.54-2.13.64-3.41 0-.17 0-.45.16-.62.16-1.49.56-2.96 1-4.43.33-1.44.62-2.83 1.07-4.24.23-.22 0-.6.2-.83.32-.73.44-1.59.61-2.39.07-.16.16-.48.26-.66.07-.77.52-1.45.52-2.24.2-.77.35-1.41.61-2.11-.09-.48.14-.83.27-1.15l-.07-.19c.26-.45.07-1.16.52-1.44l.03-.22c.68-.8 1.26-1.5 1.91-2.27.03.93-.27 1.63-.39 2.43m81.31 1.46c.1.58.29 1.15.26 1.73.23.47.23 1.01.33 1.49.19.9.42 1.79.55 2.68l.06.1c-.13.1.03.16.09.29.59 3.34 1.1 6.31 1.94 9.5-.16-3.18-1.39-6.31-1.65-9.53-.22-.58-.13-1.31-.38-1.85-.06-1.34-.45-2.61-.59-4.02l-.06-.19h.04l-.07-.28c.13.25.43.54.49.86.29.29.55.67.68 1.12.58.55 1.1 1.05 1.04 2.01.31 3.13 1 6.06 1.58 9.02.1.58.29 1.09.35 1.6.16.35.23.92.46 1.27-.17.35.31.57.16.96.36.25.1.89.49 1.21l-.09.15c.58.9.84 2.17 1.72 2.91.26.06.17.35.39.41.16.27.46.27.52.54-.29.03-.44-.06-.74-.09-1.29-.18-2.55-.95-3.65-1.62-.16-.41-.57-.41-.9-.74-1.19-1.38-2.64-2.77-2.78-4.85-.58-3.16-.84-5.62-1.23-8.77-.32-1.82-.32-3.82-.74-5.71.33.03-.03-.39.29-.41.26-.51.3-1.15.59-1.51.1-.44.16-1.02.13-1.47.48.89.65 2.04.78 3.19" fill="#FFCE65"/><path d="M95.9 60.828c.255 1.113.222 2.49.45 3.63l.062.04c.195 4.53 1.1 9.085 1.648 13.39-.256.19.068.445.068.665.196 1.598.357 2.744.613 4.243-.1.258.2.64.2.987l.75 3.002c.68 2.072 1.39 4.084 3.04 5.682.74.947 1.97 1.78 2.49 2.958-1.36-.854-2.91-1.146-4.33-1.91-.55-.447-1.33-.606-1.68-1.246-.26.12-.19-.19-.31-.26-.33-.17-.46-.46-.81-.61-.67-.77-1.35-1.38-1.68-2.27-1.68-2.52-2.61-5.3-2.78-8.49-.32-.82-.19-1.69-.39-2.49-.25-1.31-.13-2.65-.48-3.79-.19-1.09-.03-2.4-.29-3.49-.23-.19-.03-.44-.2-.67-.38-2.91-.64-5.97-1.06-8.8.29-.22.51.41.84.19.33-.8.94-1.49 1.07-2.36.33.7.16 1.5.43 2.26.1 1.15.26 2.2.48 3.35.35 1.59.42 3.41.68 5.06.04.86.29 1.5.26 2.39.13.1.1.32.07.42l.13 1.11c-.06.12-.1.22.06.28.2 2.24.36 4.5.62 6.73.02.7.06 1.62.29 2.29l.03.93h.17c.13-.58-.13-.77-.1-1.31.29-.06-.06-.2 0-.35-.09-2.3-.26-4.43-.45-6.82l-.13-.19c-.32-2.48-.51-4.88-.74-7.39l-.1-.17c0-.22.14-.54.04-.7 0-.17-.19-.35-.07-.58-.45-1.66-.29-3.8-.71-5.42.03-.38-.03-.85-.13-1.18.07-.48-.19-1.21-.22-1.66.7.86 1.42 1.69 2.23 2.48" fill="#FFCE65"/><path d="M90.273 60.51l.09.126.167 1.72c.222.258-.034.478.19.73h-.028l.163 1.026h-.07c.07.607.036 1.31.327 1.818l-.068.066c.49 3.44.715 7.17 1.296 10.392.066.418 0 .826.134 1.246-.034.032-.134.088-.034.16l.056.06c.296 2.876.65 5.835.915 8.573h-.03c.16 1.283.23 2.684.52 3.99.07.22-.19.417.1.577.07 1.747.39 3.284.78 4.97.2.732.65 1.372.81 2.177.3.06.08.38.2.54.42.28.29.8.61 1.05 0 .36.46.54.4.87-1.87-.92-3.07-2.58-4.47-3.95.07-.22-.16-.28-.25-.38-.19-.38-.58-.57-.61-1.05-.19-.28-.42-.51-.55-.86 0-.15-.36-.34-.16-.47-.25-.12-.25-.48-.44-.64.13-.64-.58-.83-.45-1.46-.22-.42-.26-.92-.45-1.4-.06-1.44-.78-2.39-.75-3.89-.44-2.78-1.25-5.45-1.54-8.26.16-2.17-.42-3.86-.55-5.93.2-.1-.03-.19-.03-.29-.16-.95-.02-2.1-.35-2.96l.1-.1c-.26-1.53-.13-3.31-.55-4.91-.1-1.08-.13-1.79-.25-2.87.36.92 1.32 1.69 2.2 2.29.1.07.26 0 .39.04-.04-.19.2-.28.32-.38.46 1.41.36 3.29.65 4.66.1.16.13.51.13.8h-.07c.1 1.67.42 3.67.65 5.49l-.1.06c.32 2.15.48 4.19.72 6.22.26.71.1 1.66.29 2.4.23 2.04.45 3.86.87 5.71 0-1.11-.19-1.94-.19-3.03-.07-1.05-.33-1.97-.29-2.96-.42-4.02-1.03-8-1.26-12.02-.32-.67-.1-1.65-.39-2.42-.17-1.97-.26-4.01-.68-5.99.39-1.01.56-1.88.65-2.99.29.44.94.92.97 1.53M20.88 64.2c-.1.41-.125.923-.29 1.28-.26 2.39-.775 4.78-1.13 7.104-.23.13-.1.44-.136.61-.123.38-.09.92-.19 1.24-.42.6-.353 1.498-.51 2.16-.032 1.278-.49 2.62-.65 3.836-.032 1.11-.39 1.845-.49 2.963h-.033c-.06.926-.45 1.72-.51 2.71-.19.32-.06.76-.22 1.18l.1.065c.35-.45.33-1.18.49-1.783.29-1.28.65-2.46.91-3.804-.26-.28.15-.44.06-.76l.13-.96.1-.06.16-1.56.17-.19c-.06-1.11.55-2 .55-3.25.13-.13.1-.32.1-.48.07.04.1-.02.13-.05-.06-.99.46-2.17.46-3.16.26-1.43.62-2.58.77-3.95.23-.26.07-.7.2-1.02.32-1.72.48-3.57.91-5.42.23 0 .06.29.16.39.32 1.11 1.46 2.03.97 3.47-.26 1.09-.26 2.27-.61 3.29.07 1.09-.25 1.66-.35 2.65-.26 2.97-1.04 5.65-1.3 8.64l-.09.1c-.2 2.17-.58 4.17-.87 6.38-.16 1.02-.58 1.85-.62 2.9-.31.54-.22 1.31-.45 1.91-.03.13-.22.07-.16.2.09.32-.16.71-.23 1.06-.55 1.37-.9 2.87-1.74 4.17-.26.23-.29.61-.58.83-.26.64-.71 1.21-1.3 1.72.1.35-.32.19-.32.54-1.29 1.09-2.62 1.88-4.14 2.56-.09.29-.46.32-.58.38.32-1.18 1.3-2.07 1.88-3.05.48-.87.87-1.79 1.1-2.78.49-1.05.72-2.29.87-3.44.17-.93.36-1.92.62-2.88-.09-.73.49-1.33.23-1.88.27-.96.43-2.04.63-3.1-.27-.22.19-.31.09-.54 0-1.01.46-1.87.48-2.95.36-.38.14-1.08.36-1.56.62-1.66.48-3.73 1.07-5.45 0-.83.26-1.6.29-2.39.1-.04.1-.13.03-.2.29-.73.26-1.69.65-2.39-.13-.95.38-1.69.41-2.64.2-.48.2-1.09.24-1.63.19-.06.12-.45.19-.67.16-.55.22-1.31.45-1.82-.03-1.31 1.52-1.85 1.91-3 .2 0 .2-.22.23-.35-.07 1.69-.29 3.31-.52 4.87" fill="#FFCE65"/><path fill="#000" d="M27.465 62.258l.063-.663-.027.663"/><path d="M25.103 61.755c.23 1.272-.29 2.198 0 3.41-.42.193.135.607-.195.86-.095.705-.062 1.658-.284 2.483.09.132 0 .386-.067.546.034 1.405-.514 2.97-.514 4.403l-.072.032c-.06 1.55-.31 2.87-.54 4.39-.19 2.13-.42 4.33-.55 6.43-.02.07-.06.2-.09.23 0 .03-.09.28.1.22.08-1.34.56-2.55.59-4.02l.13-.16c-.22-.07.13-.16.07-.29-.13-.77.26-1.28.14-2.04.28-1.12.22-2.21.35-3.48.1-.26.06-.51.2-.8.12-1.09.12-2.3.45-3.42-.22-.19.17-.31.04-.54.33-1.94.46-3.89.78-5.8.52.5.59 1.3 1.29 1.68-.16 2.77-.77 5.57-.8 8.45-.16.03-.06.32-.25.41.03 2.77-.13 5.36-.45 8-.13.48-.2 1.18-.39 1.72-.62 2.17-1.84 4.01-2.97 5.8.06.31-.42.45-.45.73l-.23.35c-.13-3.41-.42-7.17-.03-10.52-.03-2.36.46-4.72.78-6.99.29-.51.26-1.24.33-1.91.29-1.63.62-3.06.77-4.72.2-.41.1-.76.24-1.21-.03-.8.32-1.37.26-2.17.09-.06.06-.22.13-.38.61-.48.67-1.37 1.31-1.76m57.44 2.77c.94 5.8 1.1 11.69 2.27 17.79h.07c.07-.51-.09-1.25-.13-1.69h-.03c-.15-1.95-.39-3.48-.58-5.39-.29-1.15-.22-2.42-.35-3.51-.32-1.09-.09-2.58-.32-3.79-.09-.16.04-.36-.12-.55-.16-.35.16-.86-.13-1.21.23-.09-.06-.13-.03-.29v-.67c.17.13.29.39.56.23.68-.45.71-1.12 1.16-1.79.32 3.28.81 6.41.93 9.57l.1.12c.07 2.46.55 4.85.36 7.52.1.13-.36.35-.03.42l-.13.06c.29.19 0 .51.13.76-.07.57-.04 1.11-.17 1.68.07.19.07.45 0 .61-.16.8-.06 1.68-.3 2.45-.03.5.29 1.05.07 1.56-.33-.36-.72-.81-.97-1.31-.39-.41-.52-.86-.78-1.37-.48-.93-.65-2.11-1.01-3.1-.42-1.08-.29-2.16-.71-3.19-.36-.99-.21-2.14-.59-3.26-.03-.7-.2-1.31-.3-2.01-.31-2.58-.52-4.72-.74-7.28.38-.35.22-.79.55-1.14-.08-.26.06-.61.09-.93.09-.58.16-1.4.09-1.85.27.61.65 1.12 1.04 1.5m-53.5 1.08l.16.13-.03 2.55h-.03c-.1 1.88-.32 3.7-.39 5.64.58-1.98.58-4.28.87-6.29-.1-.06.04-.29.04-.38.39.67.42 1.41 1.04 1.88l.64-.35c.26 1.15-.35 1.81-.32 2.93-.26 1.3-.77 2.77-1.29 3.96l-.8 1.26c-.29-.1-.41-.45-.48-.7-.16-.1-.28-.42-.38-.64-.25-.19-.16-.64-.46-.77-.57-1.7-.8-3.23-.7-5.11.19-1.12.26-2.23.39-3.41.64-.39 1.25-.99 1.61-1.56.03.29.2.64.1.9m51.01 1.61c.3 1.76.68 3.8.1 5.81-.03.66-.23 1.2-.36 1.81-.16.3-.35.67-.43.99-.28.16-.35.45-.45.74-.94-1.05-1.78-2.26-1.97-3.79 0-.96-.31-1.88-.2-2.8-.39-.86.58-1.47.61-2.3.23-.12.19-.57.35-.82-.1-.38.36-.64.19-1.02.26.17 0 .39.17.61.22.77.16 1.79.42 2.59.22 1.68.32 3.35.67 5.03.1-.99-.03-1.91-.07-2.81h-.02c-.1-1.85-.39-3.57-.66-5.38l-.16-.35c.58.57 1.04 1.23 1.78 1.72" fill="#FFCE65"/><path fill="#000" d="M101.554 76.773h.036l.028.132h-.028m-16.685 5.41h.035l.032.706h-.032m6.56 5.61h.036l.097 1.43h-.074"/><path d="M53.292 114.36s22.95-7.328 23.85-23.906l.072-35.658H29.37l.067 35.658c.905 16.58 23.855 23.906 23.855 23.906" fill="#5CBFEC"/><path d="M56.292 113.214l-20.777-26.91h6.445l19.035 24.657s-1.665 1-4.703 2.26m9.092-4.92L48.416 86.31h6.233l14.72 18.843s-1.3 1.306-3.99 3.14m7.53-6.96L61.31 86.31h6.45l7.94 10.28s-.552 1.79-2.793 4.74" fill="#FFF"/><mask id="b" fill="#fff"><use xlink:href="#a"/></mask><path fill="#000" mask="url(#b)" d="M29.433 85.898h47.842v-11.15H29.433"/><path d="M33.286 83.848v-.423c.384-.02.608-.05.675-.083.04-.012.08-.033.1-.066.04-.045.05-.105.06-.188.03-.188.05-.606.06-1.245.01-.303.02-.838.02-1.588 0-.683 0-1.277-.02-1.796 0-.52-.03-.84-.06-.93-.01-.06-.03-.09-.06-.11-.02-.03-.08-.05-.16-.06-.21-.04-.42-.06-.59-.07v-.43c.7.01 1.17.02 1.44.02.35 0 .69-.01 1.05-.03l.44.98.36.75 1.61 3.26c.34-.65.6-1.16.77-1.52l.67-1.38c.37-.77.6-1.25.69-1.42.08-.18.17-.41.28-.68.44.02.72.03.85.03l1.5-.04v.43h-.07c-.34-.01-.55.03-.65.12-.09.07-.13.23-.13.46 0 .27 0 .48-.01.62l-.02 1.4v2.5c.03.42.05.68.08.77.01.04.03.08.05.11.02.02.07.04.12.05.05.02.26.04.63.06v.42l-1.61-.03-1.57.04v-.42c.42-.02.65-.04.71-.08.06-.03.1-.11.13-.24.02-.12.04-.53.04-1.24v-3.6l-1.17 2.33-.56 1.16c-.15.3-.37.74-.63 1.32-.17.35-.29.64-.39.85h-.35c-.12-.27-.3-.66-.52-1.14-.39-.83-.68-1.45-.89-1.86l-1.32-2.67v2.44c0 .41 0 .9.01 1.46.01.56.02.88.03.95.02.08.04.13.07.16.03.03.08.06.15.08.07.02.28.04.62.06v.42c-.38-.02-.76-.04-1.15-.04-.52 0-.93.02-1.23.04m11.27-1.44c.23 0 .41.08.57.22.15.15.23.34.23.56 0 .22-.08.4-.23.55-.16.16-.33.23-.56.23-.21 0-.4-.07-.56-.23-.15-.15-.23-.33-.23-.55 0-.21.07-.4.23-.55.16-.15.34-.22.56-.22m7.93.49l.13.11-.23.51c-.42.22-.79.37-1.12.45-.34.08-.76.12-1.26.12-.71 0-1.34-.11-1.88-.33-.44-.18-.8-.42-1.11-.72-.29-.29-.52-.61-.68-.96-.25-.52-.37-1.09-.37-1.69 0-1.05.36-1.9 1.09-2.57.72-.66 1.75-.99 3.07-.99.46 0 .87.03 1.23.1s.78.19 1.26.36l.03.06c-.06.16-.1.36-.12.59-.06.38-.09.72-.1 1.04H52c-.012-.37-.022-.66-.056-.88-.222-.23-.48-.4-.76-.52-.28-.11-.635-.17-1.07-.17-.793 0-1.426.25-1.9.74-.48.5-.714 1.18-.714 2.07 0 .53.08 1 .24 1.4.164.4.377.73.643.98.256.27.525.45.8.58.36.16.807.23 1.333.23.34 0 .664-.04.972-.12.305-.07.64-.2 1.003-.38m1.61-.5c.23 0 .41.07.56.22.16.15.23.34.23.55 0 .22-.07.41-.23.56-.15.16-.34.23-.56.23-.22 0-.4-.07-.55-.23-.16-.15-.23-.33-.23-.55 0-.21.08-.4.23-.55.16-.14.35-.22.57-.22m6.2-.99h-.4c-.01-.41-.04-.66-.09-.75-.02-.04-.08-.07-.18-.09-.25-.05-.65-.07-1.18-.07-.08 0-.21.01-.41.01V81c0 .78.01 1.34.03 1.65.03.31.05.5.08.55.03.04.08.07.13.09.07.02.33.05.8.08v.4l-1.98-.03c-.28 0-.74.01-1.35.03v-.41c.39-.01.61-.02.67-.05.04-.01.06-.02.08-.05.02-.03.05-.12.07-.25.01-.077.02-.32.04-.71.02-.41.03-.7.03-.88V79.4c0-.05-.02-.51-.05-1.39 0-.25-.03-.434-.05-.54-.01-.04-.02-.06-.05-.09-.02-.02-.08-.03-.14-.05-.07-.02-.26-.034-.59-.055v-.42l1.8.03 2.42-.04c.34 0 .67.014.97.05l.05.064c-.04.2-.06.44-.09.73s-.04.55-.05.76h-.41c0-.08-.01-.25-.03-.53 0-.15-.01-.24-.03-.26-.01-.03-.02-.05-.04-.06-.06-.04-.2-.08-.42-.11-.21-.05-.47-.07-.77-.07-.05 0-.21.01-.48.02-.25.01-.43.01-.53.02-.03.33-.05.93-.05 1.79v.7c.44.02.73.03.88.03.44 0 .72-.03.83-.07.05-.01.08-.05.11-.11.02-.09.05-.27.06-.57h.44c-.02.56-.03 1.29-.03 2.16m2.13.98c.23 0 .41.08.57.22.15.16.23.35.23.56 0 .22-.08.41-.23.56-.15.15-.33.23-.56.23-.21 0-.4-.08-.56-.23-.15-.15-.23-.34-.23-.55 0-.21.08-.4.23-.56.16-.14.34-.22.56-.22m8.38.43l.13.11-.23.5c-.42.22-.8.36-1.13.45-.34.08-.76.12-1.26.12-.71 0-1.34-.12-1.89-.34-.43-.18-.8-.42-1.1-.71-.29-.29-.53-.62-.69-.97-.24-.52-.36-1.08-.36-1.7 0-1.04.37-1.89 1.09-2.56.73-.66 1.75-.99 3.07-.99.46 0 .86.04 1.23.09.36.07.78.19 1.26.36l.02.06c-.05.16-.09.36-.13.59-.04.38-.07.73-.09 1.04h-.39c-.01-.36-.03-.65-.05-.87-.22-.23-.48-.41-.76-.52-.28-.12-.64-.18-1.08-.18-.78 0-1.42.25-1.9.74-.47.49-.71 1.18-.71 2.06 0 .54.07 1.01.23 1.4.17.4.38.73.64.99.27.26.54.45.81.57.36.16.81.24 1.34.24.34 0 .67-.03.97-.11.31-.07.64-.21 1-.39m1.68-.43c.22 0 .41.08.56.22.16.15.23.34.23.55 0 .22-.07.4-.23.55-.16.15-.34.23-.56.23-.21 0-.41-.08-.56-.23-.16-.15-.24-.34-.24-.55 0-.22.08-.41.24-.56.16-.14.34-.22.56-.22M55 56.51c0 .74.04 1.47.028 2.22.82.03 1.59.11 2.28.32l.64 2.15c-.8-.36-1.98-.64-2.842-.193-.067.05-.02.15-.044.22 1.22.02 2.37.12 3.404.47l.89 3.04c-1.164-.51-2.985-.96-4.19-.21-.08.03-.04.12-.05.19 1.454.01 2.86.18 4.124.6l1.098 3.81c-1.444-.64-3.6-1.17-5.15-.33l-.01.47 5.615.09.04-.1.08-9.16h.225v.18c.455-.06 1.05-.25 1.47.03.26.16.425.49.795.54.415.03.824-.02 1.2-.09-.58.26-1.16.76-1.91.54-.29-.14-.56-.31-.936-.31-.19.04-.4.05-.583.14l.03 1.12c.364.15.81.23 1.24.32 1.588.32 3.4.11 4.73-.48-1.272 1.82-1.06 4.49.286 6.23l.31.11-1.86 2.67c.96.2 2.336.77 3.19.01.576-.48 1.42-.72 2.24-.53l-.236.4c-.995-.12-1.76.34-2.46.86-1.42.32-2.54-.44-3.923-.44-1.34-.17-2.2.52-3.37.66-1.46.15-2.53-.8-4.02-.49-1.01.23-1.92.8-3.09.55-.92-.31-1.81-.77-2.95-.62-.91.12-1.71.39-2.6.53-1.78.09-3.29-1.18-5.04-.39-.91.53-2.35.59-3.41.26-.78-.15-1.43-.71-2.3-.52l-1.83.42-.2-.4 2.32-.52c.75.03 1.3.42 1.99.56.62.16 1.3.3 2.02.19-.87-.83-1.78-1.67-2.69-2.51l-5.4-2.29.08-.19 5.45 2.01c.48.06.99.12 1.47.19l-.09-.11-2.89-2.52c.72-1.96 3.32-3.77 5.9-4.22.59-.11 1.27-.15 1.91-.11l.66.49c.05-.52.02-1.06.02-1.57-.31-.14-.77-.22-1.11-.08-.29.12-.55.34-.92.27-.56-.03-.95-.38-1.41-.58.41.04 1.07.17 1.5-.04.32-.33.71-.65 1.29-.57l.67.12.03-.21.22-.01.08 3.37v.03c.5.06.95.22 1.37.44l.55 1.83c-.55-.3-1.18-.49-1.86-.54v.33c.74.07 1.41.26 1.98.59l.67 2.35c-.75-.43-1.61-.66-2.58-.73l.02 1.76.13.02 7.25.1c.05-.14.03-.3.03-.45-1.51-.91-3.7-.34-5.14.29l1.43-3.81c1.18-.33 2.45-.52 3.79-.57l.02-.278c-1.2-.65-2.9-.22-4.02.27l1.12-3.04c.92-.27 1.91-.4 2.94-.45.01-.07.07-.14.01-.21-.84-.5-2.03-.18-2.84.16l.77-2.12c.65-.19 1.35-.32 2.11-.32.02-.36.06-.75.02-1.13-.33-.16-.84-.17-1.17-.02-.23.12-.46.27-.8.25-.57-.03-.98-.39-1.47-.61.45.08.99.15 1.45.03.33-.29.69-.68 1.25-.64.27.02.49.13.76.14l.04-.26h.2" fill="#FFCE65" mask="url(#b)"/><path d="M61.39 67.48l-.273-5.12c1.647 1.5 2.023 3.58.273 5.12m-14.818-4.403c-.793.044-1.508.232-2.11.618l-.382 1.83c.726-.376 1.537-.662 2.463-.696v.34c-.966.04-1.826.33-2.535.8l-.48 2.31c.887-.46 1.864-.81 2.976-.87v1.73l-3.374-.04-1.98-.27c.188-2.11 1.14-3.99 2.987-5.58.693-.53 1.45-.95 2.445-.9v.71m20.754 5.24l-1.656 1.1-4.4-.06-.048-1.76c1.368-.6 3.362-.48 4.663.14l1.436.58" fill="#5CBFEC" mask="url(#b)"/><path d="M71.394 71.53l-.27.527c-1.015-.265-1.517.684-2.36.866-2.018.37-3.693-1.03-5.648-.215-.97.398-2.357.627-3.412.242-.61-.164-1.163-.418-1.872-.376-1.33.265-2.71 1.063-4.156.452-.726-.265-1.42-.606-2.328-.452-1.224.156-2.32.717-3.658.463-.96-.16-1.78-.578-2.82-.594-.968.11-1.682.695-2.7.722-1.417.083-2.58-.37-3.764-.77l-2.19.472-.234-.534 2.29-.495c.782.02 1.362.408 2.06.567.9.247 2.096.303 2.928-.094.91-.51 2.32-.52 3.312-.14.76.22 1.566.51 2.447.32 1.34-.27 2.97-.83 4.31-.2.8.48 2.07.52 2.95.13.74-.25 1.59-.54 2.47-.32 1 .21 2.02.75 3.16.4.93-.24 1.75-.7 2.89-.57 1.34.01 2.42.72 3.8.47.54-.23.96-.74 1.61-.83.34-.08.82-.11 1.17 0" fill="#FFCE65" mask="url(#b)"/><path d="M29.863 55.28l.066 35.173c.83 15.34 21.38 22.72 23.36 23.395 1.98-.676 22.53-8.066 23.36-23.42l.07-35.147H29.86zm23.428 59.59l-.15-.05c-.23-.073-23.28-7.62-24.19-24.34l-.07-36.17h48.83l-.07 36.144c-.9 16.744-23.96 24.293-24.19 24.367l-.15.05z" fill="#000" mask="url(#b)"/><path d="M23.27 100.2c.727.623 1.653 1.153 2.542 1.588.537.638 1.37.826 2.05 1.29 1.206.66 2.462 1.262 3.786 1.785.983.21 1.91.665 2.87.99.526.112.995.386 1.51.386.882.46 2.02.44 2.886.89 1.977.43 4.05 1.01 6.138 1.19 2.636.36 5.1.3 7.685.62 1.44-.07 2.983.11 4.49-.1 1 .02 2.022-.26 2.977-.27.307-.1.587.13.888-.06 1.954-.27 3.697-.46 5.585-.8 2.514-.47 5.05-1.14 7.495-1.78 1.096-.51 2.257-.76 3.308-1.38.39-.09.765-.23 1.14-.35.322-.11.624-.23.95-.34 1.72-.94 3.585-1.7 5.188-2.87.402-.03.68-.35 1.056-.46 1.273-.35 3.027-.94 4.138-.12.72.14.676.82.788 1.4-.134.85-.302 1.74-.28 2.67-.09.41-.044.84-.044 1.28l.067.96c.323.04-.022.23.033.39.156.71.246 1.4.547 2.08.168.27-.11.55.285.69 2.117-.49 4.284.11 6.328.54.653.32 1.352.6 2.005.83.31-.02.4.25.68.3 2.11.96 4.1 2.27 5.79 3.88.26.36.79.8.61 1.21-1.24-.6-2.54-.7-3.91-.96-.46.21-.89-.07-1.32.26-.77-.1-1.48.36-2.23.43-.79.29-1.54.68-2.28 1.08v.12c1.21 1.17 2.54 2.15 3.55 3.48.39.46.9.94 1.28 1.45v.09c.69.64 1.04 1.51 1.68 2.16h.07c-.02.24.26.38.36.59.48.8 1 1.63 1.19 2.48-.35.13-.47-.39-.77-.49-.45-.13-.89-.6-1.3-.76-.59-.41-1.26-.71-1.85-1.12-3.72-2-8.42-2.39-12.65-1.68-2.05.22-4.22.35-6.28.32-.91-.07-1.86-.18-2.56-.78-.42-.55-.67-1.19-.83-1.8-.12-.53-.23-1.1-.42-1.61-.16-.09.07-.23-.09-.3-.48.05-.87.44-1.37.46-.6.4-1.26.49-1.95.77-1.7.57-3.35 1.01-5.1 1.51-.55-.11-.83.42-1.39.24-.35.23-.81.16-1.19.27-1.86.59-3.91.4-5.88.8-.26-.03-.46-.1-.74.02-1.82-.09-3.61.21-5.38-.07-.44-.05-.69.16-1.14-.02-.58.04-1.03-.12-1.55.07-.27-.14-.73-.07-1.08-.17-.79.11-1.61-.35-2.42-.14-.16-.21-.65-.12-.88-.23-.19-.1-.37-.04-.56-.02-1.24-.23-2.33-.28-3.54-.6-2.81-.47-5.21-1.16-7.91-1.96-.14-.18-.39.05-.47-.18-1.14-.4-2.42-.65-3.58-1.04-1.07-.36-2.17-.76-3.25-1.04-.26.84-.46 1.73-.7 2.6-.16.49.02 1.05-.34 1.49-.28.25-.39.69-.83.64-.56.44-1.45.51-2.12.47-2.54.16-4.75-.37-7.07-.57-.21.04-.52-.23-.75-.09-.37-.24-.77-.03-1.12-.17-.35-.02-.65.17-.93-.04-.54.04-1.03-.07-1.52.06-.6-.09-1.35.19-1.95.21-1.08.21-2.09.36-3.08.73-.62.03-1.14.39-1.7.54-.39.15-.65.39-1.02.45 0 .23-.18-.03-.25.14-.32.18-.69.3-1 .48-.65.32-1.16.8-1.79 1.24-.14.02-.16-.07-.23-.14 0-.57.25-1.17.65-1.65.62-1.15 1.72-2.29 2.51-3.26-.02-.23.28-.23.3-.44 1.29-1.65 2.96-3.05 4.38-4.41-.82-.92-2.19-1.03-3.22-1.5-.27-.14-.71-.07-1.02-.25-.48 0-1-.1-1.44-.06-.38-.05-.84-.05-1.23 0-.3.16-.54.14-.91.21-.7.23-1.4.48-2.04.73-.17.07-.3.12-.49.09-.05-.18.26-.44.39-.62.1-.36.6-.53.81-.8.35-.3.7-.61.95-.98.49-.18.74-.64 1.19-.84.13-.26.3-.3.53-.39.56-.32 1.08-.79 1.65-1.04.39-.02.65-.35 1.02-.41.18-.12.51-.19.72-.35.68-.48 1.53-.5 2.24-.9.49-.09.95-.21 1.44-.32.33-.18.75-.12 1.14-.16.65-.12 1.31-.12 1.98-.12.51-.23 1.16.21 1.77.05.16.2.54.09.74.11.32-.37.28-.84.56-1.28.23-1.28.7-2.5.68-3.86l-.03-.89c.14-.12-.02-.21.05-.35.37-.99.28-2.11.71-3.03.77-.58 1.89-.44 2.8-.34.63.19 1.3.47 1.91.81" fill="#000" mask="url(#b)"/><path d="M21.652 100.268c1.81.808 3.417 1.955 5.16 3.04.207-.054.258.197.442.197 1.19.72 2.586 1.18 3.82 1.885.23-.02.375.275.62.16 1.24.578 2.59.875 3.798 1.45.118-.045.3 0 .418.087.978.276 1.96.6 2.978.695.05.177.168-.02.284.09.44.142.955.186 1.346.417.68.04 1.352.19 1.932.5.403-.14.772.09 1.14.14.793 0 1.587.2 2.38.23.11.2.278-.03.39.09l1.118.16v.02c.75.06 1.446.11 2.21.19.794.09 1.7.02 2.492.04.536.02 1.302.11 1.888 0 1.323.13 2.765 0 4.138-.15.28.18.514-.13.816-.02 1.023.02 1.883-.26 2.838-.21.117-.23.397-.07.563-.17.648-.14 1.486-.11 2.09-.34.77-.05 1.495-.28 2.256-.35.09.12.16.02.23-.02 1.25-.24 2.3-.32 3.52-.58.16-.09.32-.2.5-.11.96-.51 2.12-.56 3.15-.95 1.04-.37 2.09-.8 3.16-1.1.53-.28 1.16-.44 1.7-.71 1.35-.63 2.72-1.29 3.98-2.07.21-.03.3-.26.56-.23.63-.46 1.39-.69 2.05-1.18 1.23-.51 3.09-1.33 4.28-.14.04.64 0 1.19-.03 1.86-.12.04 0 .14 0 .21-.02.18-.09.45-.07.66h-.02c-.08.43.02.98.02 1.42.04 1.24.06 2.21.53 3.28.06.25.09.51.21.81.02.3.37.51.32.88.32.41.23.98.6 1.37-.12.21.18.3.12.56.37.57.42 1.23.51 1.91-.03.07-.09.11-.11.13-.82-.98-2.26-.57-3.26-.36-3.89 1.42-7.41 3.62-11.22 5.23-1.61.82-3.33 1.19-5.05 1.76-3.47.85-7.01 1.47-10.62 1.82-4.7.32-9.36.07-14.08-.41-1.55-.14-3.01-.43-4.51-.78-.41.04-.84-.18-1.23-.24-2.14-.44-4.19-1.08-6.29-1.65-1.46-.46-2.9-.94-4.4-1.4-1.93-.55-3.79-1.13-5.68-1.9-1.13-.51-2.21-.9-3.37-1.36-1.07-.3-2.03-.94-3.16-1.13l-.05-.09c-.21.2-.3-.17-.54-.07-.88-.3-1.76-.39-2.63-.02-.19-.05-.1-.27-.08-.39.16-.69.42-1.26.63-1.92.23-.19.25-.44.34-.67 1.09-2.6 1.74-5.31 1.82-8.25.09-.3 0-.66.18-.94-.07-.32.12-.64.04-.99.21-.11.35-.7.82-.7.35-.03.79-.08 1.12.02.32-.1.56.15.84.22" fill="#FFF" mask="url(#b)"/><path d="M16.127 109.965c.073.045.095-.077.168 0-.14.27-.33.502-.376.8-.5 1.376-1.26 3.007-1.12 4.566.21.31.06.74.34 1 .44 1.77 2.53 2.52 4.21 2.74 1.58.37 3.02.71 4.6.98.23.1.51.19.74.07.53.21 1.1.37 1.56.69.17.05.26.23.47.17.27.32.67.62.63 1.08-.12.46-.67.58-1.05.73-.43.08-.68.03-1.08.15-2.61.28-5.25-.43-7.79-.66-.17 0-.49-.3-.63 0-1.23-.23-2.36-.02-3.49-.16-.55.09-.99.02-1.52.16-1.12.12-2.3.39-3.35.82-.26.19-.61-.02-.84.26-1.12.4-2.26.89-3.28 1.5-.27-.05-.38.29-.61.29.28-.88 1.14-1.48 1.67-2.31.72-.45 1.03-1.23 1.67-1.74.21-.38.7-.69.84-1.08.16-.13.32-.28.41-.41l.03.02c.13-.37.58-.46.67-.8.33-.23.56-.39.81-.67l.05-.13 1.54-1.29c.09-.21-.1-.34-.28-.43-.68-.27-1.26-.81-1.98-.99-.05-.16-.23-.07-.26-.21-.45-.04-.96-.27-1.43-.45-.37-.12-.85-.12-1.23-.3-.19.21-.3-.23-.49 0-.35-.13-.7 0-1.04-.2-.88.12-1.75.09-2.59.34l.03-.11c.76-.44 1.33-1.16 2.16-1.45.65-.43 1.39-.87 2.07-1.19 2.19-1.2 4.72-1.91 7.21-2.04.88.06 1.67.04 2.48.32m80.12.71c1.74.48 3.35 1.33 4.97 2.04 1.23.71 2.56 1.42 3.61 2.45.12.05.24.14.3.26-2.64-.56-5.5-.12-7.78 1.22-.49.09-.96.39-1.29.76v.14c.4.34.8.73 1.1 1.07 1.75 1.45 3.22 3.05 4.57 4.66.37.53.76.9 1.07 1.49.23.49.58.95.88 1.39-.3.13-.4-.32-.65-.35-2.48-1.32-5.06-2.41-7.87-2.8-2.26-.14-4.19-.14-6.36.11-.4.06-.87 0-1.28.15-.22-.07-.47.12-.75.04-.26.17-.56-.02-.84.12-1.38.02-2.96.19-4.29.07-.63-.29-1.41-.34-1.81-.99.12-.34.07-.87.56-.93 1.23-.92 3.02-.89 4.52-1.29 2.11-.27 4.16-.43 5.81-1.81.52-.73 1.38-1.24 1.52-2.13.33-.85.56-1.72.42-2.62.04-.36-.19-.75-.35-1.12-.3-.7-.47-1.43-.86-2.09 1.6-.31 3.16.08 4.77.18" fill="#FFF" mask="url(#b)"/><path d="M18.015 114.372c.833.298 1.748.528 2.632.775 1.184.464 2.49 1.13 3.747 1.582.95.37 1.883.85 2.904 1.08.118.18.426.1.565.27.16-.05.3.09.458.14-.11.38-.24.77-.39 1.16.05.45-.25.75-.28 1.24-.04.03-.02.09-.02.14-.7-.79-1.84-.97-2.77-1.34-2.31-.37-4.59-.66-6.82-1.34-.02-.2-.28-.07-.42-.16-.6-.44-1.51-.88-1.75-1.7-.11-.25-.41-.53-.23-.86.26-.3.26-.88.73-.88.16-.23.58-.07.81-.23.29.09.57.13.84.07m73.69.75c0 .48.3.87-.21 1.17-.19.32-.05.59-.3.91-.42.63-1.11 1.01-1.81 1.31-.41.37-.97.53-1.53.62-.34.12-.84.23-1.28.27-2.07.48-4.42.36-6.31 1.49-.3 0-.49.22-.72.34l-.09-.12c-.08-.57-.3-1.13-.32-1.79.65-.19 1.07-.6 1.72-.78.39-.26.89-.55 1.38-.68 1.07-.72 2.35-1.07 3.4-1.76.24-.02.42-.28.65-.32.92-.23 1.47-.85 2.45-.9.8-.32 1.66-.53 2.49-.34l.52.55" fill="#B2B2B2" mask="url(#b)"/><path fill="#FFF" mask="url(#b)" d="M91.586 116.41h.022l-.05.147h-.023"/><path d="M24.918 107.056l-.07-.012c-.047-.028-.068-.12-.056-.282 0-.16 0-.292-.012-.402-.012-.105-.067-.232-.168-.385-.055-.09-.14-.17-.235-.237-.1-.072-.195-.115-.29-.132-.128-.028-.256-.022-.396.018-.14.043-.26.11-.37.22-.11.11-.19.253-.22.43-.03.143-.02.298.03.457.05.16.12.32.2.47.08.15.18.31.29.46.11.16.22.31.32.45.2.29.34.56.44.81.09.23.11.5.05.78-.07.34-.24.63-.5.87-.27.26-.58.43-.94.53-.35.11-.69.12-1.01.06-.43-.09-.77-.22-1.01-.4-.23-.18-.4-.34-.48-.51-.08-.16-.11-.26-.11-.32.01-.05.05-.12.13-.19.07-.07.18-.2.35-.37.17-.16.27-.26.29-.29.12.02.18.07.2.15.02.08.02.19 0 .34-.09.74.16 1.17.76 1.29.2.04.4.03.59-.02.2-.06.36-.16.49-.31.13-.13.21-.29.24-.46.03-.12.03-.26-.01-.38-.03-.14-.09-.27-.17-.41-.07-.13-.17-.27-.29-.44-.11-.16-.23-.33-.35-.51-.19-.28-.32-.56-.38-.82-.05-.26-.06-.53-.01-.82.06-.21.17-.44.35-.69.18-.23.43-.42.74-.56.32-.13.68-.17 1.09-.08.29.07.54.15.74.3.2.14.34.27.43.42.1.15.14.26.12.32-.01.07-.08.16-.2.27-.11.11-.29.26-.52.43m2.61 3.8l1.12-1.55 1.2.13c-.05.06-.13.17-.25.34-.13.17-.29.38-.48.66-.18.27-.35.51-.49.73-.14.22-.22.38-.26.47-.09.25-.04.42.14.47.1.03.21.02.36-.01.14-.05.29-.1.45-.18.16-.07.28-.14.39-.19l-.15.46c-.41.19-.76.34-1.07.44-.31.11-.57.12-.78.05-.13-.04-.24-.11-.32-.22-.09-.1-.14-.23-.16-.4-.02-.16.01-.34.09-.54l-.01-.02c-.76.46-1.36.63-1.78.49-.21-.07-.35-.21-.43-.41-.08-.2-.07-.47.05-.82.08-.25.24-.57.47-.93.24-.38.53-.78.89-1.21l1.16.14-.88 1.21c-.11.14-.22.33-.37.56-.14.23-.22.39-.25.47-.09.28-.03.46.17.53.09.02.21 0 .38-.07.17-.06.33-.15.5-.27.16-.11.28-.22.35-.31" fill="#000" mask="url(#b)"/><path d="M31.905 111.672c.1-.098.213-.163.33-.22.206-.077.375-.1.496-.045.12.05.18.122.23.21.04.093.05.197.04.32-.01.12-.04.236-.1.352-.09.2-.23.44-.44.68-.21.24-.43.44-.68.57-.24.13-.46.16-.65.07-.1-.04-.17-.1-.21-.18-.04-.09-.07-.2-.1-.36l.7-.92c.19-.25.33-.42.43-.51m1.55 2.31c-.24.06-.42.12-.57.15-.14.03-.21.06-.22.07 0 .02-.01.07-.01.15.01.08.01.12.03.12.04.02.2-.01.49-.08.3-.08.6-.17.91-.29l.19-.45c-.31.13-.59.24-.81.31m-2.44-3.08c-.26.19-.51.37-.78.53-.25.16-.49.29-.69.37l-.14.33.09.04c.11-.04.23-.09.36-.15.14-.07.25-.12.34-.19.1-.06.22-.13.36-.21l.01.03c-.83 1.09-1.6 2.23-2.33 3.4l1.09.24c.19-.31.37-.59.53-.83.16-.23.4-.57.72-1.01.02.05.05.09.07.13.02.04.05.08.09.13.04.05.09.1.15.14.06.04.13.08.24.12.22.1.47.12.75.1.28-.04.56-.12.85-.26.29-.14.55-.33.78-.56.23-.23.41-.48.53-.77.15-.34.18-.64.1-.91-.08-.28-.25-.48-.5-.58-.19-.08-.4-.11-.62-.08-.22.02-.48.12-.77.28l-.01-.02.44-.59-.96-.22c-.17.17-.38.35-.64.55" fill="#000" mask="url(#b)"/><path d="M35.66 113.104c.162-.175.324-.303.49-.385.174-.09.325-.1.453-.05.184.07.224.24.118.49-.1.24-.29.42-.54.52-.25.12-.56.15-.92.08l.04-.08c.1-.22.22-.42.38-.6m.62 2.15c-.21.03-.42.01-.62-.07-.21-.1-.36-.24-.45-.44-.09-.21-.1-.43-.04-.68.29.04.58.05.89.06.3 0 .59-.05.87-.13.28-.1.47-.27.58-.51.05-.11.06-.23.06-.37-.01-.12-.06-.25-.16-.38-.09-.13-.23-.23-.43-.3-.21-.1-.46-.13-.73-.11-.25.02-.53.1-.81.22-.28.13-.53.3-.75.52-.23.22-.4.47-.52.75-.16.38-.18.74-.04 1.06.14.31.37.54.71.68.21.1.43.15.64.16.22.01.45-.01.71-.07.25-.05.54-.15.88-.28l.19-.44c-.4.16-.72.25-.93.3" fill="#000" mask="url(#b)"/><path d="M37.446 115.22l-.435.17.15-.424c.37-.164.72-.215.9-.384-.19-.19-.25-.385-.17-.608.03-.065.1-.172.2-.308.1-.144.25-.265.42-.355.18-.09.36-.1.56-.03.21.08.27.22.19.45-.05.16-.2.38-.44.65.47.12.99-.09 1.56-.6l.38.12-.74.89c-.03.03-.11.14-.26.31-.14.17-.27.33-.38.48-.1.15-.18.28-.22.39-.05.13-.05.23-.01.32.04.07.09.13.17.16.09.04.2.04.32.01.11-.03.27-.09.46-.17.19-.09.31-.14.73-.35l-.17.46c-.67.33-.93.43-1.17.51-.24.08-.46.14-.63.16-.19.02-.35.01-.49-.04-.17-.06-.29-.18-.35-.36s-.06-.38.02-.6c.07-.2.22-.41.43-.63.21-.22.46-.43.73-.62l-.01-.02c-.21.05-.45.04-.72-.02-.25.22-.39.23-.95.49" fill="#000" mask="url(#b)"/><path d="M44.506 113.132c-.03.106-.1.233-.222.385-.13.15-.286.303-.47.463-.19.16-.38.315-.592.464-.207.14-.414.27-.615.38l-.01-.022c.434-.717.803-1.24 1.116-1.565.302-.32.53-.464.687-.425.118.03.15.138.106.32m-2.02.082c-.28.343-.56.73-.838 1.147-.28.42-.526.83-.726 1.19-.202.38-.336.71-.403 1-.06.21-.08.41-.05.6.03.2.09.35.2.48.1.13.24.21.4.25.15.05.32.06.49.04.16-.02.35-.09.58-.2.23-.1.48-.25.75-.43.1.15.2.25.29.33.08.08.19.13.31.16.14.04.28.04.43.02.14-.02.26-.08.67-.38l.13-.46c-.39.29-.47.34-.53.39-.08.05-.16.1-.27.13-.11.04-.22.04-.33.01-.21-.05-.37-.19-.47-.41.2-.18.39-.36.56-.55.17-.19.32-.38.45-.58.13-.2.21-.37.24-.5.04-.15.04-.28 0-.38-.03-.1-.11-.17-.21-.19-.16-.05-.34-.01-.54.11-.21.12-.39.29-.56.51-.17.22-.29.47-.35.73-.08.26-.07.52.02.79-.17.13-.33.22-.46.29-.14.07-.28.08-.43.04-.13-.02-.21-.1-.25-.22-.05-.11-.05-.24-.01-.4.07-.3.28-.72.59-1.25l.69-.4c.15-.08.32-.19.53-.34.2-.15.41-.31.61-.47.2-.17.38-.36.53-.55.17-.19.27-.38.32-.58.05-.17.05-.33.01-.46-.03-.14-.1-.2-.22-.2l-1.49.03c-.2.18-.44.44-.71.78" fill="#000" mask="url(#b)"/><path d="M45.556 115.296l1.13-.03.044.01-.653 1.245c-.04.08-.096.18-.15.3-.062.12-.1.21-.124.26-.034.06-.067.14-.11.27-.045.12-.072.22-.09.32-.012.09-.005.16.018.22.03.07.08.11.15.13.14.03.27 0 .42-.09.14-.09.33-.22.87-.64l-.09.48c-.66.52-.99.73-1.3.86-.31.14-.52.2-.66.18-.16-.03-.3-.14-.41-.33-.11-.19-.13-.44-.08-.77.07-.4.21-.8.42-1.21.21-.4.42-.79.64-1.16m.79-1.83l.17.14c.05.04.1.07.16.1.06.04.13.06.2.08.14.02.31 0 .47-.09-.05.35-.15.59-.33.73-.18.15-.38.2-.6.16-.25-.05-.45-.16-.6-.33.22-.21.39-.47.54-.77" fill="#000" mask="url(#b)"/><path d="M49.668 116.096c.06.094.09.233.067.402-.017.166-.067.352-.157.585-.09.232-.2.45-.335.66-.135.21-.284.378-.435.51-.168.13-.324.193-.468.175-.118-.01-.213-.065-.28-.164-.067-.1-.095-.232-.078-.385.023-.26.11-.54.262-.85.15-.32.33-.59.53-.8.213-.22.415-.32.616-.3.12.01.21.06.278.16m1.49 2.23c-.128.11-.246.19-.34.25-.1.05-.18.08-.245.07-.195-.03-.28-.17-.246-.42.01-.13.067-.32.167-.59.096-.28.18-.5.257-.66l.51-1.2-.24-.03-.92.39c-.09-.35-.34-.53-.73-.57-.21-.02-.44.02-.71.13-.26.11-.52.27-.8.48-.26.21-.48.46-.65.75-.17.29-.27.6-.3.93-.03.35.03.65.2.89s.36.37.59.39c.21.02.41-.02.6-.12.2-.1.38-.23.55-.38.17-.16.33-.34.5-.54l.01.01c-.03.23-.05.44-.01.62.03.19.09.33.19.43.09.11.22.16.37.18.11.01.25-.01.39-.07.15-.04.29-.12.42-.21.13-.07.28-.18.44-.3.17-.13.29-.23.38-.3l.06-.48c-.12.09-.24.19-.38.3m5.43-4.87c.15 0 .31.04.51.11.2.06.36.1.52.1.13.01.25-.04.37-.1.12-.07.18-.1.22-.1.05 0 .1.01.18.06.07.04.11.09.11.15l-.02.06-.1.1-.14.16c-.16.16-.3.37-.4.62-.1.24-.19.59-.27 1.04-.06.46-.13.84-.18 1.13-.05.29-.11.57-.2.84-.07.27-.17.52-.3.75-.13.23-.3.44-.49.64-.18.17-.39.32-.66.43-.28.13-.57.19-.91.18-.34 0-.61-.06-.83-.16-.22-.11-.38-.22-.49-.37-.11-.14-.16-.26-.16-.36 0-.12.08-.24.23-.38.06-.03.12-.08.2-.14.07-.07.13-.1.17-.12.04-.02.07-.04.11-.04.1 0 .15.03.17.08.02.07.02.18.02.32 0 .2.05.38.15.55.09.18.25.27.47.27.13 0 .23-.02.32-.08.1-.05.17-.11.22-.17.13-.11.23-.26.31-.44.08-.16.14-.36.19-.57.05-.21.1-.45.14-.71.04-.25.08-.45.11-.59.08-.33.17-.61.26-.84.08-.23.19-.43.31-.61.12-.17.26-.35.41-.51.16-.17.36-.36.63-.6l-.02-.02c-.15.07-.29.11-.42.13-.13.02-.24.03-.31.03-.08 0-.15-.01-.24-.03-.1-.02-.19-.05-.27-.08l-.23-.07c-.06-.02-.11-.03-.17-.03-.24 0-.44.09-.59.27-.16.16-.24.34-.24.53 0 .13.02.23.08.3.05.07.12.13.22.2.08.07.12.13.12.17 0 .1-.06.2-.18.32s-.22.18-.31.18c-.1 0-.2-.08-.31-.23-.09-.16-.15-.34-.14-.55 0-.18.05-.39.17-.61.12-.22.26-.43.44-.62.19-.2.39-.36.6-.48.23-.11.44-.17.66-.17m2.26 2.6l1.05-.26c-.08.26-.16.52-.21.76-.06.24-.1.45-.12.64l.02.01c.21-.27.39-.51.56-.69.16-.2.35-.38.56-.54.21-.17.42-.26.61-.28.1 0 .19.02.28.06.09.05.16.11.2.19.05.09.08.19.09.3.01.12-.01.3-.05.51-.05.21-.11.45-.19.74-.08.27-.14.49-.17.64-.04.15-.06.26-.05.34.01.16.1.25.25.24.1-.02.24-.1.42-.29.18-.17.35-.38.52-.6l.04.47c-.24.3-.51.57-.8.8-.28.23-.56.35-.83.37-.16.01-.32-.04-.47-.14-.13-.12-.21-.3-.23-.57-.01-.15.01-.34.06-.57.06-.24.13-.52.23-.87s.15-.56.15-.61c0-.1-.05-.14-.13-.14-.18.01-.57.44-1.17 1.29-.03.3-.05.57-.05.79 0 .21.01.44.02.7l-.94.29c-.06-.32-.09-.62-.12-.88-.03-.46 0-.91.09-1.34.1-.45.22-.9.4-1.37m8.4-3.87c.34-.08.64-.1.89-.06.27.03.49.09.68.2.19.1.34.25.47.41.12.17.2.35.25.54.06.26.07.49.05.69-.03.21-.102.39-.22.57-.07.11-.16.21-.27.31-.1.1-.19.15-.252.17-.12.03-.24-.01-.38-.09-.04-.02-.06-.06-.06-.09-.01-.04 0-.09.03-.14.02-.06.06-.13.09-.2.23-.43.3-.84.2-1.24-.05-.22-.15-.4-.28-.52-.15-.13-.31-.22-.515-.26-.19-.03-.39-.02-.61.03-.39.08-.73.25-1.03.48-.306.23-.52.5-.66.8-.14.29-.19.55-.14.79.05.18.13.31.25.39.065.03.14.06.21.07.08.01.13.03.16.05.03.01.05.05.06.12.02.07-.07.17-.26.32-.19.14-.33.22-.4.24-.12.02-.27-.02-.42-.16-.14-.15-.23-.31-.27-.51-.06-.22-.06-.45 0-.71.04-.24.16-.5.33-.77.21-.34.49-.64.84-.88.33-.25.76-.43 1.27-.55m.75.77c.02-.01.07 0 .13.04.07.03.12.07.15.11-.11.14-.17.29-.22.45-.04.15-.07.35-.07.59 0 .25.02.58.07 1 .05.38.06.73.05 1.04-.01.3-.06.58-.13.82-.075.23-.18.46-.32.68-.16.25-.385.48-.67.7-.29.21-.62.35-1 .44-.38.08-.692.05-.94-.09-.242-.15-.394-.33-.46-.58-.02-.11-.01-.2.037-.27.06-.1.18-.22.35-.38.17-.15.29-.23.34-.25.05-.01.1-.01.15.01.036.02.07.05.08.11.01.03.02.13.03.31.01.18.02.29.04.34.08.33.27.46.57.4.09-.03.18-.07.28-.16.09-.08.17-.16.22-.24.15-.25.24-.56.26-.93.02-.37.01-.75-.04-1.15-.036-.41-.05-.77-.05-1.05.01-.29.04-.53.09-.72.04-.19.12-.36.22-.52.144-.22.3-.4.47-.52.17-.11.29-.19.354-.2m2.32 3.74l-.1.02-.11-.34c.18-.36.29-.66.33-.92-.27-.02-.44-.14-.52-.36-.02-.07-.04-.2-.04-.37-.01-.17.03-.35.1-.53.08-.18.21-.3.42-.38.2-.07.35.02.43.24.05.16.07.42.06.77.44-.19.71-.67.83-1.42l.36-.14-.025 1.16-.01.38c0 .23 0 .43.01.61.02.18.04.32.07.43.05.13.11.22.19.26.08.04.16.05.24.02.09-.03.16-.09.24-.18.08-.1.16-.23.25-.42.1-.19.15-.3.3-.6l.16.47c-.26.53-.408.78-.55.99-.127.21-.267.38-.396.52-.13.13-.265.22-.4.26-.18.06-.34.03-.51-.06-.16-.1-.29-.26-.36-.49-.07-.19-.09-.45-.07-.76.024-.3.08-.61.17-.93l-.02-.01c-.15.16-.34.31-.57.43-.06.33-.21.77-.48 1.32" fill="#000" mask="url(#b)"/><path d="M75.466 115.137c-.067.137-.14.214-.228.255-.167.065-.324.037-.475-.083-.15-.13-.27-.3-.362-.52-.13-.33-.21-.65-.25-.97-.03-.32 0-.59.1-.83.1-.23.26-.4.49-.5.09-.04.16-.06.19-.05-.24.44-.28.87-.1 1.31.16.37.42.66.8.85-.04.22-.08.38-.16.52m1.43-1.17c-.02.06-.04.12-.07.17-.02.05-.06.1-.1.14-.04.04-.1.09-.19.12-.17.07-.36.07-.55-.01 0-.41-.03-.78-.09-1.1-.05-.32-.13-.59-.23-.82-.05-.13-.1-.23-.14-.29-.05-.06-.14-.09-.28-.09-.14-.01-.34.05-.6.15-.22.09-.43.24-.64.44-.21.2-.38.43-.52.7-.14.27-.21.58-.23.93-.01.33.05.67.2 1.02.12.28.26.48.45.63.17.14.36.22.56.24.19.02.37 0 .53-.07.27-.11.48-.29.64-.54.16-.25.28-.54.33-.87.18.02.32.03.42.02.11-.01.21-.04.31-.07.13-.05.23-.13.31-.22.09-.1.15-.21.26-.49l-.18-.45c-.09.25-.13.35-.15.42" fill="#000" mask="url(#b)"/><path d="M77.583 112.19c-.022-.23-.006-.44.045-.616.055-.177.145-.298.28-.352.177-.078.335.005.446.252.1.237.117.496.033.76-.094.266-.285.51-.58.728l-.04-.087c-.095-.223-.162-.45-.184-.685m2.01 1.014c-.11.187-.268.32-.468.408-.212.088-.424.1-.637.032-.21-.078-.39-.22-.525-.43.212-.187.435-.385.636-.6.2-.216.37-.457.49-.716.12-.265.12-.518.02-.76-.06-.116-.13-.204-.24-.293-.1-.077-.24-.12-.39-.13-.16-.018-.33.02-.52.108-.22.09-.41.243-.57.453-.17.204-.3.45-.39.737-.09.287-.14.59-.13.905.01.32.07.612.2.88.17.393.42.646.75.762.32.117.65.1.99-.05.2-.093.38-.208.54-.357.16-.15.3-.33.43-.558.12-.213.25-.495.39-.82l-.2-.446c-.16.4-.3.69-.42.87" fill="#000" mask="url(#b)"/><path d="M80.667 107.876c.09.18.145.413.178.678.034.26.038.528.028.805-.01.28-.04.55-.084.79-.05.24-.11.44-.16.59l-.02-.01c-.15-.61-.24-1.15-.3-1.61-.06-.46-.08-.83-.07-1.09.01-.27.05-.4.11-.43.1-.05.2.04.3.27m-1.25.79c0 .37.01.78.05 1.25.04.46.11.92.19 1.37.09.46.21.86.37 1.2.15.35.34.59.55.73.2.13.38.19.54.17.16-.01.31-.05.43-.1.19-.1.41-.27.61-.53.21-.27.43-.66.64-1.17l-.2-.44c-.16.4-.3.69-.42.89-.11.2-.25.33-.42.42-.15.05-.29.04-.43-.06s-.26-.26-.35-.46c-.1-.2-.17-.4-.23-.59.09-.29.18-.59.25-.91.08-.33.13-.65.15-.97.03-.32.02-.64-.03-.98-.04-.34-.14-.65-.27-.96-.09-.21-.2-.35-.3-.45-.12-.1-.22-.1-.3 0l-.84.8c-.02.14-.03.39-.03.75" fill="#000" mask="url(#b)"/><path d="M82.37 109.13l.92-.63.046-.022.146 1.4c.01.087.022.19.033.323.017.13.027.22.038.29l.062.28c.02.12.055.23.094.31.03.09.07.14.14.19.05.04.12.05.19.02.12-.05.22-.15.3-.3.05-.14.14-.35.23-.62l.19.44c-.14.42-.3.77-.48 1.05-.19.28-.33.45-.47.5-.16.07-.33.05-.53-.05-.2-.09-.36-.3-.49-.6-.17-.37-.28-.78-.33-1.23-.06-.45-.1-.89-.12-1.32m-.36-1.95c.07.02.14.03.2.03.06.01.13.01.19 0 .06 0 .13-.02.2-.05.13-.06.25-.17.34-.33.15.32.2.58.13.79-.07.22-.21.36-.42.45-.24.11-.46.12-.68.06.07-.29.07-.6.03-.93m4.67 3.14c-.07.13-.15.21-.23.24-.17.07-.33.05-.48-.07-.15-.12-.27-.3-.36-.51-.14-.33-.22-.65-.26-.97-.04-.31 0-.59.1-.82.1-.25.26-.41.5-.51.09-.03.15-.04.19-.04-.25.44-.29.88-.11 1.31.15.38.42.66.79.86-.04.22-.09.39-.16.53m1.43-1.17c-.02.06-.05.12-.07.17-.02.06-.06.1-.1.14-.05.04-.11.08-.19.11-.18.07-.36.07-.54-.01 0-.42-.04-.78-.09-1.1-.05-.32-.13-.6-.23-.83-.06-.13-.1-.23-.15-.29-.05-.06-.14-.09-.28-.09-.13-.01-.33.04-.6.14-.21.1-.43.24-.64.43-.21.21-.38.44-.52.71-.14.28-.21.59-.23.92-.03.34.05.69.19 1.04.12.28.27.49.45.63s.37.22.56.24c.19.03.37 0 .53-.06.27-.11.49-.29.64-.53.17-.24.28-.54.35-.87.17.03.31.04.42.03.1-.01.2-.03.3-.07.12-.04.23-.12.31-.21.08-.1.14-.22.2-.36l-.19-.45c-.03.13-.07.22-.09.29" fill="#000" mask="url(#b)"/><path fill="#FFCE65" mask="url(#b)" d="M18.937 9.28L21.965.525l3.04 8.755 9.375.143-7.5 5.555 2.758 8.836-7.673-5.322-7.664 5.322 2.76-8.836-7.5-5.555"/><path d="M21.965 18.284l7.36 5.106-2.645-8.477 7.195-5.328-8.995-.137-2.915-8.398-2.904 8.398-9 .137 7.2 5.328-2.64 8.477 7.35-5.106zm-7.977 5.955l2.87-9.2-7.81-5.78 9.766-.15L21.964 0l3.163 9.113 9.76.148-7.808 5.79 2.87 9.2-7.99-5.54-7.98 5.54z" fill="#000" mask="url(#b)"/><path d="M29.5 23.914l-7.36-9.984c.01 1.5.028 4.445-.007 4.6l-.336-.076.168.038-.17-.03c.024-.175.015-2.646 0-4.543l-7.355 9.99-.276-.2 7.352-9.99-4.4 1.41-.107-.33 4.4-1.42L9.5 9.58l.105-.32 11.908 3.817-2.717-3.7.278-.2 2.717 3.7V.52h.35v12.36l2.73-3.7.28.2-2.72 3.697 11.9-3.817.11.33-11.92 3.81 4.42 1.414-.1.323-4.41-1.414 7.37 9.992-.28.2z" fill="#000" mask="url(#b)"/><path fill="#FFCE65" mask="url(#b)" d="M50.26 9.28L53.29.525l3.034 8.755 9.378.143-7.5 5.555 2.758 8.836-7.67-5.322-7.672 5.322 2.765-8.836-7.5-5.555"/><path d="M53.292 18.284l7.356 5.106-2.646-8.477 7.195-5.328-8.996-.137-2.9-8.398-2.91 8.398-8.99.137 7.2 5.328-2.65 8.477 7.37-5.106zm-7.986 5.955l2.876-9.2-7.806-5.78 9.76-.15L53.292 0l3.157 9.113 9.75.148-7.81 5.79 2.87 9.2-7.98-5.54-7.99 5.54z" fill="#000" mask="url(#b)"/><path d="M45.76 23.914l-.28-.2 7.362-9.99-4.406 1.415-.107-.33 4.4-1.41-11.91-3.82.1-.33 11.91 3.82-2.72-3.7.28-.2 2.72 3.69V.52h.34v12.36l2.72-3.7.27.2-2.72 3.697L65.65 9.26l.106.323L53.848 13.4l4.407 1.414-.106.322-4.41-1.413 7.36 9.992-.28.2-7.36-9.987c0 1.384.02 4.44-.01 4.59l-.34-.054.17.028-.17-.024c.01-.16.01-2.64 0-4.547l-7.37 10z" fill="#000" mask="url(#b)"/><path fill="#FFCE65" mask="url(#b)" d="M81.303 9.28l3.04-8.755 3.03 8.755 9.38.143-7.502 5.555 2.77 8.836-7.67-5.322-7.67 5.322 2.77-8.836-7.5-5.555"/><path d="M72.436 9.585l7.196 5.328-.037.115-2.615 8.362 7.362-5.106 7.36 5.106-2.652-8.477 7.197-5.328-8.997-.137-2.908-8.398-2.916 8.398-8.99.137zM92.33 24.24l-7.99-5.54-7.987 5.54 2.876-9.198-7.81-5.78 9.75-.15L84.34 0l3.156 9.112 9.76.15-7.807 5.78 2.88 9.197z" fill="#000" mask="url(#b)"/><path d="M76.805 23.914l-.278-.2 7.364-9.99-4.4 1.415-.1-.33 4.41-1.42-11.92-3.81.11-.33 11.91 3.82-2.72-3.7.28-.2 2.73 3.7V.52h.35v12.36l2.72-3.7.28.2-2.73 3.698L96.7 9.26l.106.33L84.9 13.4l4.404 1.414-.107.323-4.403-1.413 7.36 9.99-.277.2-7.36-9.988c.01 1.5.023 4.446-.006 4.598l-.33-.064.17.032-.17-.027c.02-.167.01-2.642 0-4.545v.005l-7.36 9.99zm17.6 80.436h3.39v.49h-1.412v3.625h-.558v-3.626h-1.42m7.35 3.62v-2.43c0-.13.013-.65.013-1.03h-.012l-1.172 3.46h-.56l-1.173-3.45h-.01c0 .37.01.89.01 1.02v2.43h-.54v-4.12h.81l1.2 3.47h.01l1.19-3.48h.81v4.11h-.55" fill="#000" mask="url(#b)"/></g></svg>