<svg xmlns="http://www.w3.org/2000/svg" width="191" height="245" viewBox="0 0 191 245"><g fill="#36383A" fill-rule="evenodd"><path d="M83.135 33.933c-.21.373-.4.71-.74.977-.33.257-.545.605-.706 1.036-.13.33-.42.777-.93.797-.55.02-1.06-.054-1.54-.41-.34-.248-.42-.69-.76-.875-1.05-.563-1.8-1.468-2.28-2.478-.54-1.118-1.51-1.74-2.31-2.7 0 .38-.2.516-.33.705-.13.195-.11.53-.28.654-.77.59-1.21 1.15-1.5 1.96-.07.19-.1.54-.5.42-.03-.01-.47.07-.28.47.12.25.02.61.02.93-.13-.27-.12-.56-.22-.83-.09-.26-.26-.21-.4-.17-.2.05-.05.18-.02.29.06.32.1.65.16 1.06-.17-.2-.4-.33-.44-.18-.07.24-.43.35-.31.62.21.49.08.97.02 1.36.82 0 1.63.01 2.44 0 3.22-.04 6.45-.11 9.67-.12 3.31-.02 6.62-.01 9.94.04 2.25.04 4.5.12 6.75.29 1.99.15 3.98.24 5.97.29 1.97.04 3.94-.06 5.9.04 1.02.05 2.06-.02 3.07.21.32.07.59.03.68-.41.18-.87.43-1.73.66-2.59.5-1.89.75-3.83 1.13-5.74.02-.1.05-.23-.08-.27-.06-.02-.15.05-.22.08-.38.18-.57.56-.84.85-.58.62-1.31 1.08-1.81 1.79-.15.22-.3.36-.63.41-.42.06-.75.37-1.28.37-.3-.01-.84.23-1.27.35-.33.1-.55.26-.58.56-.03.33-.25.3-.45.37-.24.09-.56-.15-.74.18-.35-.23-.64.14-1.01.1-.53-.05-.73-.5-.94-.73-.44-.5-.68-1.2-1.07-1.78-.56-.83-1.05-1.7-1.6-2.61-.1.3-.16.52-.23.73-.07.22-.17.43-.21.65-.12.61-.84 1.17-1.39.94-.34-.14-.54-.01-.78.06-.39.1-.73.27-1.15.13-.53-.18-.85.12-1.09.56-.09.16-.21.3-.33.46-.27-.32-.5-.44-.77-.01-.13.2-.39.32-.56.49-.44.44-1.09.57-1.47 1.12-.12.17-.36.55-.75.41-.41-.15-.78.16-1.17.13-.82-.06-1.71.4-2.47-.22-.16-.13-.28 0-.33.04-.44.44-.74-.37-1.15-.12-.09-.41-.56-.41-.76-.82-.42-.85-1.35-1.25-2.12-1.83.04.26.31.72-.25.54-.37-.12-.82-.29-1-.69-.08-.17-.6-.35-.09-.69.11-.08-.3-.57-.49-.96-.1.41-.17.74-.26 1.05-.32 1.04-.66 2.08-.97 3.13-.06.19 0 .49-.3.44-.21-.04-.43-.25-.32-.53.06-.16.01-.29-.03-.44zm1.337-28.05c-.28 1.363-.753 2.592-1.21 3.828-.568 1.54-1.027 3.11-1.697 4.6-.302.67-.39 1.46-.958 2.02-.213.21-.418.61-.238.93.24.44-.27.35-.32.56-.16-.16-.18-.1-.25.09-.39 1.1-.8 2.18-.88 3.36-.03.4-.23.67-.73.73-.24.03-.6.07-.79.33-.32.46-.99.22-1.31.69-.04.06-.19.08-.28.06-.36-.09-.71-.01-1.1-.26-.94-.6-1.86-1.23-2.81-1.83-1.55-.97-3.1-1.95-4.68-2.95 0 .21-.03.36 0 .5.26 1.19.58 2.37.98 3.53.71 2.09 1.3 4.23 1.67 6.42.02.12-.06.29.1.33.17.04.15-.34.4-.23.27-.83.76-1.54 1.11-2.32.26-.57.42-.88 1.07-.66.44.15.97.05 1.37.22.73.3 1.42.74 2.06 1.22.95.72 1.74 1.62 2.6 2.44.7.67 1.49 1.23 2.07 2.03.08.11.39.41.52.22.15-.23.43-.48.28-.85-.03-.07.01-.16.02-.25.29.3.17-.07.25-.13.21-.15.19-.38.24-.57.27-.92.51-1.84.75-2.76.1-.36.27-.73.23-1.09-.1-.99.51-1.67.92-2.45.07-.12.15.01.2-.02.87-.56 1.39.47 2.14.48.09 0 .22.17.24.23.34.9 1.14 1.48 1.59 2.3.13.25.35.57.59.64.63.19 1 .49 1.02 1.04-.27.02-.3-.32-.59-.44.08.44.38.62.57.89.31.45.84.73.77 1.46-.03.34.19.91.65 1.12.58.27.94.77 1.35 1.19 1.76-1.48 3.54-2.94 5.27-4.46.47-.41 1.08-.76 1.28-1.42.16-.52.41-1.01.69-1.46.24-.4.35-1.02.95-1.08.55-.05 1.09-.09 1.66.04.49.11 1 .21 1.56.16.65-.06 1.39.03 2 .43.04.03.23.14 0 .2-.44.12-.12.27-.02.41.31.46.75.81.89 1.38.07.29-.04.59.15.86.09.13.2.32.23.38.41 1.09 1.21 1.89 1.91 2.76.14.19.22.12.33.07.32-.17.64-.37.96-.55 1.72-.98 3.18-2.38 4.94-3.3.39-.21.65-.66 1.18-.62.19.01.23-.19.26-.37.37-2.15 1.05-4.22 1.57-6.34l.9-3.81c-.52.51-1.01 1-1.51 1.46-.76.7-1.36 1.52-1.94 2.34-.82 1.16-1.55 2.35-2.49 3.43-.64.73-1.39 1.27-2.12 1.86-.71.57-1.74.19-1.89-.67-.13-.78-.33-1.56-.3-2.36.03-.9-.11-1.79-.22-2.68-.2-1.53-.44-3.05-.68-4.57-.22-1.43-.45-2.85-.7-4.35-2.29 2.33-4.46 4.66-6.35 7.33l-.12-.55c-.15.25-.38.45-.37.63.04.59-.35 1-.61 1.42-.5.82-1.13 1.56-1.76 2.29-.14.16-.4.28-.6.42-.25.18-.59.21-.83.4-.74.56-1.44.5-2.09-.21-.16-.16-.4-.26-.63-.4-.01.2.14.33.02.47-.27-.01-.65-.65-.77.14-.01.02-.07.03-.11.04-.8.27-1.36-.01-1.83-.76-.66-1.05-1.07-2.22-1.62-3.32-.9-1.79-1.73-3.62-2.54-5.46-.51-1.15-.98-2.31-1.39-3.51-.38-1.1-.86-2.16-1.29-3.25zm-68.09 113.64c-.27.392-.372.857-.567 1.295-.247-.23.163-.44-.034-.745-.19.536-.4 1.01-.54 1.5-.61 2.086-1.27 4.156-1.94 6.224-.37 1.152-.57 2.36-.86 3.54-.36 1.47-.54 2.972-.79 4.462-.12.73-.13 1.49-.4 2.21-.16.42 0 .94-.11 1.35-.16.58-.19 1.19-.36 1.76-.19.65-.05 1.33-.21 1.99-.1.43-.49.77-.39 1.24.23 1.03-.23 1.94-.52 2.87-.08.26-.1.53-.14.79-.02.13.15.5-.3.39-.11-.03-.07.2-.05.3.25 1.03.03 2-.44 2.92-.03.05-.08.12-.07.16.38.92-.03 1.8-.15 2.69-.17 1.3-.42 2.6-.77 3.88l.42-2.96c-.23.02-.07.23-.38.36.47-1.03.77-1.98.74-3.02-.24.13-.01.4-.21.54l-.06-.68h-.06c-.27 1.81-.55 3.62-.81 5.43-.05.35-.05.72-.08 1.08-.04.47.09.01.15 0 .15-.02.09.15.08.16-.62.69.26 1.55-.35 2.23-.06.07 0-.06-.02-.11-.01-.08-.01-.17-.01-.23-.22-.28.02.61-.29.08-.16.13-.15.37-.12.47.1.38.29 1.02.15 1.26-.27.47-.05.87.05 1.28.85-.23 1.09-1.16 1.8-1.56.15-.08.26-.5.51-.09.09-.08.22-.13.25-.22.36-1.05 1.39-1.41 2.15-2 .36-.28.66-.64 1.03-.92 1.11-.86 2.1-1.88 3.5-2.28.07-.02.13-.09.22-.15.11.19.21.39.1.71.68-.62 1.49-.88 2.08-1.39.27-.23.63-.53.81-.91.03-.06.01-.18-.03-.24-.08-.12-.18-.03-.26.03-.2.14-.4.27-.7.47.18-.58.58-.87.95-1.04.34-.16.6-.32.84-.61.46-.55 1.13-.86 1.71-1.27 1.46-1.04 3.06-1.85 4.67-2.63.19-.09.39-.07.5-.06.72.05 1.47.04 2.11.45.41.25.89.18 1.32.35.36.14.78.13 1.11.39.04.04.18.19.25.04.25-.53.7-.28 1.08-.32.43-.03.51.23.44.56-.18.88-.1 1.74-.01 2.63.1.9.03 1.81.15 2.71.17 1.31.29 2.64.57 3.91.46 2.06.7 4.17 1.3 6.21.04.14.04.29.05.44.01.5.01.96.28 1.44.32.56.17 1.27.32 1.91.62 2.77 1.12 5.58 1.71 8.36.08.37.42.65.5 1.07.24 1.27.28 2.56.61 3.82.25.94.46 1.89.77 2.81.29.84.47 1.72.74 2.58.76 2.32 1.68 4.57 2.53 6.85.02.05.07.1.15.21-.03-.62.29-.9.79-1 .26-.05.51.02.51.34 0 1.26.34 2.45.72 3.62.56 1.71 1.1 3.43 1.45 5.2.23 1.13.49 2.24.98 3.31.82 1.76 1.53 3.57 2.1 5.43.04.11.12.21.18.31 1.03-1 1.95-2.06 2.81-3.15 1.44-1.85 2.96-3.61 4.65-5.23 1.03-.99 1.93-2.12 3.13-2.93.63-.43 1.22-.94 1.94-1.21.46-.17.38-.58.46-.87.15-.64.54-.67 1.09-.84.99-.31 1.92.08 2.88-.01.46-.05 1.22-.24 1.71.31.07.07.34-.03.53-.05.14.3-.34.49-.13.82l.37-.63c-.16.87-.14 1.76-.32 2.6-.18.85-.15 1.7-.22 2.55-.19 2.32.35 4.57.73 6.84.22 1.33.31 2.69.66 4 .34 1.24.65 2.48.99 3.72.43 1.56.82 3.13 1.45 4.62.59 1.41 1.07 2.94 1.97 4.14 1.2 1.6 2 3.41 3.18 5 .86 1.17 1.43 2.55 2.32 3.73.25.33.53.65.79.97.57.7.53 1.71 1.26 2.33.18.15.04.42-.28.41-.4-.02-.75-.16-1.06-.42-.27.48.33.35.41.59-.29.59-1 .51-1.45.88-.14.11-.23.37-.47.38.08.22.3.11.43.18.21.11.32.37.6.45.1-.42-.34-.36-.42-.62.28-.01.46.12.63.31.36.42.36.42 1 .44.02 0 .05-.01.06 0 .85.67 1.26-.2 1.76-.54 1.25-.85 2.09-2.13 3.17-3.17 2.32-2.23 4.62-4.48 6.89-6.77 1.33-1.36 2.55-2.82 3.8-4.25 1.11-1.28 2.21-2.56 3.29-3.86 1.32-1.6 2.57-3.26 3.77-4.95.87-1.22 1.68-2.49 2.59-3.68.34-.43.53-.93.85-1.37.84-1.14 1.63-2.32 2.44-3.49.58-.84 1.11-1.73 1.76-2.51.48-.57.7-1.31 1.29-1.77.25-.2.36-.53.45-.75.42-.98 1.09-1.81 1.65-2.68.39-.61.84-1.18 1.12-1.86.26-.65.92-.98 1.26-1.57-.15.41-.25.81-.19 1.27.3-.16.07-.67.5-.7.22.33-.21.58-.16.94.36-.3.38-.76.66-1.04.28.13-.32.45.11.53.33.06.14-.29.26-.4.27.42.11 1.02-.4 1.23-.15.06-.12.18-.23.22.38.34-.03.63-.1.93-.05.27.05.8-.61.6-.46-.13-.26.62-.67.68-.03.01-.5.94-.56 1-.06.06-.11.13-.15.18.15.27.4-.12.34-.01-.14.26.27.42.02.65-.17.16-.55.22-.43.61-.16-.14-.11.42-.43.09-.22-.23-.49.36-.47.38.55.42.16.82-.08 1.11-.23.28-.28.8-.84.77-.24-.01-.33.26-.32.51.03.73-.45 1.1-.98 1.47-.15.1-.28.28-.31.45-.1.58-.34 1.08-.69 1.56.4-.16.58-.51.76-.84.62-1.16 1.54-2.11 2.2-3.24.03-.06.1-.17.18-.11.56.46.53-.2.68-.39.4-.54.75-1.13 1.15-1.68-.1.63-.44 1.16-.77 1.66-.75 1.16-1.55 2.28-2.36 3.4-.5.7-.92 1.45-1.38 2.18-.2.33-.59.58-.76.98-.06.15-.22.24-.09.43.03.04.01.16-.01.17-.855.33-.66 1.32-1.18 1.85-.03.03-.06.06-.1.08-.01.01-.03-.01-.08-.04l.2-.51c-.37.6-1.16.95-1.1 1.78.01.15-.07.28-.18.32-.92.31-1.15 1.25-1.7 1.88-.69.79-1.35 1.61-1.97 2.44-.88 1.18-1.89 2.21-2.87 3.29-.1.11-.12.29-.29.07-.15-.21-.22.02-.23.08-.19 1.14-1.056 1.8-1.755 2.59-.48.54-1.4.44-1.71 1.21-.05.11-.21.19-.22.29-.18 1.26-1.27 1.84-1.97 2.71-.38.47-.87.83-1.25 1.26-.64.75-1.39 1.37-2.1 2.03-.53.49-.9 1.06-1.16 1.71-.08.19-.23.3-.35.25-.19-.07.17-.23-.02-.39-.97 1.04-2.07 1.95-2.97 3.06-.23.28-.69.39-.61.88-.2-.12-.35.05-.47.13-.7.5-1.34 1.08-2.12 1.46-.53.26-1.09.33-1.66.44-.74.15-1.42.52-2.18.59-.57.06-1.11-.13-1.64-.3-.61-.2-1.22-.55-1.6-.98-.48-.55-.85-.26-1.33-.23-.6.03-1-.45-1.29-.89-.43-.65-.91-1.25-1.33-1.9-.33-.5-.81-.84-1.27-1.13-.64-.4-.59-1.08-.91-1.6-.1-.16-.073-.4-.33-.15-.016.01-.22-.11-.27-.21-.53-1.08-1.113-2.13-1.682-3.19-.92-1.72-1.7-3.5-2.43-5.31-.43-1.07-.91-2.14-1.3-3.21-.62-1.75-1.27-3.49-1.76-5.29-.59-2.16-.88-4.38-1.42-6.54-.33-1.32-.33-2.66-.55-4.08-.94 1-1.86 1.92-2.71 2.9-1.04 1.19-2.04 2.41-3.03 3.64-1.02 1.26-2.22 2.37-3.195 3.68-.29.39-.45.91-1.01 1.13-.22.08-.42.44-.48.76-.09.43-.06.99-.81.76-.33-.1-.58.2-.75.4-.39.46-.7.7-1.33.3-.43-.28-.85-.61-1.35-.78-.29-.1-.61-.03-.9-.06-.29-.03-.59.16-.83-.18-.02-.03-.07.2-.25.15.08-.43.52-.8.27-1.29-.04-.08-.04-.18-.09-.23-.793-.83-.85-2.02-1.46-2.95-.64-.97-.85-2.15-1.29-3.22-.99-2.37-1.94-4.77-2.91-7.16-.68-1.68-1.27-3.4-1.96-5.07-.57-1.38-1.093-2.76-1.58-4.17-.23-.66-.81-1.2-1.2-1.81-.97-1.5-1.9-3.03-2.88-4.52-1.4-2.1-2.44-4.39-3.54-6.65-1.63-3.36-2.97-6.86-3.93-10.49-.55-2.05-1.09-4.09-1.38-6.19-.26-1.86-.39-3.71-.38-5.59.01-1.49-.22-2.96-.53-4.42-.02-.1-.1-.17-.15-.26-1.41.95-2.82 1.89-4.16 2.91-1.41 1.07-2.78 2.22-4.11 3.41-.85.75-1.76 1.494-2.79 2.05-.41.22-.573-.116-.85-.17-.78-.165-1.543.1-2.31.01-.23-.03-.58.18-.64-.28-.02-.12-.13-.096-.19-.035-.48.43-.92.21-1.34-.08-.254-.18-.36-.02-.53.11-.51.39-.42.14-.77-.18-.48-.44.12-.77-.14-1.09-.08-.1-.07-.21.08-.23.1-.013.24-.03.306.03.1.09-.02.15-.08.23-.12.14.08.26.04.49.44-.56.09-1.15.37-1.75.13.44-.14.79.06 1.11.13-.13.04-.29.07-.42.02-.05-.02-.22.11-.07.04.04.056.1.09.16.175-.29-.18-.57.03-.84.01-.01-.053-.09-.06-.09-.58.27-.36-.37-.57-.65-.26.6.06 1.2-.31 1.64.24-.41-.38-.54-.19-.94-.41.16-.06.55-.36.67-.19.075.36.19.007.25-.155.03-.274-.12-.265-.29.04-.67-.11-1.35.09-2.013.04-.12.04-.23-.03-.34-.91.58-.5 1.46-.56 2.21-.03.38-.05.72-.38.99.01-1.74.13-3.46.28-5.18-.75 1.91-.66 3.9-.7 5.98-.27-.4-.45-.7-.24-1.09.03-.07.09-.27-.1-.28-.07 0-.14.14-.27.29.28-1.8.06-3.54.34-5.27.24-1.54.32-3.12.58-4.67.24-1.5.39-3.01.67-4.51.26-1.41.48-2.838.7-4.25.37-2.37.79-4.72 1.13-7.09.45-3.22.95-6.43 1.57-9.61.32-1.64.84-3.25 1.36-4.84.89-2.77 1.73-5.55 2.8-8.24 1-2.5 1.77-5.1 3.07-7.46.81-1.478 1.34-3.038 1.87-4.61.26-.76.5-1.53.9-2.24.05-.097.21-.207.1-.34-.097-.116-.22-.04-.34-.02-.227.05-.467.11-.68.07-.42-.074-.687.39-1.12.276-.8-.22-1.62-.1-2.43-.08-.66.01-1.29.17-1.93.33-.75.2-1.31.74-2.05.98-.43.14-.74.68-1.22.89-.26.12-.49.25-.82.1-.5-.22-1.09-.06-1.6-.29-.34-.15-.72-.19-1.01-.47-.12-.12-.31.03-.5 0-.62-.1-.98-.95-1.73-.59-.07-.38-.51-.26-.7-.5-.11-.15-.34-.26-.17-.45.23-.25.31-.68.8-.64.44.04.88-.05 1.29-.23.36-.16.34-.31.1-.6-.13-.15-.1-.44-.15-.67-.31.05-.25.5-.62.58l.29-1.23c-.34.38-.75.66-1.1 1.02-.08.09-.16.22-.3.18-.04-.01-.07-.1-.08-.15-.02-.14.06-.3.18-.28.31.053.21-.197.17-.26-.13-.24-.14.212-.28.07-.27.37-.86.32-1.06.93-.07-.62.22-.98.44-1.33 1.69-2.7 3.49-5.324 5.23-7.98 1.31-2 2.73-3.9 4.17-5.79.93-1.22 1.95-2.366 3.04-3.46.83-.844 1.54-1.83 2.41-2.62 1.38-1.25 2.66-2.61 4.11-3.79.92-.755 1.7-1.68 2.61-2.45 1.1-.92 2.06-1.98 3.07-2.98.56-.555 1.22-.994 1.88-1.68-1.03.285-1.96.43-2.89.44-.6.004-1.19.43-1.82.03-.22-.14-.31.25-.56.29-.52.09-1.05.23-1.53.45-.42.2-.79.54-1.15.84-.39.33-.99.61-1.31.58-.88-.074-1.44.42-2.12.75-.72.34-1.46.636-2.1 1.14-.23.18-.58.22-.77-.024-.2-.27-.51-.38-.72-.33-.33.08-.35-.19-.45-.31-.31-.38-.8-.54-1.18-.75-.33-.18-.69-.406-1.06-.55-.27-.11-.65-.33-.56-.59.1-.29.2-.68.61-.82.63-.217 1.19-.57 1.74-.95.12-.08.26-.15.35-.257.11-.13.306-.33.18-.47-.16-.194-.33.01-.47.136-.17.15-.41.2-.49.47-.24-.28-.02-.44.05-.61.04-.1.37-.12.1-.29-.15-.1-.27.04-.31.2-.1.34-.35.43-.67.45-.09.01-.18.14-.27.02-.06-.09-.03-.2.02-.3.86-1.76 1.9-3.38 3.39-4.7.74-.65 1.34-1.46 2.06-2.15 1.98-1.91 3.98-3.81 6.15-5.5 1.54-1.21 3.146-2.34 4.68-3.56.98-.78 1.957-1.56 2.94-2.33 1.68-1.31 3.316-2.67 5.01-3.96 1.06-.81 2.16-1.57 3.14-2.5 1.047-.98 2.27-1.75 3.45-2.57 1.39-.95 2.76-1.94 4.2-2.82.8-.49 1.61-.99 2.47-1.38 1.03-.48 1.98-1.14 2.99-1.69.71-.4 1.44-.74 2.16-1.12 1.53-.81 3.04-1.65 4.576-2.45 1.21-.62 2.46-1.18 3.675-1.81.42-.21.79-.54 1.18-.82.01-.01.01-.04.02-.06.67.27.734-.65 1.24-.65.52 0 .32-.35.26-.53-.46-1.5-.75-3.05-1.17-4.57-.38-1.34-.706-2.7-.82-4.08-.13-1.61-.406-3.21-.407-4.83 0-.23-.01-.46.1-.68.09-.17.05-.46.3-.1.08.11.17.08.23-.05.04-.09-.1-.25.11-.26-.09.26.37.04.29.33-.04.14.08.26.23.36l.01-.33c.01-.52.32-.67.85-.67.39-.01.44.15.46.43.25-.02.05-.37.29-.31.24.05.16.3.19.48.2-.05.05-.23.18-.31.2.39.48.76.51 1.25.04-.39.41-.62.31-1.04.36.25.08 1.06.87.79.48-.17.01-.51.21-.76.11.72.6.59 1.09.56.28-.02.59-.35.87.02.05.07.12.02.12-.04-.01-.25.04-.4.33-.25.215.11.49.2.32.52-.19.37.11.48.3.59.46.25.64.74 1.06 1.05.66.49 1.38.88 2.05 1.344.91.64 1.946 1.14 2.64 2.07.16.22.46.35.72.47.26.12.3-.1.35-.3.41-1.47.82-2.95 1.24-4.42.42-1.45 1.026-2.84 1.55-4.26.61-1.63 1.157-3.29 1.526-4.99.37-1.7.67-3.42 1.03-5.13.15-.74.48-.87 1.26-.81.57.04 1.18-.04 1.74 0 .73.05 1.48-.11 2.2.15.02.01.03.03.05.03 1.26.12 1.63 1.11 1.97 2.09.32.91.93 1.69 1.29 2.59-.12-.81-.54-1.55-.66-2.49.56.76.8 1.55 1.21 2.41.08-.43-.15-.65-.14-1.09.27.52.47.91.68 1.28.9 1.55 1.45 3.25 1.99 4.93.55 1.72 1.4 3.31 2.04 4.99.47 1.26 1.03 2.48 1.48 3.83.52-.93 1.23-1.6 1.82-2.36.9-1.17 1.6-2.47 2.51-3.62.51-.66.98-1.35 1.58-1.95 1.29-1.29 2.44-2.71 3.6-4.12.4-.5.76-1.02 1.05-1.59.18-.35.47-.62.95-.19.19.17.65.03.99.04.68.024 1.81.774 1.96 1.404.11.47-.1.96 0 1.48.36 1.85.61 3.72.9 5.59.06.37.02.74-.16 1.1-.08.147-.37.52.25.53.34.01.23.48.12.718-.24.49-.08.93.02 1.42.25-.18-.02-.46.34-.68-.2.51.26.94-.24 1.39-.14.13-.24.69.12.97.112.09.1.2.07.27-.31.87.22 1.73-.05 2.72 1.49-1.36 2.39-2.99 3.5-4.46.86-1.14 1.8-2.21 2.91-3.12.36-.29.66-.66 1-.98.2-.18.28-.38.3-.66.04-.6.68-1.09 1.27-1.03.57.06 1.44.45 1.83.81.05.05.1.15.2.08.24-.2.49.12.51.15.5.67 1.433.77 1.9 1.49.18.28.224.49.154.81-.27 1.29-.72 2.53-1.09 3.79-.17.56.05 1.29-.25 1.84-.12.22-.05.43-.12.52-.18.23-.23.5-.32.73-.12.3-.4.49-.43.85-.03.33-.16.64-.25.96-.1.34-.21.67-.3 1.01-.12.44-.23.88-.32 1.33-.04.17-.01.22.24.24 2.08.16 3.94.94 5.71 2.03 1.86 1.14 3.45 2.61 5.12 4.01 2.3 1.93 4.43 4.04 6.52 6.17 1.42 1.45 2.74 3 4.11 4.5.43.47.89.93 1.29 1.42.2.24.57.16.59.12.28-.59.6-.15.93-.08 1.03.23 2.05.5 3.1.62.8.09 1.54.35 2.33.47 2.39.37 4.64 1.23 6.92 2 1.24.42 2.37 1.08 3.51 1.7 1.09.59 2.12 1.286 3.16 1.978.51.35.99.77 1.44 1.2.92.9 1.96 1.66 2.86 2.56.63.63 1.31 1.23 1.89 1.92.12.14.23.24.42.18.04-.22-.26-.25-.23-.5.59.09.77.65 1.03 1.02.25.36.91.37.82.99.77-.26.69.54 1.01.84.39.37.67.83.98 1.28.32.46.59.97.94 1.38 1.24 1.43 2.02 3.12 2.92 4.74.88 1.59 1.82 3.154 2.62 4.79.67 1.365 1.25 2.78 2.01 4.09.58.99.92 2.07 1.42 3.084.26.52.68.92.91 1.47.45 1.07.99 2.1 1.48 3.14.07.15.13.31.17.47.06.27-.19.31-.34.37-.22.09-.28-.06-.29-.27-.01-.22-.2-.41-.09-.75-.25.32-.27.66-.15.81.22.26.01.4-.19.5-.49.26-.98.52-1.49.75-.42.19-.85.47-1.27.71-.45.26-.9.62-1.45.63-.46 0-.77-.46-.86-.76-.245-.81-.93-.98-1.53-1.22-1.81-.71-3.695-1.2-5.58-1.67-.28-.07-.57-.14-.81-.29-.28-.18-.18.12-.27.16-.22.1-.15.21-.03.33 2.09 2.1 3.56 4.66 4.89 7.26 1.53 2.99 3.046 5.99 4.54 9 1.306 2.61 2.63 5.22 3.74 7.92 1.11 2.68 2.13 5.4 2.9 8.2.16.58.53 1.11.44 1.8-.42-.26-.28-.82-.65-1.06-.29.15.306.63-.17.6-.35-.02-.21-.57-.49-.82.07.19-.41.34.03.52.075.03 0 .14-.1.16-.07.02-.19-.03-.18.09.005.06.1.13.175.15.09.03.174-.16.23.17.1.67-.23 1.38.16 2.01.02.03.01.09 0 .13-.23.68-.18 1.35-.01 2.036.09.37-.3.46-.51.64-.15.12-.17-.11-.21-.18-.1-.19.08-.48-.26-.68.19.96.36 1.87.54 2.78.02.08.09.18.06.23-.36.59.124 1.32-.34 1.9-.09.11 0 .3.07.47.26.62.25 1.28.3 1.94.02.3-.39.33-.3.4.34.29.38.68.33 1.04-.15.95.35 1.83.32 2.77-.37.04-.13-.34-.47-.52.22.41-.17.85.43.96-.41.27.53.56-.01.83.3.61.06 1.36.5 1.93.07.1.08.19.05.3-.2-.14-.34-.01-.21.13.37.41-.02.57-.22.72-.76.61-1.6.61-1.84-.09-.79-2.24-2.95-2.74-4.63-3.86-.63-.42-1.33-.71-1.96-1.14-.58-.4-1.37-.7-2.03-1.08-1.23-.72-2.54-1.29-3.72-2.1-.12-.08-.22-.19-.32-.28-.16.27.01.52.08.76.28 1.03.27 2.11.49 3.15.25 1.14.4 2.29.69 3.42.19.76.15 1.53.3 2.29.176.87.33 1.76.446 2.65.17 1.32.394 2.63.62 3.943.33 1.94.54 3.89.85 5.83.27 1.73.73 3.47.74 5.21.01 1.41.28 2.78.34 4.18.05 1.16.2 2.33.29 3.49.04.52.12 1.07.09 1.62-.26-.42-.2-.96-.49-1.4-.22.96.25 1.88.11 2.93-.38-.6-.12-1.2-.43-1.87-.05 3.8.75 7.4.35 11.06-.18-.16.03-.43-.19-.627-.09.65.06 1.25.16 1.84.04.23.1.39-.09.56-.14.135-.13.35-.07.48.48 1.07.09 2.164.07 3.23-.02.87-.06 1.74-.09 2.61-.02.54.05 1.08-.1 1.63-.143.54-.12.49-.79.884-.82.48-1.77.64-2.58 1.18-.3.2-.75.07-1.15-.08-1.053-.4-1.97-1.04-2.903-1.65-1.664-1.07-3.1-2.43-4.62-3.69-1.244-1.03-2.5-2.06-3.753-3.08-1.63-1.32-3.32-2.57-4.96-3.87-.74-.59-1.49-1.15-2.23-1.72-.07-.06-.2-.03-.21-.03-.19-.2-.42.34-.56-.01-.16-.4-.56-.76-.39-1.22.1-.27-.14-.51.15-.84.43-.47.91-.44 1.36-.407.49.04 1.01-.05 1.46.13.28.11.23-.19.44-.22.56-.09.7.26.98.56.74.79 1.68 1.38 2.44 2.14.64.65 1.61 1.01 1.94 1.9.26.72.877.75 1.357 1.07.16.11.83.09.3.59.2.09.21.23.11.4.15-.14.42.34.53-.11.05-.2.27.01.28.02.19.33.79.35.65.98-.03.14.44.74.787.85.65.22.9.85 1.45 1.15.25.14.42.37.79.34.52-.03.91.55.76 1.03-.06.17.03.29.14.3.56.04.84.49 1.22.8.33.27.65.55 1.02.77.3.185 1.43.96 1.63 1.22.18.24.54.1.67.41.18-.2.1-.396.1-.57 0-1.916-.24-3.815-.34-5.72-.02-.4-.04-.81-.04-1.22.01-1.89-.29-3.76-.5-5.63-.15-1.33-.21-2.67-.4-4-.21-1.42-.27-2.86-.56-4.28-.27-1.34-.37-2.72-.57-4.08-.13-.89-.368-1.76-.44-2.64-.188-2.1-.718-4.15-.998-6.23-.25-1.88-.5-3.76-.827-5.62-.28-1.58-.41-3.18-.67-4.76-.16-.99-.53-1.96-.64-2.95-.18-1.68-.58-3.32-.77-5-.18-1.57-.27-3.15-.59-4.7-.1-.49-.06-1.02-.06-1.52 0-.3.28-.33.44-.29.65.13 1.27-.4 1.91-.05.03.01.12-.05.15-.1.07-.13-.05-.19-.13-.24-.46-.32-.91-.63-1.33-1-.15-.14-.26-.28-.32-.44-.07-.16-.16-.44.22-.27.18.08.32.07.4-.15.01-.02.105-.01.16-.02-.12.46.31.22.416.35.06.08.48.1.16.37 0 0 .09.13.1.12.54-.27.76.34 1.08.51.42.23.38-.11.56-.14-.17-.29-.62-.2-.68-.58.63.05 1.03.58 1.61.69.047.01.1.09.11.15.06.53.34.79.88.77.56-.03.76.27.64.9.16-.27.27-.56.49-.31.59.63 1.43.83 2.11 1.28.64.42 1.42.58 2.04 1.045.15.11.28.19.45.09.11-.06.17 0 .2.08.26.59.25.58 1.16.65.05 0 .11.06.15.11.54.62 1.34.8 2.12 1.23-.3-.53-.82-.61-1.13-.96.49.23 1.08.31 1.35.9.04.09.12.19.21.23 1.075.56 1.8 1.64 2.996 2.03.17.06.29.24.59.49-.08-.63-.13-1.1-.21-1.56-.52-2.86-1.2-5.68-1.72-8.54-.29-1.61-.73-3.19-1.14-4.78-.15-.58-.13-1.14-.1-1.78.22.35.27.72.61.98-.08-.96-.59-1.83-.11-2.77.15-.13.12.34.28.19.1-.1-.02-.31-.09-.47-.19-.46-.34-.9-.11-1.45.12-.29-.02-.81-.23-1.08-.38-.52-.27-1.18-.61-1.7-.07-.11.03-.3.15-.31.57-.06.28-.53.18-.6-.52-.36-.59-.98-.57-1.42.03-.61-.26-1.06-.4-1.58-.05-.18 0-.38 0-.74.41.55.4 1.17.83 1.6.19-.5-.24-.89-.12-1.36.1-.37-.33.38-.33-.09 0-.23-.01-.46-.02-.7-.37.28-.16-.24-.31-.23-.41.03-.21-.41-.4-.51-.24-.14-.2-.33-.12-.48.09-.17.04-.27-.04-.4-.4-.65-.82-1.28-1.18-1.94-.11-.19-.16-.42-.17-.68-.02-.71-.56-1.26-.84-1.89-.02-.04-.23-.28-.37-.39-.12-.09-.05-.6-.44-.24-.03.03-.08-.22-.04-.3.26-.48.1-.84-.2-1.26-.4-.56-.64-1.22-.8-1.9-.033-.16.17-.63-.363-.48-.08.022-.06-.16-.03-.24.09-.21-.06-.48-.16-.46-.55.07-.42-.4-.42-.59 0-.76-.81-.96-.99-1.59-.07-.25-.31-.428-.14-.73.08-.13.01-.16-.29-.22-.07-.01-.13-.14-.18-.22-.44-.77-.89-1.54-1.34-2.31-.01-.02-.07-.02-.15-.04-.15.57.34.95.57 1.24.39.497.55 1.066.83 1.59.21.4.57.73.61 1.22l.02-.014c-.47-.03-.34-.51-.53-.74-.39-.47-.62-1.04-1.03-1.52-.23-.27-.35-.71-.58-1.07-.24-.38-.68-.38-.9-.72-.02-.03-.13-.11-.15-.02-.02.1.04.22.08.4-.4-.23-.54-.71-1.04-.75-.28-.03-.12-.48-.25-.64-.17-.23-.2-.28.04-.48.29-.24.1-.51-.22-.75-.43-.33-.82-.74-1.16-1.18-.21-.27-.36-.23-.65-.2-.36.04-.71-.27-.84-.61-.27-.72-.9-.95-1.49-1.23-.195-.1-.3-.25-.45-.37-.17-.14-.2-.49-.49-.08-.11.15-.3-.12-.37-.23-.18-.32-.436-.47-.78-.47-.29 0-.37-.21-.5-.41-.11-.17-.32-.17-.45-.09-.16.098.18.19.03.378-.31-.41-.88-.26-1.24-.61.54-.55 1.1-1.04 1.92-1.14.12-.02.21-.21.33-.3.3-.23.76-.26.86-.71.75.29 1.22-.26 1.76-.58.13-.08.2-.07.26.02.61.84 1.58.69 2.4.79.95.11 1.83.39 2.75.6.9.21 1.83.3 2.78.64-.96-2.24-1.91-4.4-3.04-6.48-1.17-2.17-2.35-4.33-3.58-6.47-.623-1.087-1.31-2.13-2.07-3.12-1.313-1.7-2.57-3.45-3.97-5.077-.8-.92-1.51-1.97-2.652-2.57-.46-.23-.77-.67-1.14-1.02-.83-.79-1.87-1.28-2.89-1.78-.88-.42-1.73-.91-2.65-1.22-.75-.26-1.48-.53-2.27-.67-.46-.08-.92-.32-1.45-.47.18.71.75 1.16 1.04 1.77.29.57.67 1.09.98 1.65.08.14.25.28.1.51-.33.49.02.9.29 1.2.42.47.66 1.02 1 1.52 1.008 1.5 1.44 3.3 2.58 4.72.27.35-.09 1.07-.6 1.01-.55-.06-.83.32-1.1.53-.48.38-1.022.52-1.54.75-.46.21-.99.27-1.37.65-.14.14-1.47.17-1.6.01-.29-.35-.54-.68-.42-1.24.14-.58-.31-1.05-.6-1.52-.62-1.03-1.22-2.07-1.91-3.05-1.49-2.11-3.09-4.13-4.8-6.07-1.51-1.73-3.07-3.41-4.67-5.06-2.13-2.21-3.94-4.7-6.03-6.94-.89-.95-1.772-1.93-2.522-2.97-1.157-1.6-2.73-2.7-4.18-3.93-1.49-1.27-3.4-1.89-5.18-2.68-.36-.16-.4-.13-.48.3-.288 1.48-.44 3-1.26 4.32-.2.31.2.64-.1.94-.07.07-.02.25-.16.32-.28 0 .09-.26-.16-.3l-.21.54c.18.17.41.04.61.12-.23.32-.75.34-.9.55-.31.44-.64.93-.75 1.5-.03.16.13.44-.1.456-.15.01-.54.01-.5-.39l-.1.9c-.12-.52-.11-.49-.62-.42-.29.05-.38-.24-.37-.47.01-.14 0-.23-.19-.33-.09.2-.15.69-.258.56-.31-.38-.49-.31-.76-.02-.02.02-.23.05-.26.09.08-.43-.36-.72-.3-1.16.02-.14-.13-.14-.23-.13-.09.01-.29 0-.23.12.2.42-.06.29-.27.27-.1-.01-.3-.04-.15.17.02.03-.08.53.18.08.01-.01.29.11.34.32-.66.22-1.26-.11-1.88-.07.02-.25.29-.01.36-.21h-1.43c.21.27 1.15-.26.67.65.19.09.53-.11.52.08-.02.34-.37.12-.56.16-.34.06-.77-.3-1.01.283 1.16-.14 2.27.07 3.38.26-1.25-.28-2.49.14-3.78-.05-1.18-.17-2.43.1-3.68-.05.09.27.34.07.43.27-.6.11-1.11-.33-1.7-.23-.16.03-.34-.01-.51.02-.1.01-.19.09-.28.13l.2.2c.1.09.16.18.26-.03.1-.2.24-.26.41 0 .06.09.31.07.47.07 1.34-.01 2.69-.02 4.03-.048.35-.01.25.3.4.41-1.67.22-3.33.12-4.99.3.04.3.42.03.52.4-.9 0-1.78-.01-2.65 0-.434.01-.87.08-1.304.06-.27-.01-.655.285-.81-.21 0-.016-.13-.02-.17.01-.46.334-1.02.45-1.574.34-.57-.11-1.12-.34-1.67.2-.22.21-.79.155-1.07.07-.8-.23-1.57-.11-2.34-.07-1.19.07-2.38.09-3.56-.04-.37-.04-.69.098-1.03.11-.99.03-1.97-.08-2.94-.12-.59-.03-1.27.12-1.9.09-2.107-.07-4.21 0-6.31.08-1.75.07-3.5-.02-5.24.1-.7.05-1.4.3-2.11.41-.97.15-1.96.2-2.92.42-.128.03-.38-.05-.47-.36-.08-.32-.167-.66-.307-.98-.16-.373-.48-.46-.72-.68-.33-.3-.25-.75-.39-1.12-.09-.25-.15-.544-.2-.82-.09-.5-.18-1-.25-1.51-.1-.75-.06-1.5-.09-2.25-.01-.31-.01-.46-.42-.33-1.45.44-2.85 1-4.25 1.55-1.24.48-2.44 1.01-3.66 1.52-1.2.51-2.28 1.24-3.42 1.86-1.46.79-2.87 1.67-4.3 2.52-1.35.8-2.74 1.55-4.03 2.43-1.13.77-2.27 1.53-3.41 2.3-.367.25-.855.42-1.16.63-.61.43-1.327.64-1.905 1.12-.58.48-1.28.8-1.93 1.2-.07.05-.12.04-.15-.01-.14-.19.08-.32.1-.54-.38.13-.62.42-.84.68-.36.43-.903.6-1.26 1.02-.06.07-.112.02-.122-.03-.07-.36-.18-.2-.26-.02-.3.74-.96.9-1.6 1.23-.5.25-1.19.5-1.45 1.12-.11.26-.13.27-.39.17-.17-.06-.45.07-.63.19-.88.54-1.8 1-2.57 1.72-.24.23-.5.39-.62.72-.03.07-.11.35-.37.03-.17-.21-.48.25-.7.43-.36.32-.66.59-1.22.62-.38.03-.81.38-.9.89-.01.08 0 .21-.05.24-1.04.62-1.72 1.79-3 2.06-.07.02-.14-.01-.21-.02.05.77-1.03.83-.98 1.59.01.11-.07.11-.09.09-.38-.29-.47.24-.85.27.28-.46.44-.9.56-1.48-1.65 1.47-2.96 3.15-4.65 4.49.38.15.66-.08.91-.18.83-.33 1.71-.49 2.54-.76 2.27-.74 4.59-.59 6.89-.81 2.04-.19 4.07.1 6.09 0 1.02-.05 1.86.23 2.42.93.395.5 1.197.72 1.18 1.54-.003.18.14.04.22.05.285.04.56.18.58.47.03.34-.294.33-.54.36-.61.09-.96.64-1.494.877-.26.11-.56.31-.67.55-.5 1.17-1.75 1.456-2.56 2.26-.8.79-1.62 1.57-2.44 2.36-.6.58-1.2 1.17-1.92 1.88.1-.5.62-.58.45-1.01-.93.84-1.77 1.76-2.73 2.56.52.05.71-.43 1.12-.58-2.03 1.89-4.11 3.74-5.96 5.81.35.04.44-.29.75-.42-.24.6-.82.85-1.1 1.35-.19.33-.62.73-.83.74-1.08.04-1.31 1.08-2.02 1.51-.11.07-.04.34-.28.23-.2-.09.15-.27-.09-.37-.38.35-.08.87-.29 1.28-.08.15-.05.27-.265.37-.37.19-.77.43-.55 1.01.17.43-.58.34-.53.77l-.07-.48-.11.14c-.88 1.01-1.56 2.14-2.14 3.34-.12.26-.24.39-.53.52-.02.01-.06-.01-.09-.01.06.5-.8.59-.55 1.194.02.04-.07.14-.13.2-.64.57-.99 1.4-1.68 1.94-.07.05-.15.18-.2-.03-.01-.05.03-.2-.11-.1-.05.03-.1.13-.08.16.43.7-.325.94-.54 1.39-.03.06-.12.56-.4.13-.044.03-.12.06-.13.1-.194.55-.61.94-.99 1.36-.04.04-.03.16-.005.23.04.1.13.06.21.02 1.7-.89 3.596-.58 5.396-.863 1.09-.17 2.19-.39 3.29-.54 1.29-.186 2.61-.385 3.91-.33.66.03 1.52.18 1.94.96.56-.08.86.42 1.31.6.706.28 1.286.84 1.587 1.49.32.7.2 1.52 0 2.27-.23.89-.83 1.62-1.15 2.47-.65 1.75-1.22 3.53-1.94 5.24-.31.72-.52 1.55-1.02 2.13-.53.63-.89 1.28-1.11 2.05-.07.27-.17.51-.13.82.06.45-.39.68-.59 1.026-.32.54-.47 1.15-.76 1.7.01-.66.08-1.3.34-1.91-.43.69-.66 1.44-.89 2.2l.02-.02z"/><path d="M83.508 61.95c-.32.32-.663.21-1.02.212-.523 0-1.112-.5-1.584.13-.017.02-.096.028-.096.026-.21-.672-.476-.212-.802-.09-.405.15-.858-.087-1.305-.025-.29.04-.62.472-.89-.04-.05.033-.14.057-.15.1-.14.535-.57.318-.9.34-.93.058-1.87-.217-2.79.045-.55.16-1.09.255-1.66.25-.23 0-.53.06-.7.21-.46.414-1.05.546-1.59.648-1.45.27-2.84.74-4.15 1.393-1.61.8-3.08 1.85-4.44 3.04-1.18 1.02-2.29 2.11-3.04 3.53-.5.95-.8 1.95-1.04 2.98-.3 1.28-.51 2.58-.62 3.88-.18 2.17-.18 4.36-.66 6.49-.17.76-.27 1.51-.23 2.31-.24-.13-.02-.41-.22-.53-.15 1.1-.26 2.19-.1 3.29l-.16.01v-2.27c-.19.93-.24 1.87-.28 2.8 0 .1.06.2.08.3.26 1.31.39 2.65.27 3.98-.09 1.09-.39 2.14-.12 3.27.25 1-.05 2.06.02 3.11.06.77.05 1.57.08 2.35.04.97-.09 1.93-.07 2.9.02 1.07-.08 2.16-.27 3.22-.12.69-.08 1.38-.16 2.07-.13 1.2-.3 2.4-.44 3.61-.19 1.65.23 3.29.16 4.94 0 .1-.01.38.26.47 0-.15.01-.28 0-.4-.05-1.27-.19-2.54-.15-3.8.06-1.76.24-3.51.37-5.26.06-.8.18-1.01.61-1.24.12-.07.17-.38.34-.13.13.19 0 .41-.22.47-.42.11-.35.35-.28.67.05.23.26.54-.16.76-.12.06-.15.57.04.74.27.23.32.18.3.26-.21.91-.24 1.83-.25 2.75-.01 1.46.03 2.91.14 4.37.08 1.02.07 2.07.29 3.07.36 1.66.43 3.35.72 5.02.33 1.95.83 3.85 1.54 5.7.78 2 1.86 3.85 2.95 5.69.58.98 1.11 2 1.69 2.96.62 1.02 1.36 2 2.1 2.96 1.02 1.33 1.96 2.72 2.92 4.09.52.74.91 1.61 1.45 2.36.81 1.12 1.54 2.25 1.88 3.62.13.52.45 1.04.94 1.22.56.2.63.54.59 1.02.45-.19.76.03.72.53-.02.32.13.82.25.8.64-.1.42.44.52.66.17.38.5.35.65.2.3-.3.22-.04.3.12.26.5.2 1.14.69 1.56.16-.34-.25-.54-.14-.89l1.25 1.64c.97 1.28 1.65 2.73 2.5 4.08.43.7.9 1.4 1.07 2.26.06.33.5.76.9.8 1.25.11 2.52.1 3.79.18 2.63.16 5.24-.21 7.86-.3 1.5-.06 3.02-.1 4.51-.46 2.41-.59 4.91-.84 7.04-2.28.8-.53 1.65-.97 2.32-1.68 1.17-1.23 2.06-2.67 3.07-4.01.94-1.25 1.87-2.53 2.48-3.98 1.14-2.7 2.56-5.27 3.72-7.96 1.13-2.61 2.68-5.01 3.93-7.57.96-1.96 1.91-3.91 2.76-5.92.53-1.24 1.04-2.49 1.49-3.76.87-2.4 1.67-4.83 2.54-7.23.67-1.88 1.26-3.78 1.73-5.71.5-2.04.94-4.09 1.39-6.14.54-2.45 1.09-4.89 1.16-7.41.04-1.33.15-2.65.42-3.94.51-2.51.62-5.05.72-7.59.06-1.48.02-2.96-.09-4.45-.09-1.22-.11-2.43-.36-3.65-.51-2.57-1.26-5.02-2.6-7.27-.3-.5-.66-.97-.93-1.48-.48-.92-1.01-1.82-1.71-2.55-1.07-1.14-2.05-2.35-3.25-3.37-.93-.78-1.68-1.77-2.62-2.56-1.22-1.03-2.52-1.94-3.8-2.87-.92-.67-2.02-1.12-2.8-1.94-.63-.67-1.38-1.06-2.18-1.44-1.22-.58-2.49-1.09-3.79-1.45-1.45-.41-2.93-.59-4.46-.57-1.77.02-3.43.4-5.06.96-.36.12-.84.21-1 .67-.13.37-.45.56-.77.67-.23.08-.36.27-.59.34-.11.04-.19.17-.08.32.12.15.2.04.3-.03.38-.27.78-.5 1.37-.52-.77.55-1.62.75-2.39 1.23.25.13.42-.2.61.06-1.1.41-2.04 1.1-3.09 1.59-.83.38-1.66.66-2.59.51-.75-.12-1.47-.48-2.26-.33-.04.01-.1-.05-.14-.08-.38-.3-.84-.15-1.26-.24-.85-.19-1.7-.37-2.25-1.17-.48-.7-.75-1.47-.9-2.37M81 175.16c.006.274.396.4.18.74-.122-.54-.593-.47-.95-.54-.31-.064-.495.145-.456.57-.28-.58-.82-.82-1.07-1.393-.14-.32-.14-1.09-.93-1.09-.334 0-.51-.49-.61-.86-.04-.16-.13-.32-.285-.26-.17.07-.06.237-.03.38.06.305.42.534.2.92-.07.13-.11.2-.25.2-.16 0-.14-.08-.2-.2-.37-.77-.79-1.514-1.2-2.26-.12-.215-.34-.395-.24-.676.11-.33-.35-.07-.31-.32-.21.02-.05.24-.19.32-.26-.6-.56-1.22-.9-1.73-.46-.68-.93-1.36-1.39-2.04-2.23-3.3-4.68-6.45-6.91-9.74-1.23-1.82-2.52-3.61-3.77-5.41-1.43-2.07-3.06-4.01-4.37-6.17-.94-1.54-1.85-3.11-2.78-4.66-.67-1.13-1.32-2.26-1.88-3.44-1.04-2.22-1.75-4.52-2.15-6.94-.34-2.07-.57-4.14-.77-6.23-.18-1.84-.37-3.68-.38-5.54 0-.56-.38-1.09-.41-1.69-.01-.15-.11-.33-.05-.48.09-.21-.03-.23-.16-.2-.39.09-.82-.33-.6-.68.43-.69.1-1.33.1-2 .01-1.68.09-3.35.37-5.01.05-.35.02-.72.01-1.08-.06-2.37-.03-4.75-.05-7.12-.02-2.81.13-5.63.01-8.44-.07-1.59-.07-3.18-.06-4.77.01-1.83.42-3.63.73-5.44.26-1.54.94-2.93 1.25-4.44.14-.71.4-1.41.42-2.16.01-.3.36-.5.45-.82-.08.48-.1.96-.07 1.44.15-.54.21-1.1.35-1.64.05-.2.21-.23.28-.36.29-.51 0-1.18.38-1.65.59-.71.42-1.73 1.06-2.42.12-.13.1-.39.15-.58.28-1.12 1.26-1.77 1.87-2.67.1-.14.39-.34.81-.47-.75.87-1.56 1.5-1.83 2.51.68-.82 1.23-1.76 2.12-2.41.13-.1.37-.36.15-.64-.38-.5.2-.65.37-.63.33.04.35-.15.38-.31.05-.24.18-.43.37-.47.85-.2 1.38-.91 2.11-1.29.11-.06.23-.19.33-.13.69.45.9-.31 1.32-.52.07-.03.2-.09.13-.23-.17-.33.07-.4.28-.57.93-.74 2.08-1.11 3.02-1.86.55-.44 1.35-.52 2.05-.64 1.31-.21 2.64-.34 3.96-.41 1.24-.06 2.49-.23 3.74-.05.99.14 2.01.08 3 .3 1.43.31 2.89.44 4.32.78.71.18 1.45.35 2.16.49.76.14 1.77-.03 2.38.74.03.03.05.07.07.11.5-.68.75.3 1.14.18.62-.18.95.38 1.44.49.29.07.6.1.94-.07 1.06-.52 2.14-1.01 3.29-1.31.64-.16 1.18-.19 1.75.32.25.22.76.37 1.17.39.35.03.63-.24.89-.5.78-.76 1.78-1.17 2.72-1.68.88-.48 1.77-.93 2.7-1.3.83-.33 1.6-.82 2.47-1.02.47-.11.93-.21 1.41-.27 2.69-.34 5.31-.03 7.88.87 2.23.78 4.37 1.75 6.4 2.96.86.51 1.57 1.23 2.31 1.89 1.31 1.15 2.81 2.05 4.19 3.1 1.71 1.28 3.14 2.82 4.36 4.59 1.19 1.73 2.32 3.49 3.4 5.28.44.73.79 1.52 1.18 2.28.15.3.33.57.66.74.43.22.5.71.71 1.09.08.14.08.32.22.43.2.17.31.43.09.6-.21.16-.35-.12-.55-.33.14.66.3 1.23.38 1.82.24 1.89.49 3.78.68 5.68.21 2.21.37 4.41.36 6.63-.01.34-.12.66-.12.99-.02 1.03.47 2 .35 3.02-.16 1.29-.22 2.58-.44 3.86-.1.57-.44 1.18 0 1.82.15.23-.06.72-.16 1.08-.24.81-.28 1.64-.44 2.46-.18.92-.46 1.81-.64 2.72-.4 2-.84 3.99-1.26 5.98-.31 1.4-.6 2.81-.93 4.2-.56 2.32-1.33 4.58-2.13 6.83-.53 1.49-1.17 2.94-1.56 4.46-.31 1.23-.69 2.42-1.12 3.6-.84 2.32-2.02 4.46-3.14 6.64-1.05 2.04-2.16 4.04-3.4 5.97-.46.72-.86 1.48-1.37 2.17-.22.3-.61.48-.7.99-.28-.73.32-1.06.44-1.55-.11-.1-.28-.12-.34-.02-.39.65-1.21.98-1.4 1.74-.13.49-.7.63-.72 1.19-.01.22-.18-.07-.27-.12-.52-.28-1.03-.15-1 .39.06.85-.55 1.29-.83 1.92-.6 1.36-1.08 2.81-1.92 4-.7.98-1.2 2.07-1.92 3.04-.73.97-1.49 1.94-2.07 3-.33.59-1.11.91-1.03 1.72-.4.02-.59.34-.83.59l-1.34 1.48c-.06.07-.11.13-.03.23.26-.11.42-.37.66-.52.21-.13.3-.21.58-.14.41.09.24-.44.44-.64.25.2.25.44.04.65-.15.16-.02.29.04.38.1.15.2-.01.31-.06.19-.1.4-.16.72-.29-.85.7-1.59 1.32-2.33 1.94-.06.05-.09.16-.18.11-.18-.1-.28-.02-.31.14-.01.06.06.15.11.21.13.13.23.02.32-.07.12-.12.29-.19.38-.05.12.16-.09.22-.19.32-.87.89-2.06 1.31-3.05 2.03-.07.05-.15.06-.1.21.1-.04.21-.07.31-.12.11-.05.2-.3.33-.07.03.07-.1.27-.19.37-.32.33-.71.6-1.15.7-.87.21-1.63.74-2.52.84-.08.01-.16.06-.22.11-1.12.84-2.47.76-3.75.89-1.54.15-3.08.27-4.62.14-.99-.08-1.93.3-2.9.24-1.4-.09-2.79-.1-4.18-.46-.73-.19-1.56-.05-2.35-.16-.39-.05-.79-.12-1.18-.16-.44-.04-.5.11-.43.49-.42-.18-.84-.29-.94-.79-.38.37.26.49.12.81-.17.02-.19-.32-.52-.12-.62.39.39.6-.02.87-.33-.08-.37-.6-.81-.65m74.85 10.05c.17.44-.15.85 0 1.29.29-.32.17-.74.32-1.09.06-.14-.09-.35.06-.51.12-.11-.01.5.22.08.01-.02.06-.02.09-.03.01.04.02.09.02.13v.57c.32-.18.21-.48.29-.7.19.06-.02.4.22.36.21-.04.06-.23.07-.36.02-.25.28-.44.18-.73.28.67.27.66-.32 1.29-.18.18.07.51-.29.68.43.06.4-.18.41-.38 0-.13.08-.19.18-.2.16 0 .13.13.14.23.03.36-.11.69-.2 1.03-.03.12-.05.21.09.22.08.01.15.04.16-.14.09-.9.24-1.79.41-2.68.27.69-.24 1.42.13 2.1-.04-.61.37-1.15.27-1.8.05.64.1 1.24.73 1.64-.13-.52.1-1 .07-1.53.21.16.02.4.19.55.15-.35-.09-.78.22-1.15.27.72-.26 1.37.04 2.19 0-.92.61-1.45.71-2.32.4.53.5.95.21 1.58.39-.4.38-.78.66-1.21-.06 1.09-.4 1.99-.27 2.94.16-.08.04-.29.11-.32.35-.16.21-.61.28-.69.47-.47.16-1.19.66-1.63-.2.8.25 1.51.16 2.37-.13 1.17-.52 2.35-.34 3.54.17 1.09.09 2.18.11 3.26.03 1.59-.32 3.13-.474 4.7-.09.93-.03 1.89-.29 2.78-.3 1.03-.18 2.1-.56 3.13-.31.83-.25 1.8-.39 2.7-.14.88-.4 1.73-.6 2.58-.19.8-.24 1.64-.42 2.46-.27 1.21-.54 2.43-.68 3.66-.11.97-.37 1.88-.74 2.75-.49 1.16-.66 2.43-1.16 3.56-.42.97-.61 2.13-1.5 2.81-.467.36-.56.72-.57 1.22-.007.28-.41.41-.66.32-.26-.09-.6-.15-.85-.07-.26.09-.66-.31-.83.3-.06.24-.61.47-.97.05-.108-.12-.26-.23-.41-.27-1.41-.37-2.61-1.21-3.88-1.88-.9-.48-1.85-.85-2.75-1.33-1.48-.79-2.94-1.63-4.36-2.51-1.04-.65-2.12-1.23-3.14-1.91-1.21-.79-2.41-1.59-3.59-2.42-.79-.55-1.52-1.22-2.296-1.75-1.99-1.37-3.68-3.02-5.37-4.71-1.13-1.13-2.17-2.35-3.02-3.67-.76-1.18-1.52-2.4-1.91-3.83-.31-1.13-.76-2.25-1.212-3.34-.18-.44-.11-.92.05-1.27s.73-.16 1.08-.35c.63-.32 1.3.03 1.95-.07.16-.03.55-.04.7.26.02.04.1.11.1.11.89-.76.756.53 1.226.61.02 0 .05.07.04.1-.27.8.31 1.44.42 2.17.03.18.19.41.06.526-.42.38-.07.72-.03 1.09.11 1.02 1 1.55 1.4 2.37.33.67.94 1.11 1.32 1.72.21.32.24.74.54 1.01.15.14.2.503.56.33.08-.04.17.043.14.14-.13.45.28.6.5.734.51.32.94.67 1.2 1.22.09.2.31.26.49.37.11.07.29-.02.33.13.12.47.67.57.83 1.015.15.4.64.44.93.75.61.64 1.38 1.13 2.1 1.663.58.43 1.22.81 1.76 1.29.27.24.51.54.83.68.28.12.58.19.8.44.1.11.33.14.26.38.25.07.5.29.68.33.77.13 1.25.73 1.89 1.06.38.19.77.43 1.14.68.32.21.61.48.84.76.16.19.29.24.51.3.26.075.79-.22.73.48-.01.105.6.357.91.56.52.33 1.08.577 1.64.84.31.146.72.24.78.71.01.08.27.22.35.19.8-.35.82.41 1.15.815.51-1.2 1.3-2.24 1.52-3.54.28-1.61.96-3.1 1.23-4.71.27-1.63.57-3.25.87-4.87.24-1.28.55-2.54.78-3.81.35-1.85.62-3.71.99-5.54.32-1.54.34-3.1.6-4.65.17-1.03.2-2.09.27-3.137.06-.85.19-1.72.1-2.57-.1-.99-.05-1.98-.14-2.97-.07-.77.02-1.55.21-2.29M15.7 120.02c.323.07.45.494.16.74-.157.136-.124.25-.13.36-.037.64-.37 1.17-.466 1.787-.006.043-.14.06-.23.095-.07-.508.21-.92.242-1.38.02-.338.286.26.233-.11-.04-.217-.09-.415-.01-.645.07-.196.19-.332.28-.497.04-.074-.04-.245-.07-.37l-.02.016m101.34 85.94l1.82-2.968c.18.08.17.198.14.25-.56.897-1.11 1.79-1.68 2.677-.08.116-.2.076-.31.024l.01.01M13 133.01l-.828 3.99-.172-.02.838-3.98.162.018M116.982 206c.137.762-.683 1.113-.912 1.72-.16.422-.733.623-.758 1.126-.002.05-.007.226-.178.122-.117-.07-.172-.16-.105-.298.18-.386.54-.666.76-1.04.34-.566.8-1.076 1.2-1.612l-.02-.018M177 93.012c.448.608.71 1.304 1 1.988-.32-.67-.884-1.227-.99-2 .002 0-.01.012-.01.012m-63-51.746c-.676.295-1.34.334-2-.016.67-.07 1.34-.534 2 .016M18 156c-.152.544-.656.68-1 1 .164-.53.66-.676 1-1m165.07-52c-.094.364.643.543.368 1-.32-.324-.562-.61-.37-1M99.012 44.04c.69-.19 1.32.355 1.988.46l-2-.165.012-.295"/><path d="M107.427 118.975c-.117.402-.593.363-.66.72.25.167.462-.242.654-.093.23.33-.66.487-.04.838-.2.12-.37.338-.66.247-.15-.05-.3-.13-.46-.168-.05-.02-.37-.15-.12.14.07.08-.3.2-.01.19.47-.02.13.31.28.46.16-.29.36-.54.74-.37.07.03.21-.34.23.04.01.12.15.28-.13.26-.05-.01-.19-.07-.16.08.02.05.13.11.21.12.18.03.4-.39.51.01.02.06-.39.52-.8.3-.01-.01-.04 0-.11.02.17.11.11.53.48.23.01-.01.12.08.11.1-.12.56.12 1.11.02 1.67-.03.19-.1.35-.25.48-.42.38-.64.88-.63 1.43 0 .46-.31.95-.55.92-.62-.07-.73.43-1.06.68-.02.01-.04.04-.05.04-.54-.17-.65.32-.83.6-.26.43-.9.36-1.08.88-.04.11-.26.19-.42.24-.26.08-.51.02-.59.46-.03.19-.64.3-1 .42-.13.04-.29-.02-.35.18-.17.59-.78.94-1.2 1.03-1.19.26-1.53 1.29-2.17 2.03-.33.37-.57.5-1.08.31.81 1.44.75 2.89.23 4.3-.25.68 0 1.1.26 1.64.3.63.68 1.31-.04 1.96-.11.11-.09.35-.13.54 1.83.51 3.7.82 5.6.67 1.69-.13 3.39-.24 5.05-.65 1.19-.3 2.41-.46 3.57-.93 1.22-.49 2.19-1.32 3.19-2.11.2-.16.45-.14.6-.34.15-.19.42-.29.58-.2.17.1.3.35.11.6-.09.1-.01.21.09.26.51.28.33.59.02.87-.19.17-.41.29-.53.51.38-.01.54-.3.77-.49.16-.12.25-.36.52-.29-.13.27.28.44.12.74-.16.3-.26.63-.44 1.09.21-.19.32-.25.39-.35.08-.12.17-.34.3-.2.09.1.33.34.15.51-.27.27.03.28.13.36.42.36.4.71-.11.99-.33.18-.59.32-.49.79.06.29-.93.99-1.24.98-.56-.01-1.17-.07-1.35.67-.04.2-.16.18-.3.24-.58.24-1.2.32-1.8.5-.18.06-.57-.04-.45.41.04.15-.15.08-.23.08-.08 0-.3.11-.21-.15.05-.15.01-.18-.14-.12-.87.32-1.79.31-2.69.49-.34.07-.53.35-.86.39.14.33.48-.22.57.27-1.77.05-3.51.55-5.28.38-1.59-.16-3.11-.65-4.44-1.52-.71-.47-1.36-1.07-1.78-1.89-.14-.27-.56-.45-.65-.94-.95 1.33-2.56 1.68-3.59 2.86-.1-.45.4-.43.48-.88-1.58.89-3.13 1.6-4.82 1.92l.06-.22c-.42.66-1.12.34-1.66.45-.3.06-.52-.07-.59.4-.03.2-.56.23-.89.22-.42-.01-.88-.16-1.23.23-.06.07-.19.09-.29.09-1.04-.01-2.07.08-3.12-.07-.42-.05-.97-.07-1.45.18-.38.19-.82-.01-1.24-.04-1.15-.07-2.31-.04-3.45.16-.28.05-.57.01-.61-.12-.2-.68-.89-.89-1.24-1.42-.32-.49-.28-.63.29-.75-.24-.16-.54.05-.84-.21l2.04-.52c-.78-.33-1.43-.2-2.09-.08.56-.4 1.2-.2 1.8-.29.51-.08 1.02.09 1.53-.31.43-.35 1.1-.2 1.65-.12.18.03.36.02.59.11-.24-.25-.39-.48-.68-.56.83-.26 1.63-.12 2.43-.16 1.29-.06 2.59.07 3.89-.01 1.26-.08 2.49-.25 3.68-.6 1.76-.51 3.36-1.38 4.57-2.76.76-.86 1.18-1.93 1.45-3.05.29-1.19.57-2.39.93-3.57.22-.71.14-1.44.3-2.15.08-.37-.24-.56-.49-.56-1.05 0-1.82-.49-2.5-1.2-.84-.86-1.67-1.72-2.51-2.57-.64-.64-1.45-1.11-2.2-1.64-.59-.42-1.17-.93-1.55-1.47-.46-.63-.73-1.56-.68-2.34.04-.81-.29-1.37-.57-2.02-.17-.4-.28-.81.07-1.16.35-.36.8-.46 1.28-.34.54.14 1.09.14 1.62.08 1.32-.16 2.64-.24 3.95-.46 1-.17 2.06-.11 3.08-.02.98.09 1.94-.07 2.9-.03 1.4.06 2.79-.18 4.18-.27 1.67-.11 3.36-.03 5.02-.25.61-.08 1.24-.04 1.85-.17.44-.09.61.15.48.51-.14.39-.09.54.35.45M119 82.65c-.542.09-.828.108-1.096-.096-.072.932-.157 1.018-.978.938-.33-.032-.527.09-.712.373-.162.247.033.416.117.373.57-.28.97.424 1.5.195-.53.267-1.05-.084-1.55-.02.1 1.43.08 2.746-1.19 3.68-.51.374-1.08.31-1.63.456-.93.25-1.86.53-2.79.72-1.58.31-3.26.58-4.69-.63-.53-.45-.61.25-.77.41-.34.32-.63.78-.75 1.28-.18.73-.78 1.21-1.03 1.9-.31.88-.38 1.81-.6 2.71-.08.34-.42.6-.24 1.05-.25-.16-.07-.37-.2-.5-.16-.02-.01.31-.16.24-.4-.18-1.25-1.97-1.18-2.44.29-1.69.7-3.34 1.39-4.91.51-1.15.91-2.34 1.89-3.21.93-.83 1.92-1.54 3.04-2.06 1.02-.48 2.06-.92 3.13-1.29.85-.3 1.74-.53 2.62-.66 1.46-.22 2.94-.27 4.41-.02.24.04.51.06.71.18.29.17.76.35.4.82-.24.32-.17.43.42.47m-48.09 4.2c.06-.38-.06-.83.1-1.28.13-.33-.22-.43-.47-.49-.65-.16-1.09-.54-1.46-1.21-.09-.18-.32-.32-.52-.42-.37-.19-.4-.58-.55-.89-.12-.24.48-.63.88-.55 2.22.47 4.5.53 6.72.95 1.67.32 3.34.74 4.74 1.75.94.68 1.91 1.36 2.55 2.37l.74 1.19c.18 1.01.59 1.93 1 2.85.34.75.39 1.54.37 2.33-.01.54-.34.72-.6.37-.38-.5-.98-.73-1.31-1.28-.19-.32-.12-.61-.23-.89-.37-.95-.59-1.96-1.17-2.81-.02-.03-.09-.56-.35-.01-.64 1.32-2.05 1.67-3.32 1.45-.85-.14-1.69-.26-2.55-.18-.33.03-.61-.19-.94-.19-.41-.01-.82-.17-1.23-.17-1.51.03-2.43-.68-2.37-2.27.01-.19 0-.38 0-.63"/><path d="M119 83.44c-.77.13-1.41.066-2-.364.698-.226 1.316.1 2 .364"/></g></svg>